<svg width="500" height="500" viewBox="0 0 500 500" fill="none" xmlns="http://www.w3.org/2000/svg">
<path d="M55.4793 273.73C55.4793 273.73 57.7993 345.73 117.909 393.73C178.019 441.73 261.319 445.16 328.749 449.73C396.179 454.3 447.979 416.11 455.749 358.41C463.519 300.71 412.029 283.77 384.069 218.08C356.109 152.39 358.639 130.8 299.489 90.4C240.339 50 147.799 74.81 99.2893 144C50.7793 213.19 55.4793 273.73 55.4793 273.73Z" fill="#8CC63E"/>
<path opacity="0.7" d="M55.4793 273.73C55.4793 273.73 57.7993 345.73 117.909 393.73C178.019 441.73 261.319 445.16 328.749 449.73C396.179 454.3 447.979 416.11 455.749 358.41C463.519 300.71 412.029 283.77 384.069 218.08C356.109 152.39 358.639 130.8 299.489 90.4C240.339 50 147.799 74.81 99.2893 144C50.7793 213.19 55.4793 273.73 55.4793 273.73Z" fill="white"/>
<path d="M83.6106 179.69V153.92C83.6106 135.68 98.7706 120.84 117.401 120.84C136.031 120.84 151.191 135.68 151.191 153.92V179.69H164.661V153.92C164.661 128.41 143.461 107.65 117.401 107.65C91.3406 107.65 70.1406 128.41 70.1406 153.92V179.69H83.6106Z" stroke="#263238" stroke-width="1.16634" stroke-linecap="round" stroke-linejoin="round"/>
<path d="M168.321 179.87H65.1406V265.22H168.321V179.87Z" stroke="#263238" stroke-width="1.16634" stroke-linecap="round" stroke-linejoin="round"/>
<path d="M127.46 215.32C127.373 212.398 126.151 209.625 124.054 207.59C121.956 205.554 119.148 204.415 116.225 204.415C113.302 204.415 110.494 205.554 108.397 207.59C106.299 209.625 105.077 212.398 104.99 215.32C105.002 217.317 105.558 219.273 106.597 220.979C107.637 222.684 109.121 224.074 110.89 225L109 244.38H123.45L121.56 225C123.33 224.074 124.814 222.684 125.853 220.979C126.893 219.273 127.448 217.317 127.46 215.32V215.32Z" stroke="#263238" stroke-width="1.16634" stroke-linecap="round" stroke-linejoin="round"/>
<path d="M232.64 267.99L206.95 266.3V265.88L203.79 266.09L200.64 265.88V266.3L174.95 267.99L156 423.79H174.95L203.16 299.57H204.43L232.64 423.79H251.59L232.64 267.99Z" fill="#263238" stroke="#263238" stroke-width="1.16634" stroke-linecap="round" stroke-linejoin="round"/>
<path d="M156.001 423.78L151.371 430.94L137.051 437.26C136.297 437.677 135.666 438.286 135.224 439.025C134.781 439.765 134.542 440.608 134.531 441.47V446.94H175.371C175.612 443.998 175.612 441.042 175.371 438.1C174.951 433.89 174.951 423.78 174.951 423.78H156.001Z" fill="#4C4C4C" stroke="#263238" stroke-width="1.16634" stroke-linecap="round" stroke-linejoin="round"/>
<path d="M134.531 442.31V446.94H175.371C175.371 446.94 175.561 444.94 175.561 442.31H134.531Z" fill="#263238" stroke="#263238" stroke-width="1.16634" stroke-linecap="round" stroke-linejoin="round"/>
<path d="M251.509 423.78L256.139 430.94L270.459 437.26C271.214 437.677 271.844 438.286 272.287 439.025C272.73 439.765 272.969 440.608 272.979 441.47V446.94H232.139C231.899 443.998 231.899 441.042 232.139 438.1C232.559 433.89 232.559 423.78 232.559 423.78H251.509Z" fill="#4C4C4C" stroke="#263238" stroke-width="1.16634" stroke-linecap="round" stroke-linejoin="round"/>
<path d="M273.001 442.31V446.94H232.141C232.141 446.94 231.961 444.94 231.951 442.31H273.001Z" fill="#263238" stroke="#263238" stroke-width="1.16634" stroke-linecap="round" stroke-linejoin="round"/>
<path d="M164.07 195.51C164.07 195.51 134.07 237.67 134.07 240.76C134.07 243.85 138.84 267.71 146.42 269.95C154 272.19 158.21 268.27 159.61 260.41C161.01 252.55 156.24 241.32 156.24 241.32L170.24 228.69L164.07 195.51Z" fill="#8CC63E" stroke="#263238" stroke-width="1.16634" stroke-linecap="round" stroke-linejoin="round"/>
<path d="M158.249 259.29C158.249 259.29 166.949 257.88 169.199 258.44C171.449 259 173.129 264.34 173.129 264.34C173.129 264.34 173.969 272.2 172.559 273.88C171.149 275.56 164.419 277.53 161.619 278.09C158.819 278.65 152.909 272.2 150.619 268.27C148.329 264.34 152.349 257.6 158.249 259.29Z" fill="#CCCCCC" stroke="#263238" stroke-width="1.16634" stroke-linecap="round" stroke-linejoin="round"/>
<path d="M170.38 193.6L164.07 195.51L174.01 261.86H233.09L242.08 195.89L234.05 192.83L204.41 186.33L170.38 193.6Z" fill="#8CC63E" stroke="#263238" stroke-width="1.16634" stroke-linecap="round" stroke-linejoin="round"/>
<path d="M236.34 215.78L235.01 225.34L224.68 227.82L214.16 223.62L214.93 215.01L236.34 215.78Z" fill="#263238" stroke="#263238" stroke-width="1.16634" stroke-linecap="round" stroke-linejoin="round"/>
<path d="M225.351 225.34C226.356 225.34 227.171 224.525 227.171 223.52C227.171 222.515 226.356 221.7 225.351 221.7C224.346 221.7 223.531 222.515 223.531 223.52C223.531 224.525 224.346 225.34 225.351 225.34Z" fill="#4C4C4C" stroke="#263238" stroke-width="1.16634" stroke-linecap="round" stroke-linejoin="round"/>
<path d="M198.1 198.57L203.65 205.07L196.57 250.19L204.03 262.05L212.83 249.62L205.37 205.26L211.68 199.14L204.99 190.54L198.1 198.57Z" fill="#263238" stroke="#263238" stroke-width="1.16634" stroke-linecap="round" stroke-linejoin="round"/>
<path d="M192.75 187.29L167.32 193.6L168.09 196.66L192.94 189.77L192.75 187.29Z" fill="#263238" stroke="#263238" stroke-width="1.16634" stroke-linecap="round" stroke-linejoin="round"/>
<path d="M213.59 186.52L239.02 192.83L238.26 195.89L213.4 189.01L213.59 186.52Z" fill="#263238" stroke="#263238" stroke-width="1.16634" stroke-linecap="round" stroke-linejoin="round"/>
<path d="M239 192.83C239 192.83 248.62 195 254.51 198.37C260.4 201.74 261.81 209.32 258.44 217.74C255.07 226.16 244.69 225.04 239.92 222.74C235.15 220.44 233.74 212.08 234.58 208.43" fill="#8CC63E"/>
<path d="M239 192.83C239 192.83 248.62 195 254.51 198.37C260.4 201.74 261.81 209.32 258.44 217.74C255.07 226.16 244.69 225.04 239.92 222.74C235.15 220.44 233.74 212.08 234.58 208.43" stroke="#263238" stroke-width="1.16634" stroke-linecap="round" stroke-linejoin="round"/>
<path d="M193.901 184.04L191.031 185.95L191.791 205.26L204.221 196.47L217.221 205.45L218.371 186.33L214.931 183.46L193.901 184.04Z" fill="#8CC63E" stroke="#263238" stroke-width="1.16634" stroke-linecap="round" stroke-linejoin="round"/>
<path d="M219 161.07C219 161.07 226.06 159.35 227.39 152.29C228.72 145.23 216 136.64 207.18 135.12C198.36 133.6 185.43 142.75 183.33 149.05C181.23 155.35 189.43 161.64 198.21 162.98C206.99 164.32 219 161.07 219 161.07Z" fill="#263238" stroke="#263238" stroke-width="1.16634" stroke-linecap="round" stroke-linejoin="round"/>
<path d="M192.68 162.22C192.68 162.22 188.86 156.3 187.91 161.45C186.96 166.6 190.96 168.89 192.68 168.7C194.4 168.51 192.68 162.22 192.68 162.22Z" fill="#CCCCCC" stroke="#263238" stroke-width="1.16634" stroke-linecap="round" stroke-linejoin="round"/>
<path d="M217.49 162.22C217.49 162.22 221.31 156.3 222.26 161.45C223.21 166.6 219.26 168.89 217.49 168.7C215.72 168.51 217.49 162.22 217.49 162.22Z" fill="#CCCCCC" stroke="#263238" stroke-width="1.16634" stroke-linecap="round" stroke-linejoin="round"/>
<path d="M193.52 173.9V186.52L204.22 196.47L216.27 186.14V174.29L193.52 173.9Z" fill="#CCCCCC" stroke="#263238" stroke-width="1.16634" stroke-linecap="round" stroke-linejoin="round"/>
<path d="M191.92 158.4C191.92 158.4 191.34 170.23 192.3 174.05C193.26 177.87 199.55 185.88 204.51 187.6C209.47 189.32 216.34 179.01 217.87 175.6C219.4 172.19 218.82 157.66 218.82 157.66C218.82 157.66 216.73 152.66 212.53 151.18C208.33 149.7 195.35 147 191.92 158.4Z" fill="#CCCCCC" stroke="#263238" stroke-width="1.16634" stroke-linecap="round" stroke-linejoin="round"/>
<path d="M199.85 164.68C199.85 165.58 199.44 166.31 198.93 166.31C198.42 166.31 198.01 165.58 198.01 164.68C198.01 163.78 198.42 163.05 198.93 163.05C199.44 163.05 199.85 163.78 199.85 164.68Z" fill="#263238"/>
<path d="M211.561 164.68C211.561 165.58 211.151 166.31 210.641 166.31C210.131 166.31 209.721 165.58 209.721 164.68C209.721 163.78 210.131 163.05 210.641 163.05C211.151 163.05 211.561 163.78 211.561 164.68Z" fill="#263238"/>
<path d="M201.841 169.24C201.653 169.195 201.457 169.193 201.268 169.235C201.079 169.277 200.902 169.36 200.751 169.48C200.599 169.6 200.476 169.753 200.392 169.927C200.307 170.101 200.264 170.292 200.264 170.485C200.264 170.678 200.307 170.869 200.392 171.043C200.476 171.217 200.599 171.37 200.751 171.49C200.902 171.609 201.079 171.693 201.268 171.735C201.457 171.777 201.653 171.775 201.841 171.73C202.243 171.738 202.635 171.608 202.951 171.36C203.246 171.707 203.613 171.988 204.025 172.183C204.438 172.378 204.887 172.482 205.343 172.49C205.799 172.497 206.251 172.408 206.67 172.227C207.089 172.046 207.464 171.777 207.771 171.44C208.068 171.633 208.416 171.734 208.771 171.73C208.959 171.775 209.155 171.777 209.344 171.735C209.533 171.693 209.709 171.609 209.861 171.49C210.013 171.37 210.136 171.217 210.22 171.043C210.304 170.869 210.348 170.678 210.348 170.485C210.348 170.292 210.304 170.101 210.22 169.927C210.136 169.753 210.013 169.6 209.861 169.48C209.709 169.36 209.533 169.277 209.344 169.235C209.155 169.193 208.959 169.195 208.771 169.24" fill="#CCCCCC"/>
<path d="M201.841 169.24C201.653 169.195 201.457 169.193 201.268 169.235C201.079 169.277 200.902 169.36 200.751 169.48C200.599 169.6 200.476 169.753 200.392 169.927C200.307 170.101 200.264 170.292 200.264 170.485C200.264 170.678 200.307 170.869 200.392 171.043C200.476 171.217 200.599 171.37 200.751 171.49C200.902 171.609 201.079 171.693 201.268 171.735C201.457 171.777 201.653 171.775 201.841 171.73C202.243 171.738 202.635 171.608 202.951 171.36C203.246 171.707 203.613 171.988 204.025 172.183C204.438 172.378 204.887 172.482 205.343 172.49C205.799 172.497 206.251 172.408 206.67 172.227C207.089 172.046 207.464 171.777 207.771 171.44C208.068 171.633 208.416 171.734 208.771 171.73C208.959 171.775 209.155 171.777 209.344 171.735C209.533 171.693 209.709 171.609 209.861 171.49C210.013 171.37 210.136 171.217 210.22 171.043C210.304 170.869 210.348 170.678 210.348 170.485C210.348 170.292 210.304 170.101 210.22 169.927C210.136 169.753 210.013 169.6 209.861 169.48C209.709 169.36 209.533 169.277 209.344 169.235C209.155 169.193 208.959 169.195 208.771 169.24" stroke="#263238" stroke-width="1.16634" stroke-linecap="round" stroke-linejoin="round"/>
<path d="M203.359 177.07H207.349" stroke="#263238" stroke-width="1.16634" stroke-linecap="round" stroke-linejoin="round"/>
<path d="M191.48 161.27C191.48 161.27 191.62 165.11 192.9 164.11C194.18 163.11 194.6 156.59 193.47 155.74C192.34 154.89 191.48 159.29 191.48 161.27Z" fill="#263238" stroke="#263238" stroke-width="1.16634" stroke-linecap="round" stroke-linejoin="round"/>
<path d="M216.109 161.27C216.109 161.27 216.259 165.11 217.529 164.11C218.799 163.11 219.239 156.59 218.099 155.74C216.959 154.89 216.109 159.29 216.109 161.27Z" fill="#263238" stroke="#263238" stroke-width="1.16634" stroke-linecap="round" stroke-linejoin="round"/>
<path d="M191.48 158.15C191.48 158.15 191.91 158.5 191.9 158.67C193.75 159.67 198 161.51 204.9 161.88C209.794 162.049 214.639 160.862 218.9 158.45C218.9 157.94 218.9 157.64 218.9 157.63C218.73 153.16 215.41 150.18 211.3 149.04C207.26 147.928 202.97 148.141 199.06 149.65C197.078 150.398 195.328 151.657 193.99 153.3C193.48 153.86 190.78 157.59 191.48 158.15Z" fill="#4C4C4C" stroke="#263238" stroke-width="1.16634" stroke-linecap="round" stroke-linejoin="round"/>
<path d="M191.92 158.4C196.185 159.343 200.563 159.663 204.92 159.35C213.13 158.97 218.84 158.4 218.84 158.4C215.067 161.937 210.197 164.075 205.04 164.46C202.521 164.624 200.002 164.155 197.71 163.096C195.419 162.038 193.428 160.424 191.92 158.4Z" fill="#4C4C4C" stroke="#263238" stroke-width="1.16634" stroke-linecap="round" stroke-linejoin="round"/>
<path d="M170.961 215.78L172.291 225.34L182.621 227.82L193.131 223.62L192.371 215.01L170.961 215.78Z" fill="#263238" stroke="#263238" stroke-width="1.16634" stroke-linecap="round" stroke-linejoin="round"/>
<path d="M181.951 225.34C182.956 225.34 183.771 224.525 183.771 223.52C183.771 222.515 182.956 221.7 181.951 221.7C180.946 221.7 180.131 222.515 180.131 223.52C180.131 224.525 180.946 225.34 181.951 225.34Z" fill="#4C4C4C" stroke="#263238" stroke-width="1.16634" stroke-linecap="round" stroke-linejoin="round"/>
<path d="M233.761 261.25H173.131V270.79H233.761V261.25Z" fill="#4C4C4C" stroke="#263238" stroke-width="1.16634" stroke-linecap="round" stroke-linejoin="round"/>
<path d="M184.78 261.81H171.59C170.115 261.81 168.92 263.005 168.92 264.48V270.93C168.92 272.405 170.115 273.6 171.59 273.6H184.78C186.255 273.6 187.45 272.405 187.45 270.93V264.48C187.45 263.005 186.255 261.81 184.78 261.81Z" fill="#4C4C4C" stroke="#263238" stroke-width="1.16634" stroke-linecap="round" stroke-linejoin="round"/>
<path d="M233.061 261.81H219.871C218.397 261.81 217.201 263.005 217.201 264.48V270.93C217.201 272.405 218.397 273.6 219.871 273.6H233.061C234.536 273.6 235.731 272.405 235.731 270.93V264.48C235.731 263.005 234.536 261.81 233.061 261.81Z" fill="#4C4C4C" stroke="#263238" stroke-width="1.16634" stroke-linecap="round" stroke-linejoin="round"/>
<path d="M211.02 261.81H197.83V270.23H211.02V261.81Z" fill="white" stroke="#263238" stroke-width="1.16634" stroke-linecap="round" stroke-linejoin="round"/>
<path d="M156.28 241.32C156.28 241.32 147.86 240.76 144.77 235.42" stroke="#263238" stroke-width="1.16634" stroke-linecap="round" stroke-linejoin="round"/>
<path d="M249.9 216.62C257.577 216.62 263.8 210.083 263.8 202.02C263.8 193.957 257.577 187.42 249.9 187.42C242.223 187.42 236 193.957 236 202.02C236 210.083 242.223 216.62 249.9 216.62Z" fill="#8CC63E" stroke="#263238" stroke-width="1.16634" stroke-linecap="round" stroke-linejoin="round"/>
<path d="M249.9 204.38C255.908 204.38 260.78 200.015 260.78 194.63C260.78 189.245 255.908 184.88 249.9 184.88C243.891 184.88 239.02 189.245 239.02 194.63C239.02 200.015 243.891 204.38 249.9 204.38Z" fill="#8CC63E" stroke="#263238" stroke-width="1.16634" stroke-linecap="round" stroke-linejoin="round"/>
<path d="M249.9 197.21C255.908 197.21 260.78 192.845 260.78 187.46C260.78 182.075 255.908 177.71 249.9 177.71C243.891 177.71 239.02 182.075 239.02 187.46C239.02 192.845 243.891 197.21 249.9 197.21Z" fill="#CCCCCC" stroke="#263238" stroke-width="1.16634" stroke-linecap="round" stroke-linejoin="round"/>
<path d="M232.42 166.44C232.42 166.44 232.61 180.82 233.34 185.06C234.07 189.3 237.03 194.83 241.09 194.83C243.794 194.763 246.471 194.267 249.02 193.36C249.02 193.36 253.81 195.94 258.42 195.2C263.03 194.46 262.29 188.01 262.29 185.2C262.29 182.39 261.74 161.6 261.74 161.6C261.74 161.6 262.11 159.6 260.26 159.21C259.353 159.006 258.429 158.882 257.5 158.84V154.41C257.16 153.903 256.687 153.498 256.134 153.239C255.581 152.98 254.967 152.876 254.36 152.94C251.97 152.94 251.78 153.49 251.78 153.49V149.43C251.78 149.43 249.78 146.2 247.17 147.77C246.644 148.072 246.201 148.499 245.88 149.014C245.559 149.529 245.37 150.115 245.33 150.72L245.14 154.6C245.14 154.6 240.72 152.94 240.35 155.52C239.98 158.1 239.24 174 239.24 174C238.978 171.5 238.486 169.03 237.77 166.62C236.85 164.22 232.42 164.22 232.42 166.44Z" fill="#CCCCCC" stroke="#263238" stroke-width="1.16634" stroke-linecap="round" stroke-linejoin="round"/>
<path d="M245.141 154.64L245.511 171.6" stroke="#263238" stroke-width="1.16634" stroke-linecap="round" stroke-linejoin="round"/>
<path d="M251.781 153.53L251.971 171.78" stroke="#263238" stroke-width="1.16634" stroke-linecap="round" stroke-linejoin="round"/>
<path d="M257.501 158.88L257.131 171.6" stroke="#263238" stroke-width="1.16634" stroke-linecap="round" stroke-linejoin="round"/>
<path d="M242.75 171.42L259.53 172.15" stroke="#263238" stroke-width="1.16634" stroke-linecap="round" stroke-linejoin="round"/>
<path d="M239.24 174C239.245 174.696 239.411 175.381 239.725 176.002C240.039 176.623 240.493 177.163 241.05 177.58C242.87 178.72 246.97 181.68 247.42 186.46" stroke="#263238" stroke-width="1.16634" stroke-linecap="round" stroke-linejoin="round"/>
<path d="M349.999 128.81V131H344.669V138.76H351.219V141H342.219V119.2H351.219V121.41H344.669V128.85L349.999 128.81Z" fill="#263238"/>
<path d="M358.299 119.16C361.719 119.16 363.159 120.9 363.159 124.16V125.94C363.159 128.34 362.319 129.83 360.449 130.42C362.449 131.01 363.189 132.63 363.189 134.97V138.37C363.118 139.262 363.266 140.158 363.619 140.98H361.159C360.819 140.144 360.682 139.239 360.759 138.34V134.91C360.759 132.45 359.609 131.67 357.579 131.67H355.869V141H353.439V119.2L358.299 119.16ZM357.669 129.44C359.609 129.44 360.759 128.81 360.759 126.44V124.35C360.759 122.35 360.039 121.35 358.239 121.35H355.869V129.42L357.669 129.44Z" fill="#263238"/>
<path d="M370.569 119.16C373.999 119.16 375.429 120.9 375.429 124.16V125.94C375.429 128.34 374.589 129.83 372.719 130.42C374.719 131.01 375.459 132.63 375.459 134.97V138.37C375.386 139.263 375.537 140.16 375.899 140.98H373.439C373.094 140.145 372.953 139.24 373.029 138.34V134.91C373.029 132.45 371.879 131.67 369.849 131.67H368.139V141H365.709V119.2L370.569 119.16ZM369.999 129.44C371.929 129.44 373.079 128.81 373.079 126.44V124.35C373.079 122.35 372.369 121.35 370.559 121.35H368.189V129.42L369.999 129.44Z" fill="#263238"/>
<path d="M377.799 124.42C377.799 121.09 379.449 118.94 382.799 118.94C386.149 118.94 387.799 121.09 387.799 124.42V135.7C387.799 139 386.149 141.18 382.799 141.18C379.449 141.18 377.799 139 377.799 135.7V124.42ZM380.199 135.82C380.199 137.82 381.039 138.97 382.779 138.97C384.519 138.97 385.369 137.82 385.369 135.82V124.3C385.369 122.3 384.559 121.15 382.779 121.15C380.999 121.15 380.199 122.33 380.199 124.3V135.82Z" fill="#263238"/>
<path d="M395 119.16C398.43 119.16 399.86 120.9 399.86 124.16V125.94C399.86 128.34 399.02 129.83 397.15 130.42C399.15 131.01 399.89 132.63 399.89 134.97V138.37C399.816 139.263 399.967 140.16 400.33 140.98H397.87C397.524 140.145 397.384 139.24 397.46 138.34V134.91C397.46 132.45 396.31 131.67 394.28 131.67H392.57V141H390.1V119.2L395 119.16ZM394.38 129.44C396.31 129.44 397.46 128.81 397.46 126.44V124.35C397.46 122.35 396.75 121.35 394.94 121.35H392.57V129.42L394.38 129.44Z" fill="#263238"/>
<path d="M329.379 264.88V267.09H324.379V276.53H321.949V254.73H330.609V256.94H324.379V264.88H329.379Z" fill="#263238"/>
<path d="M332.328 260C332.328 256.67 333.988 254.52 337.328 254.52C340.668 254.52 342.328 256.67 342.328 260V271.28C342.328 274.58 340.678 276.76 337.328 276.76C333.978 276.76 332.328 274.58 332.328 271.28V260ZM334.728 271.4C334.728 273.4 335.568 274.55 337.318 274.55C339.068 274.55 339.898 273.4 339.898 271.4V259.87C339.898 257.87 339.088 256.72 337.318 256.72C335.548 256.72 334.728 257.9 334.728 259.87V271.4Z" fill="#263238"/>
<path d="M349.499 254.73C352.919 254.73 354.359 256.47 354.359 259.73V261.51C354.359 263.91 353.519 265.4 351.649 265.99C353.649 266.58 354.389 268.2 354.389 270.54V273.94C354.315 274.833 354.467 275.73 354.829 276.55H352.369C352.018 275.717 351.877 274.81 351.959 273.91V270.48C351.959 268.02 350.809 267.24 348.779 267.24H347.069V276.55H344.639V254.75L349.499 254.73ZM348.879 265C350.809 265 351.959 264.37 351.959 262V259.91C351.959 257.91 351.239 256.91 349.439 256.91H347.069V265H348.879Z" fill="#263238"/>
<path d="M361.798 254.73C365.198 254.73 366.538 256.35 366.538 259.56V260.56C366.538 262.87 365.878 264.3 363.978 264.89C366.098 265.49 366.908 267.17 366.908 269.57V271.4C366.908 274.68 365.318 276.51 361.908 276.51H356.908V254.71L361.798 254.73ZM361.208 263.98C363.138 263.98 364.138 263.36 364.138 261.08V259.8C364.138 257.87 363.478 256.94 361.738 256.94H359.338V263.94L361.208 263.98ZM361.928 274.32C363.698 274.32 364.508 273.39 364.508 271.32V269.39C364.508 266.96 363.508 266.15 361.458 266.15H359.338V274.28L361.928 274.32Z" fill="#263238"/>
<path d="M371.549 254.73V276.53H369.119V254.73H371.549Z" fill="#263238"/>
<path d="M379.149 254.73C382.549 254.73 384.149 256.73 384.149 260.15V271.15C384.149 274.49 382.589 276.54 379.149 276.54H374.049V254.74L379.149 254.73ZM379.149 274.32C380.899 274.32 381.739 273.23 381.739 271.24V260C381.739 258 380.899 256.92 379.119 256.92H376.499V274.3L379.149 274.32Z" fill="#263238"/>
<path d="M391.489 254.73C394.879 254.73 396.439 256.73 396.439 260.15V271.15C396.439 274.49 394.879 276.54 391.489 276.54H386.379V254.74L391.489 254.73ZM391.489 274.32C393.229 274.32 394.069 273.23 394.069 271.24V260C394.069 258 393.229 256.92 391.459 256.92H388.839V274.3L391.489 274.32Z" fill="#263238"/>
<path d="M406.469 264.38V266.56H401.139V274.32H407.689V276.53H398.689V254.73H407.689V256.94H401.139V264.38H406.469Z" fill="#263238"/>
<path d="M412.078 276.53H409.898V254.73H412.998L417.998 270.49V254.73H420.148V276.53H417.618L412.048 258.9L412.078 276.53Z" fill="#263238"/>
<path d="M306.539 208.26L328.789 155.65H342.139V208.26H347.919V219.38H342.139V233.5H330.139V219.38H306.539V208.26ZM330.119 208.26V179L317.779 208.25L330.119 208.26Z" fill="#263238"/>
<path d="M352.479 174.33C352.479 161.88 359.038 154.76 371.048 154.76C383.058 154.76 389.629 161.88 389.629 174.33V214.82C389.629 227.28 383.058 234.39 371.048 234.39C359.038 234.39 352.479 227.28 352.479 214.82V174.33ZM364.708 215.6C364.708 221.16 367.158 223.27 371.048 223.27C374.938 223.27 377.389 221.16 377.389 215.6V173.6C377.389 168.03 374.948 165.92 371.048 165.92C367.148 165.92 364.708 168.03 364.708 173.6V215.6Z" fill="#263238"/>
<path d="M421.099 174.78C421.099 167.78 418.659 165.88 414.759 165.88C410.859 165.88 408.419 167.99 408.419 173.56V178.56H396.859V174.33C396.859 161.88 403.079 154.76 415.099 154.76C427.119 154.76 433.339 161.88 433.339 174.33V176.33C433.339 184.67 430.669 189.9 424.769 192.33C430.889 195 433.339 200.78 433.339 208.68V214.8C433.339 227.26 427.109 234.37 415.099 234.37C403.089 234.37 396.859 227.26 396.859 214.8V208.35H408.419V215.58C408.419 221.14 410.869 223.25 414.759 223.25C418.649 223.25 421.099 221.36 421.099 214.47V208.35C421.099 201.12 418.659 198.45 413.099 198.45H408.999V187.35H413.779C418.339 187.35 421.119 185.35 421.119 179.12L421.099 174.78Z" fill="#263238"/>
<path d="M86.8713 446.5H72.6113L91.6213 313.99H105.881L86.8713 446.5Z" fill="#263238" stroke="#263238" stroke-width="1.16634" stroke-miterlimit="10"/>
<path d="M115.391 446.5H129.641L110.631 313.99H96.3809L115.391 446.5Z" fill="white" stroke="#263238" stroke-width="1.16634" stroke-miterlimit="10"/>
<path d="M289.18 446.5H274.93L293.93 313.99H308.19L289.18 446.5Z" fill="#263238" stroke="#263238" stroke-width="1.16634" stroke-miterlimit="10"/>
<path d="M317.701 446.5H331.951L312.941 313.99H298.691L317.701 446.5Z" fill="white" stroke="#263238" stroke-width="1.16634" stroke-miterlimit="10"/>
<path d="M327.66 293.21H55.7305V319.57H327.66V293.21Z" fill="#8CC63E" stroke="#263238" stroke-width="1.16634" stroke-miterlimit="10"/>
<path d="M334.291 293.21H62.3613V319.57H334.291V293.21Z" fill="#8CC63E" stroke="#263238" stroke-width="1.16634" stroke-miterlimit="10"/>
<path d="M66.8105 319.57H89.8905L101.821 293.21H78.7405L66.8105 319.57Z" fill="#263238"/>
<path d="M158.17 293.21H135.09L123.16 319.57H146.24L158.17 293.21Z" fill="#263238"/>
<path d="M327.211 293.21H304.131L292.211 319.57H315.291L327.211 293.21Z" fill="#263238"/>
<path d="M270.871 293.21H247.781L235.861 319.57H258.941L270.871 293.21Z" fill="#263238"/>
<path d="M214.52 293.21H191.44L179.51 319.57H202.59L214.52 293.21Z" fill="#263238"/>
<path d="M332.801 304.9H287.801" stroke="#263238" stroke-width="1.16634" stroke-miterlimit="10"/>
<path d="M332.01 309.31H324.91" stroke="#263238" stroke-width="1.16634" stroke-miterlimit="10"/>
<path d="M61.2109 308.21H106.211" stroke="#263238" stroke-width="1.16634" stroke-miterlimit="10"/>
<path d="M62 303.25H118.84" stroke="#263238" stroke-width="1.16634" stroke-miterlimit="10"/>
<path d="M408.511 440.72H331.371V446.51H408.511V440.72Z" fill="#263238" stroke="#263238" stroke-width="1.16634" stroke-linecap="round" stroke-linejoin="round"/>
<path d="M395.491 440.56H344.391L364.421 331.6H375.461L395.491 440.56Z" fill="#8CC63E" stroke="#263238" stroke-width="1.16634" stroke-linecap="round" stroke-linejoin="round"/>
<path d="M356.98 372.1H382.91L380.42 358.6H359.46L356.98 372.1Z" fill="white" stroke="#263238" stroke-width="1.16634" stroke-linecap="round" stroke-linejoin="round"/>
<path d="M387.811 422.37L389.091 429.82" stroke="#263238" stroke-width="1.16634" stroke-linecap="round" stroke-linejoin="round"/>
<path d="M373.221 337.62L386.201 413" stroke="#263238" stroke-width="1.16634" stroke-linecap="round" stroke-linejoin="round"/>
<path d="M450.01 446.5H456.92" stroke="#263238" stroke-width="1.16634" stroke-linecap="round" stroke-linejoin="round"/>
<path d="M39.3691 446.5H440.359" stroke="#263238" stroke-width="1.16634" stroke-linecap="round" stroke-linejoin="round"/>
</svg>
