<svg width="500" height="500" viewBox="0 0 500 500" fill="none" xmlns="http://www.w3.org/2000/svg">
<path d="M38.8892 267.6C38.8892 267.6 42.5292 342.19 105.519 390.06C168.509 437.93 254.709 438.87 324.519 441.48C394.329 444.09 447.239 402.88 454.319 342.81C461.399 282.74 407.829 266.81 377.789 199.57C347.749 132.33 349.999 109.89 288.089 69.86C226.179 29.83 130.999 58.46 81.9992 131.74C32.9992 205.02 38.8892 267.6 38.8892 267.6Z" fill="#8CC63E"/>
<path opacity="0.7" d="M38.8892 267.6C38.8892 267.6 42.5292 342.19 105.519 390.06C168.509 437.93 254.709 438.87 324.519 441.48C394.329 444.09 447.239 402.88 454.319 342.81C461.399 282.74 407.829 266.81 377.789 199.57C347.749 132.33 349.999 109.89 288.089 69.86C226.179 29.83 130.999 58.46 81.9992 131.74C32.9992 205.02 38.8892 267.6 38.8892 267.6Z" fill="white"/>
<path d="M420.73 372.86C420.73 372.86 417.33 358.41 419.88 345.65C422.43 332.89 428.38 341.4 435.19 332.89C442 324.38 438.59 308.23 446.24 301.42C453.89 294.61 464.95 295.47 467.5 282.71C470.05 269.95 471.76 259.71 476.86 261.45C481.96 263.19 472.61 278.45 472.61 287.82C472.61 297.19 477.71 303.12 474.31 312.48C470.91 321.84 456.45 318.43 456.45 329.48C456.45 340.53 462.4 351.59 457.3 359.25C452.2 366.91 438.59 368.6 436.89 372.85C435.19 377.1 430.89 384.76 426.68 384.76C422.47 384.76 420.73 372.86 420.73 372.86Z" fill="#8CC63E"/>
<path d="M418 373C418.85 370.45 417.15 348.34 409.5 344.09C401.85 339.84 393.34 341.54 389.09 333.88C384.84 326.22 384.83 322.83 380.58 321.98C376.33 321.13 355.92 317.72 358.47 321.98C361.02 326.24 376.33 319.42 376.33 327.93C376.33 336.44 374.63 350.04 379.73 353.44C384.83 356.84 398.44 355.99 397.59 363.65C396.74 371.31 394.19 373.85 398.44 376.41C402.69 378.97 414.6 390.01 416.3 381.51L418 373Z" fill="#8CC63E"/>
<path d="M427.429 391.77C427.429 391.77 423.429 379.38 434.359 356.6C445.289 333.82 453.179 316.49 458.129 307.6" stroke="#263238" stroke-width="1.25654" stroke-miterlimit="10"/>
<path d="M418.509 393.75C418.509 393.75 417.029 387.8 412.069 371.46C407.109 355.12 401.179 350.66 392.759 345.21C384.339 339.76 383.849 330.85 382.359 328.37" stroke="#263238" stroke-width="1.25654" stroke-miterlimit="10"/>
<path d="M439.311 384.83C439.311 384.83 440.311 375.92 448.231 373.44C456.151 370.96 463.581 371.96 465.071 366.51C466.561 361.06 466.551 355.61 470.021 352.64C473.491 349.67 477.941 348.18 478.441 349.64C478.941 351.1 473.441 352.12 473.441 357.07C473.441 362.02 480.871 374.4 469.981 379.35C459.091 384.3 450.171 379.85 446.211 383.35C442.251 386.85 439.771 389.29 439.771 389.29L439.311 384.83Z" fill="#8CC63E"/>
<path d="M438.32 393.75C438.32 393.75 441.79 380.87 450.21 377.9C458.63 374.93 468 381.37 472 375.42C476 369.47 473 363.54 472.49 359.58" stroke="#263238" stroke-width="1.25654" stroke-miterlimit="10"/>
<path d="M443.889 391.77H413.189C412.864 391.769 412.542 391.832 412.241 391.955C411.94 392.079 411.666 392.26 411.436 392.49C411.206 392.719 411.023 392.992 410.898 393.293C410.773 393.593 410.709 393.915 410.709 394.24V394.24C410.709 394.898 410.97 395.529 411.435 395.994C411.9 396.459 412.531 396.72 413.189 396.72H413.439L415.829 402.99C416.015 403.476 416.344 403.893 416.773 404.188C417.201 404.482 417.709 404.64 418.229 404.64H438.859C439.379 404.639 439.886 404.481 440.314 404.186C440.742 403.892 441.072 403.475 441.259 402.99L443.649 396.72H443.889C444.547 396.72 445.178 396.459 445.643 395.994C446.108 395.529 446.369 394.898 446.369 394.24V394.24C446.369 393.915 446.305 393.593 446.18 393.293C446.055 392.992 445.872 392.719 445.642 392.49C445.412 392.26 445.138 392.079 444.837 391.955C444.536 391.832 444.214 391.769 443.889 391.77V391.77Z" fill="#263238"/>
<path d="M454.22 250.74H307.33C304.717 250.74 302.6 252.858 302.6 255.47V274.05C302.6 276.662 304.717 278.78 307.33 278.78H454.22C456.832 278.78 458.95 276.662 458.95 274.05V255.47C458.95 252.858 456.832 250.74 454.22 250.74Z" fill="#8CC63E"/>
<path d="M314.36 259.68V272.28H313V259.68H314.36Z" fill="#263238"/>
<path d="M317.41 272.28H316.15V259.68H317.93L320.84 268.79V259.68H322.09V272.28H320.63L317.41 262.09V272.28Z" fill="#263238"/>
<path d="M325.72 272.28V261H323.4V259.72H329.45V261H327.13V272.32L325.72 272.28Z" fill="#263238"/>
<path d="M335.26 265.26V266.52H332.18V271H336V272.28H330.82V259.68H336V261H332.22V265.3L335.26 265.26Z" fill="#263238"/>
<path d="M340.429 259.68C342.429 259.68 343.239 260.68 343.239 262.56V263.56C343.239 264.95 342.749 265.81 341.669 266.16C342.819 266.5 343.249 267.44 343.249 268.79V270.79C343.207 271.307 343.297 271.827 343.509 272.3H342.079C341.884 271.815 341.805 271.291 341.849 270.77V268.77C341.849 267.35 341.179 266.9 340.009 266.9H339.009V272.28H337.609V259.68H340.429ZM340.069 265.62C341.179 265.62 341.849 265.26 341.849 263.89V262.68C341.849 261.55 341.439 260.96 340.389 260.96H338.999V265.62H340.069Z" fill="#263238"/>
<path d="M346.309 272.28H345.049V259.68H346.829L349.749 268.79V259.68H350.999V272.28H349.549L346.319 262.09L346.309 272.28Z" fill="#263238"/>
<path d="M354.21 269.74L353.73 272.28H352.43L354.84 259.68H356.84L359.25 272.28H357.85L357.36 269.74H354.21ZM354.39 268.54H357.2L355.78 261.26L354.39 268.54Z" fill="#263238"/>
<path d="M360.75 272.28V259.68H362.15V271H365.75V272.28H360.75Z" fill="#263238"/>
<path d="M375.779 262.7V263H374.449V262.59C374.449 261.46 374.019 260.79 373.009 260.79C371.999 260.79 371.569 261.46 371.569 262.57C371.569 265.4 375.799 265.67 375.799 269.21C375.799 271.12 374.879 272.37 372.949 272.37C371.019 272.37 370.129 271.12 370.129 269.21V268.5H371.439V269.29C371.439 270.42 371.909 271.09 372.919 271.09C373.929 271.09 374.389 270.42 374.389 269.29C374.389 266.48 370.179 266.21 370.179 262.66C370.179 260.72 371.079 259.51 372.969 259.51C374.859 259.51 375.779 260.79 375.779 262.7Z" fill="#263238"/>
<path d="M381.859 265.26V266.52H378.789V271H382.569V272.28H377.379V259.68H382.569V261H378.789V265.3L381.859 265.26Z" fill="#263238"/>
<path d="M387 259.68C389 259.68 389.81 260.68 389.81 262.56V263.56C389.81 264.95 389.32 265.81 388.24 266.16C389.39 266.5 389.83 267.44 389.83 268.79V270.79C389.784 271.306 389.87 271.826 390.08 272.3H388.66C388.454 271.818 388.372 271.292 388.42 270.77V268.77C388.42 267.35 387.76 266.9 386.59 266.9H385.59V272.28H384.18V259.68H387ZM386.64 265.62C387.76 265.62 388.42 265.26 388.42 263.89V262.68C388.42 261.55 388.01 260.96 386.96 260.96H385.6V265.62H386.64Z" fill="#263238"/>
<path d="M392.7 259.68L394.75 270.68L396.75 259.68H398.04L395.68 272.28H393.61L391.24 259.68H392.7Z" fill="#263238"/>
<path d="M404 265.26V266.52H400.92V271H404.71V272.28H399.52V259.68H404.71V261H400.92V265.3L404 265.26Z" fill="#263238"/>
<path d="M409.17 259.68C411.17 259.68 411.98 260.68 411.98 262.56V263.56C411.98 264.95 411.49 265.81 410.41 266.16C411.56 266.5 412 267.44 412 268.79V270.79C411.954 271.306 412.04 271.826 412.25 272.3H410.83C410.624 271.818 410.542 271.292 410.59 270.77V268.77C410.59 267.35 409.92 266.9 408.75 266.9H407.75V272.28H406.35V259.68H409.17ZM408.81 265.62C409.92 265.62 410.59 265.26 410.59 263.89V262.68C410.59 261.55 410.18 260.96 409.13 260.96H407.76V265.62H408.81Z" fill="#263238"/>
<path d="M421.44 265.26V266.52H418.37V271H422.15V272.28H417V259.68H422.19V261H418.41V265.3L421.44 265.26Z" fill="#263238"/>
<path d="M426.609 259.68C428.609 259.68 429.419 260.68 429.419 262.56V263.56C429.419 264.95 428.929 265.81 427.849 266.16C428.999 266.5 429.439 267.44 429.439 268.79V270.79C429.398 271.306 429.484 271.824 429.689 272.3H428.269C428.064 271.818 427.981 271.292 428.029 270.77V268.77C428.029 267.35 427.369 266.9 426.199 266.9H425.199V272.28H423.799V259.68H426.609ZM426.249 265.62C427.369 265.62 428.029 265.26 428.029 263.89V262.68C428.029 261.55 427.619 260.96 426.569 260.96H425.209V265.62H426.249Z" fill="#263238"/>
<path d="M434.06 259.68C436.06 259.68 436.87 260.68 436.87 262.56V263.56C436.87 264.95 436.38 265.81 435.3 266.16C436.46 266.5 436.89 267.44 436.89 268.79V270.79C436.85 271.306 436.936 271.824 437.14 272.3H435.72C435.52 271.816 435.438 271.292 435.48 270.77V268.77C435.48 267.35 434.82 266.9 433.65 266.9H432.65V272.28H431.24V259.68H434.06ZM433.7 265.62C434.82 265.62 435.48 265.26 435.48 263.89V262.68C435.48 261.55 435.07 260.96 434.03 260.96H432.66V265.62H433.7Z" fill="#263238"/>
<path d="M438.6 262.72C438.6 260.79 439.55 259.55 441.48 259.55C443.41 259.55 444.38 260.79 444.38 262.72V269.24C444.38 271.15 443.38 272.41 441.48 272.41C439.58 272.41 438.6 271.15 438.6 269.24V262.72ZM439.98 269.31C439.98 270.46 440.47 271.13 441.48 271.13C442.49 271.13 442.97 270.46 442.97 269.31V262.65C442.97 261.51 442.5 260.83 441.48 260.83C440.46 260.83 439.98 261.51 439.98 262.65V269.31Z" fill="#263238"/>
<path d="M448.881 259.68C450.881 259.68 451.681 260.68 451.681 262.56V263.56C451.681 264.95 451.201 265.81 450.121 266.16C451.271 266.5 451.701 267.44 451.701 268.79V270.79C451.658 271.307 451.748 271.827 451.961 272.3H450.531C450.335 271.815 450.256 271.291 450.301 270.77V268.77C450.301 267.35 449.631 266.9 448.461 266.9H447.461V272.28H446.061V259.68H448.881ZM448.521 265.62C449.631 265.62 450.301 265.26 450.301 263.89V262.68C450.301 261.55 449.881 260.96 448.841 260.96H447.471V265.62H448.521Z" fill="#263238"/>
<path d="M337.12 221V226.85C337.12 231.35 339.12 232.97 342.25 232.97C345.38 232.97 347.38 231.35 347.38 226.85V213C347.38 208.5 345.38 206.79 342.25 206.79C339.12 206.79 337.12 208.5 337.12 213V214.89H327.76L329.56 178.35H355.66V187.35H338.47L337.66 202.35C338.543 200.869 339.816 199.658 341.339 198.848C342.862 198.039 344.578 197.663 346.3 197.76C353.59 197.76 357.3 202.89 357.3 212.16V226.16C357.3 236.24 352.3 242 342.54 242C332.78 242 327.78 236.24 327.78 226.16V221H337.12Z" fill="#263238"/>
<path d="M364.84 193.48C364.84 183.4 370.15 177.64 379.84 177.64C389.53 177.64 394.84 183.4 394.84 193.48V226.24C394.84 236.32 389.53 242.08 379.84 242.08C370.15 242.08 364.84 236.32 364.84 226.24V193.48ZM374.74 226.87C374.74 231.37 376.74 233.08 379.87 233.08C383 233.08 385 231.37 385 226.87V192.87C385 188.37 383 186.66 379.87 186.66C376.74 186.66 374.74 188.37 374.74 192.87V226.87Z" fill="#263238"/>
<path d="M402.279 193.48C402.279 183.4 407.589 177.64 417.279 177.64C426.969 177.64 432.279 183.4 432.279 193.48V226.24C432.279 236.32 426.969 242.08 417.279 242.08C407.589 242.08 402.279 236.32 402.279 226.24V193.48ZM412.179 226.87C412.179 231.37 414.179 233.08 417.309 233.08C420.439 233.08 422.439 231.37 422.439 226.87V192.87C422.439 188.37 420.439 186.66 417.309 186.66C414.179 186.66 412.179 188.37 412.179 192.87V226.87Z" fill="#263238"/>
<path d="M153 338.54C159.243 337.607 165.602 339.189 170.68 342.94C178.85 349.22 185.06 365.19 188.27 387.55C191.48 409.91 193.27 419.55 212.14 422.73C231.01 425.91 276.23 424.62 303.24 423.99C330.25 423.36 329 398.23 306.39 395.72C283.78 393.21 268.12 399.24 244.53 394.02C220.94 388.8 265.53 381.89 299.47 386.92C333.41 391.95 348.47 393.2 366.7 391.32" stroke="#263238" stroke-width="2.51308" stroke-linecap="round" stroke-linejoin="round"/>
<path d="M153 305.1C153 305.1 171.31 305.24 176.33 324.1C181.35 342.96 183.24 369.34 183.87 390.1C184.5 410.86 185.13 428.43 209 433.45C232.87 438.47 297.59 436.59 315.18 432.82C332.77 429.05 352.25 412.09 337.8 408.32C323.35 404.55 303.24 408.32 310.8 413.32C318.36 418.32 338.45 417.09 362.32 413.95" stroke="#263238" stroke-width="2.51308" stroke-linecap="round" stroke-linejoin="round"/>
<path d="M156.76 370.69C156.76 370.69 167.95 369.69 172.32 382.36C176.69 395.03 171.32 397.92 173.78 404.24C176.24 410.56 191.56 404.66 191.49 409.9C191.42 414.68 185.36 416.03 150.44 413.97C104.78 411.28 74.57 418.35 77 422.73C79.43 427.11 115.91 423.73 107.15 430.51C98.39 437.29 77 429.51 60.46 429.05C43.92 428.59 41 432.45 41 432.45" stroke="#263238" stroke-width="2.51308" stroke-linecap="round" stroke-linejoin="round"/>
<path d="M158.109 192.05H48.1694C46.2032 192.05 44.6094 193.644 44.6094 195.61V403.89C44.6094 405.856 46.2032 407.45 48.1694 407.45H158.109C160.076 407.45 161.669 405.856 161.669 403.89V195.61C161.669 193.644 160.076 192.05 158.109 192.05Z" fill="#263238" stroke="#263238" stroke-width="1.25654" stroke-linecap="round" stroke-linejoin="round"/>
<path d="M158.82 224.31H47.4102V306.82H158.82V224.31Z" fill="#616161"/>
<path d="M158.82 320.23H47.4102V402.74H158.82V320.23Z" fill="#616161"/>
<path d="M145 330.28H81.75V394.78H145V330.28Z" fill="#8CC63E" stroke="#263238" stroke-width="1.25654" stroke-linecap="round" stroke-linejoin="round"/>
<path d="M145 233.53H81.75V249.45H145V233.53Z" fill="#8CC63E" stroke="#263238" stroke-width="1.25654" stroke-linecap="round" stroke-linejoin="round"/>
<path d="M145 264.1H81.75V280.02H145V264.1Z" fill="#8CC63E" stroke="#263238" stroke-width="1.25654" stroke-linecap="round" stroke-linejoin="round"/>
<path d="M142.879 226.16L141.659 229.51H85.6291L84.4091 226.16H72.5391V240.88H84.4091L85.6291 237.53H141.659L142.879 240.88H156.319V226.16H142.879Z" fill="#263238" stroke="#263238" stroke-width="1.25654" stroke-linecap="round" stroke-linejoin="round"/>
<path d="M142.879 242.22L141.659 245.56H85.6291L84.4091 242.22H72.5391V256.93H84.4091L85.6291 253.59H141.659L142.879 256.93H156.319V242.22H142.879Z" fill="#263238" stroke="#263238" stroke-width="1.25654" stroke-linecap="round" stroke-linejoin="round"/>
<path d="M142.879 258.27L141.659 261.62H85.6291L84.4091 258.27H72.5391V272.99H84.4091L85.6291 269.64H141.659L142.879 272.99H156.319V258.27H142.879Z" fill="#263238" stroke="#263238" stroke-width="1.25654" stroke-linecap="round" stroke-linejoin="round"/>
<path d="M142.879 274.32L141.659 277.67H85.6291L84.4091 274.32H72.5391V289.04H84.4091L85.6291 285.7H141.659L142.879 289.04H156.319V274.32H142.879Z" fill="#263238" stroke="#263238" stroke-width="1.25654" stroke-linecap="round" stroke-linejoin="round"/>
<path d="M142.879 290.38L141.659 293.72H85.6291L84.4091 290.38H72.5391V305.1H84.4091L85.6291 301.75H141.659L142.879 305.1H156.319V290.38H142.879Z" fill="#263238" stroke="#263238" stroke-width="1.25654" stroke-linecap="round" stroke-linejoin="round"/>
<path d="M142.879 322.49L141.659 325.83H85.6291L84.4091 322.49H72.5391V337.2H84.4091L85.6291 333.86H141.659L142.879 337.2H156.319V322.49H142.879Z" fill="#263238" stroke="#263238" stroke-width="1.25654" stroke-linecap="round" stroke-linejoin="round"/>
<path d="M142.879 338.54L141.659 341.89H85.6291L84.4091 338.54H72.5391V353.26H84.4091L85.6291 349.92H141.659L142.879 353.26H156.319V338.54H142.879Z" fill="#263238" stroke="#263238" stroke-width="1.25654" stroke-linecap="round" stroke-linejoin="round"/>
<path d="M142.879 354.6L141.659 357.94H85.6291L84.4091 354.6H72.5391V369.31H84.4091L85.6291 365.97H141.659L142.879 369.31H156.319V354.6H142.879Z" fill="#263238" stroke="#263238" stroke-width="1.25654" stroke-linecap="round" stroke-linejoin="round"/>
<path d="M142.879 370.65L141.659 374H85.6291L84.4091 370.65H72.5391V385.37H84.4091L85.6291 382.02H141.659L142.879 385.37H156.319V370.65H142.879Z" fill="#263238" stroke="#263238" stroke-width="1.25654" stroke-linecap="round" stroke-linejoin="round"/>
<path d="M142.879 386.71L141.659 390.05H85.6291L84.4091 386.71H72.5391V401.42H84.4091L85.6291 398.08H141.659L142.879 401.42H156.319V386.71H142.879Z" fill="#263238" stroke="#263238" stroke-width="1.25654" stroke-linecap="round" stroke-linejoin="round"/>
<path d="M156.3 309.39H49.6504V319.44H156.3V309.39Z" fill="white"/>
<path d="M58.6493 314.31C58.6493 313.754 58.4845 313.211 58.1757 312.749C57.867 312.287 57.4281 311.927 56.9146 311.714C56.4012 311.501 55.8362 311.446 55.2911 311.554C54.746 311.662 54.2453 311.93 53.8523 312.323C53.4593 312.716 53.1917 313.217 53.0833 313.762C52.9749 314.307 53.0305 314.872 53.2432 315.385C53.4559 315.899 53.816 316.338 54.2781 316.646C54.7402 316.955 55.2835 317.12 55.8393 317.12C56.2083 317.12 56.5737 317.047 56.9146 316.906C57.2556 316.765 57.5653 316.558 57.8263 316.297C58.0872 316.036 58.2942 315.726 58.4354 315.385C58.5766 315.044 58.6493 314.679 58.6493 314.31V314.31Z" fill="#263238" stroke="#263238" stroke-width="1.25654" stroke-linecap="round" stroke-linejoin="round"/>
<path d="M65.2006 317.12C66.7525 317.12 68.0106 315.862 68.0106 314.31C68.0106 312.758 66.7525 311.5 65.2006 311.5C63.6487 311.5 62.3906 312.758 62.3906 314.31C62.3906 315.862 63.6487 317.12 65.2006 317.12Z" fill="#8CC63E" stroke="#263238" stroke-width="1.25654" stroke-linecap="round" stroke-linejoin="round"/>
<path d="M77.37 314.31C77.37 313.754 77.2052 313.211 76.8964 312.749C76.5877 312.287 76.1488 311.927 75.6353 311.714C75.1219 311.501 74.5569 311.446 74.0118 311.554C73.4667 311.662 72.966 311.93 72.573 312.323C72.18 312.716 71.9124 313.217 71.804 313.762C71.6956 314.307 71.7512 314.872 71.9639 315.385C72.1766 315.899 72.5367 316.338 72.9988 316.646C73.461 316.955 74.0042 317.12 74.56 317.12C75.3053 317.12 76.02 316.824 76.547 316.297C77.0739 315.77 77.37 315.055 77.37 314.31V314.31Z" fill="#263238" stroke="#263238" stroke-width="1.25654" stroke-linecap="round" stroke-linejoin="round"/>
<path d="M156.3 213.06H49.6504V223.11H156.3V213.06Z" fill="white"/>
<path d="M58.6493 218C58.6493 217.444 58.4845 216.901 58.1757 216.439C57.867 215.977 57.4281 215.617 56.9146 215.404C56.4012 215.191 55.8362 215.136 55.2911 215.244C54.746 215.352 54.2453 215.62 53.8523 216.013C53.4593 216.406 53.1917 216.907 53.0833 217.452C52.9749 217.997 53.0305 218.562 53.2432 219.075C53.4559 219.589 53.816 220.028 54.2781 220.336C54.7402 220.645 55.2835 220.81 55.8393 220.81C56.2083 220.81 56.5737 220.737 56.9146 220.596C57.2556 220.455 57.5653 220.248 57.8263 219.987C58.0872 219.726 58.2942 219.416 58.4354 219.075C58.5766 218.734 58.6493 218.369 58.6493 218V218Z" fill="white" stroke="#263238" stroke-width="1.25654" stroke-linecap="round" stroke-linejoin="round"/>
<path d="M68.0009 218C68.0009 217.444 67.8361 216.901 67.5273 216.439C67.2185 215.977 66.7797 215.617 66.2662 215.404C65.7527 215.191 65.1877 215.136 64.6427 215.244C64.0976 215.352 63.5969 215.62 63.2039 216.013C62.8109 216.406 62.5433 216.907 62.4349 217.452C62.3264 217.997 62.3821 218.562 62.5948 219.075C62.8074 219.589 63.1676 220.028 63.6297 220.336C64.0918 220.645 64.6351 220.81 65.1909 220.81C65.9361 220.81 66.6509 220.514 67.1778 219.987C67.7048 219.46 68.0009 218.745 68.0009 218V218Z" fill="#8CC63E" stroke="#263238" stroke-width="1.25654" stroke-linecap="round" stroke-linejoin="round"/>
<path d="M77.37 218C77.37 217.444 77.2052 216.901 76.8964 216.439C76.5877 215.977 76.1488 215.617 75.6353 215.404C75.1219 215.191 74.5569 215.136 74.0118 215.244C73.4667 215.352 72.966 215.62 72.573 216.013C72.18 216.406 71.9124 216.907 71.804 217.452C71.6956 217.997 71.7512 218.562 71.9639 219.075C72.1766 219.589 72.5367 220.028 72.9988 220.336C73.461 220.645 74.0042 220.81 74.56 220.81C75.3053 220.81 76.02 220.514 76.547 219.987C77.0739 219.46 77.37 218.745 77.37 218V218Z" fill="white" stroke="#263238" stroke-width="1.25654" stroke-linecap="round" stroke-linejoin="round"/>
<path d="M156.3 200.13H49.6504V210.18H156.3V200.13Z" fill="white"/>
<path d="M58.6493 205.05C58.6493 204.494 58.4845 203.951 58.1757 203.489C57.867 203.027 57.4281 202.667 56.9146 202.454C56.4012 202.241 55.8362 202.186 55.2911 202.294C54.746 202.402 54.2453 202.67 53.8523 203.063C53.4593 203.456 53.1917 203.957 53.0833 204.502C52.9749 205.047 53.0305 205.612 53.2432 206.125C53.4559 206.639 53.816 207.078 54.2781 207.386C54.7402 207.695 55.2835 207.86 55.8393 207.86C56.2083 207.86 56.5737 207.787 56.9146 207.646C57.2556 207.505 57.5653 207.298 57.8263 207.037C58.0872 206.776 58.2942 206.466 58.4354 206.125C58.5766 205.784 58.6493 205.419 58.6493 205.05Z" fill="#8CC63E" stroke="#263238" stroke-width="1.25654" stroke-linecap="round" stroke-linejoin="round"/>
<path d="M68.0009 205.05C68.0009 204.494 67.8361 203.951 67.5273 203.489C67.2185 203.027 66.7797 202.667 66.2662 202.454C65.7527 202.241 65.1877 202.186 64.6427 202.294C64.0976 202.402 63.5969 202.67 63.2039 203.063C62.8109 203.456 62.5433 203.957 62.4349 204.502C62.3264 205.047 62.3821 205.612 62.5948 206.125C62.8074 206.639 63.1676 207.078 63.6297 207.386C64.0918 207.695 64.6351 207.86 65.1909 207.86C65.9361 207.86 66.6509 207.564 67.1778 207.037C67.7048 206.51 68.0009 205.795 68.0009 205.05Z" fill="#263238" stroke="#263238" stroke-width="1.25654" stroke-linecap="round" stroke-linejoin="round"/>
<path d="M77.37 205.05C77.37 204.494 77.2052 203.951 76.8964 203.489C76.5877 203.027 76.1488 202.667 75.6353 202.454C75.1219 202.241 74.5569 202.186 74.0118 202.294C73.4667 202.402 72.966 202.67 72.573 203.063C72.18 203.456 71.9124 203.957 71.804 204.502C71.6956 205.047 71.7512 205.612 71.9639 206.125C72.1766 206.639 72.5367 207.078 72.9988 207.386C73.461 207.695 74.0042 207.86 74.56 207.86C75.3053 207.86 76.02 207.564 76.547 207.037C77.0739 206.51 77.37 205.795 77.37 205.05Z" fill="#263238" stroke="#263238" stroke-width="1.25654" stroke-linecap="round" stroke-linejoin="round"/>
<path d="M67.5099 226.41H49.9199V233.95H67.5099V226.41Z" fill="#263238" stroke="#263238" stroke-width="1.25654" stroke-linecap="round" stroke-linejoin="round"/>
<path d="M67.5099 242.74H49.9199V250.28H67.5099V242.74Z" fill="#263238" stroke="#263238" stroke-width="1.25654" stroke-linecap="round" stroke-linejoin="round"/>
<path d="M67.5099 259.08H49.9199V266.62H67.5099V259.08Z" fill="#8CC63E" stroke="#263238" stroke-width="1.25654" stroke-linecap="round" stroke-linejoin="round"/>
<path d="M67.5099 275.41H49.9199V282.95H67.5099V275.41Z" fill="#8CC63E" stroke="#263238" stroke-width="1.25654" stroke-linecap="round" stroke-linejoin="round"/>
<path d="M67.5099 291.75H49.9199V299.29H67.5099V291.75Z" fill="#8CC63E" stroke="#263238" stroke-width="1.25654" stroke-linecap="round" stroke-linejoin="round"/>
<path d="M67.5099 322.32H49.9199V329.86H67.5099V322.32Z" fill="#8CC63E" stroke="#263238" stroke-width="1.25654" stroke-linecap="round" stroke-linejoin="round"/>
<path d="M67.5099 338.66H49.9199V346.2H67.5099V338.66Z" fill="#263238" stroke="#263238" stroke-width="1.25654" stroke-linecap="round" stroke-linejoin="round"/>
<path d="M67.5099 354.99H49.9199V362.53H67.5099V354.99Z" fill="#8CC63E" stroke="#263238" stroke-width="1.25654" stroke-linecap="round" stroke-linejoin="round"/>
<path d="M67.5099 371.33H49.9199V378.87H67.5099V371.33Z" fill="#263238" stroke="#263238" stroke-width="1.25654" stroke-linecap="round" stroke-linejoin="round"/>
<path d="M67.5099 387.66H49.9199V395.2H67.5099V387.66Z" fill="#8CC63E" stroke="#263238" stroke-width="1.25654" stroke-linecap="round" stroke-linejoin="round"/>
<path d="M214.842 146.36C214.842 146.36 197.982 150.65 193.302 157.06C188.622 163.47 169.652 207.06 169.652 207.06C169.652 207.06 163.502 213.96 170.152 220.61C176.802 227.26 190.102 229.72 195.032 223.81C199.962 217.9 207.092 190.06 208.082 186.86C209.072 183.66 216.452 156.56 217.192 155.09C217.932 153.62 218.642 147.24 214.842 146.36Z" fill="#BDBDBD" stroke="#263238" stroke-width="1.25654" stroke-linecap="round" stroke-linejoin="round"/>
<path d="M214.84 146.36C214.84 146.36 197.98 150.65 193.3 157.06C190.47 160.93 182.41 178.43 176.48 191.64C179.36 191.06 191.36 189.28 205.41 196.36C206.76 191.64 207.76 187.91 208.08 186.86C209.08 183.66 216.45 156.56 217.19 155.09C217.93 153.62 218.64 147.24 214.84 146.36Z" fill="#263238" stroke="#263238" stroke-width="1.25654" stroke-linecap="round" stroke-linejoin="round"/>
<path d="M264.241 89.57C267.142 91.2069 269.465 93.7009 270.892 96.71C272.892 101.39 272.892 108.53 272.892 108.53C272.892 108.53 304.421 107.53 316.491 107.3C328.561 107.07 336.691 110.01 336.931 115.92C337.171 121.83 334.472 133.41 327.822 137.84C321.172 142.27 300.482 135.13 289.892 132.18C279.302 129.23 275.602 130.18 267.972 129.18C260.342 128.18 258.112 125.24 256.882 120.56C255.652 115.88 258.111 107.01 258.111 99.87C258.111 92.73 257.101 88.09 264.241 89.57Z" fill="#BDBDBD" stroke="#263238" stroke-width="1.25654" stroke-linecap="round" stroke-linejoin="round"/>
<path d="M310.301 119.86C310.301 119.86 305.871 131.19 297.741 137.35C291.911 141.77 284.041 144.29 280.071 145.35C265.861 141.35 245.801 139.47 234.071 142.07C234.071 142.07 217.691 145.99 214.841 146.35C211.991 146.71 205.221 169.5 203.791 185.17C202.361 200.84 207.001 239.67 207.001 242.52C207.001 245.37 208.781 292.75 211.631 305.93C214.481 319.11 217.691 336.93 218.041 339.41C218.391 341.89 220.891 360.41 220.891 366.48C220.891 372.55 218.001 387.15 218.001 387.15C218.001 387.15 205.181 395.7 200.191 400.68C195.201 405.66 203.861 410.92 210.191 412.08C220.931 414.08 233.691 403.53 233.691 403.53L248.001 397.84C251.791 396.32 252.911 392.25 253.001 388.6L253.661 362.22C255.901 371.553 257.741 380.983 259.181 390.51C259.761 394.41 260.361 398.51 262.711 401.66C264.015 403.468 265.702 404.967 267.651 406.05C269.071 406.71 270.581 406.57 272.011 407.39C274.641 408.91 275.721 412.19 278.271 413.84C283.762 417.088 290.065 418.701 296.441 418.49C296.441 418.49 310.681 419.21 311.441 411.37C312.201 403.53 292.911 390.71 292.911 390.71C292.911 390.71 290.061 338.71 287.911 321.61C285.761 304.51 280.071 276.73 280.071 264.61C280.071 252.49 285.771 195.5 285.771 195.5C285.771 195.5 286.351 194 287.241 191.56L288.181 191.04C296.311 186.36 318.971 168.13 326.361 156.55C333.441 145.47 336.001 124.68 336.201 118.6" fill="#BDBDBD"/>
<path d="M310.301 119.86C310.301 119.86 305.871 131.19 297.741 137.35C291.911 141.77 284.041 144.29 280.071 145.35C265.861 141.35 245.801 139.47 234.071 142.07C234.071 142.07 217.691 145.99 214.841 146.35C211.991 146.71 205.221 169.5 203.791 185.17C202.361 200.84 207.001 239.67 207.001 242.52C207.001 245.37 208.781 292.75 211.631 305.93C214.481 319.11 217.691 336.93 218.041 339.41C218.391 341.89 220.891 360.41 220.891 366.48C220.891 372.55 218.001 387.15 218.001 387.15C218.001 387.15 205.181 395.7 200.191 400.68C195.201 405.66 203.861 410.92 210.191 412.08C220.931 414.08 233.691 403.53 233.691 403.53L248.001 397.84C251.791 396.32 252.911 392.25 253.001 388.6L253.661 362.22C255.901 371.553 257.741 380.983 259.181 390.51C259.761 394.41 260.361 398.51 262.711 401.66C264.015 403.468 265.702 404.967 267.651 406.05C269.071 406.71 270.581 406.57 272.011 407.39C274.641 408.91 275.721 412.19 278.271 413.84C283.762 417.088 290.065 418.701 296.441 418.49C296.441 418.49 310.681 419.21 311.441 411.37C312.201 403.53 292.911 390.71 292.911 390.71C292.911 390.71 290.061 338.71 287.911 321.61C285.761 304.51 280.071 276.73 280.071 264.61C280.071 252.49 285.771 195.5 285.771 195.5C285.771 195.5 286.351 194 287.241 191.56L288.181 191.04C296.311 186.36 318.971 168.13 326.361 156.55C333.441 145.47 336.001 124.68 336.201 118.6" stroke="#263238" stroke-width="1.25654" stroke-linecap="round" stroke-linejoin="round"/>
<path d="M311.372 411.37C312.082 403.53 292.842 390.71 292.842 390.71C292.842 390.71 292.622 386.71 292.262 380.56C281.102 383.249 269.661 384.592 258.182 384.56C258.522 386.56 258.855 388.56 259.182 390.56C259.762 394.46 260.362 398.56 262.712 401.71C264.016 403.518 265.703 405.017 267.652 406.1C269.072 406.76 270.582 406.62 272.012 407.44C274.642 408.96 275.722 412.24 278.272 413.89C283.762 417.138 290.066 418.751 296.442 418.54C296.442 418.54 310.652 419.21 311.372 411.37Z" fill="#263238" stroke="#263238" stroke-width="1.25654" stroke-linecap="round" stroke-linejoin="round"/>
<path d="M248.001 397.84C251.791 396.32 252.911 392.25 253.001 388.6C253.001 387.22 253.071 385.84 253.101 384.46C241.73 384.075 230.434 382.459 219.411 379.64C218.731 383.8 218.071 387.15 218.071 387.15C218.071 387.15 205.251 395.7 200.261 400.68C195.271 405.66 203.931 410.92 210.261 412.08C221.001 414.08 233.761 403.53 233.761 403.53L248.001 397.84Z" fill="#263238" stroke="#263238" stroke-width="1.25654" stroke-linecap="round" stroke-linejoin="round"/>
<path d="M311.371 411.37C311.371 411.26 311.371 411.14 311.371 411.02C308.224 413.271 304.588 414.745 300.761 415.32C289.501 417.32 279.241 411.57 276.491 409.07C273.741 406.57 271.991 404.56 267.731 401.81C263.471 399.06 259.621 392.29 259.621 392.29L259.461 392.54C259.991 395.79 260.731 399.04 262.681 401.66C263.985 403.468 265.672 404.967 267.621 406.05C269.041 406.71 270.551 406.57 271.981 407.39C274.611 408.91 275.691 412.19 278.241 413.84C283.732 417.088 290.035 418.701 296.411 418.49C296.411 418.49 310.651 419.21 311.371 411.37Z" fill="white" stroke="#263238" stroke-width="1.25654" stroke-linecap="round" stroke-linejoin="round"/>
<path d="M248.001 397.84C251.311 396.51 252.581 393.25 252.921 390.02C249.641 392.02 242.061 396.39 237.251 398.31C231.001 400.81 226.741 408.31 214.491 408.31C205.751 408.31 200.961 404.89 198.931 402.92C197.851 407.14 204.931 411.09 210.251 412.08C220.991 414.08 233.751 403.53 233.751 403.53L248.001 397.84Z" fill="white" stroke="#263238" stroke-width="1.25654" stroke-linecap="round" stroke-linejoin="round"/>
<path d="M294.23 139.67C289.765 142.149 285.008 144.06 280.07 145.36C265.86 141.36 245.8 139.48 234.07 142.08C234.07 142.08 217.69 146 214.84 146.36C211.99 146.72 205.22 169.51 203.79 185.18C202.91 194.86 204.34 213.34 205.56 226.75C235.25 237.63 266.91 233.9 282.39 230.94C283.95 213.18 285.72 195.51 285.72 195.51C285.72 195.51 286.3 194.01 287.19 191.57L288.13 191.05C293.66 187.87 305.88 178.44 315.47 169.05C296.22 163.5 293.89 148.32 294.23 139.67Z" fill="#263238" stroke="#263238" stroke-width="1.25654" stroke-linecap="round" stroke-linejoin="round"/>
<path d="M266.63 156.66C266.571 153.669 265.807 150.735 264.399 148.095C262.992 145.455 260.981 143.186 258.53 141.47C249.43 140.59 240.53 140.65 234.07 142.08C234.07 142.08 229.54 143.17 224.83 144.24C221.659 147.603 219.873 152.038 219.83 156.66C219.83 167.77 230.31 176.78 243.23 176.78C256.15 176.78 266.63 167.77 266.63 156.66Z" fill="#616161" stroke="#263238" stroke-width="1.25654" stroke-linecap="round" stroke-linejoin="round"/>
<path d="M259.621 392.29C264.963 394.17 270.627 394.965 276.281 394.63C288.571 394.1 292.841 390.71 292.841 390.71C292.841 390.71 289.991 338.71 287.841 321.61C285.691 304.51 280.001 276.73 280.001 264.61C280.001 257.47 282.001 234.74 283.611 217.28L282.841 217.37C280.794 217.608 278.721 217.402 276.761 216.767C274.801 216.132 273.001 215.083 271.483 213.69C269.965 212.297 268.765 210.594 267.964 208.696C267.162 206.798 266.779 204.749 266.841 202.69L267.181 191.32C257.913 191.925 248.608 191.657 239.391 190.52C222.831 188.65 205.731 183.04 205.731 183.04L203.931 183.59C203.931 184.12 203.821 184.65 203.771 185.17C202.351 200.85 206.981 239.67 206.981 242.52C206.981 245.37 208.761 292.75 211.611 305.93C214.461 319.11 217.671 336.93 218.021 339.41C218.371 341.89 220.871 360.41 220.871 366.48C220.871 372.55 218.131 386.6 218.031 387.12C220.171 387.78 224.651 389.12 232.721 391.41C245.001 394.89 252.931 390.7 252.931 390.7C252.931 386.43 253.641 362.21 253.641 362.21C253.641 362.21 258.161 382.71 259.621 392.29Z" fill="white" stroke="#263238" stroke-width="1.25654" stroke-linecap="round" stroke-linejoin="round"/>
<path d="M218.93 198.05L250.92 203.31V223.03L232.95 241.01L218.49 223.47L218.93 198.05Z" stroke="#263238" stroke-width="1.25654" stroke-linecap="round" stroke-linejoin="round"/>
<path d="M242.002 308.94C239.692 295.94 238.002 283.1 238.002 273.88L225.182 265.33" stroke="#263238" stroke-width="1.25654" stroke-linecap="round" stroke-linejoin="round"/>
<path d="M253.661 362.22C253.661 362.22 248.261 341.35 243.801 318.49" stroke="#263238" stroke-width="1.25654" stroke-linecap="round" stroke-linejoin="round"/>
<path d="M263.191 251.73C263.482 252.884 263.926 253.994 264.511 255.03C268.461 262.03 274.151 262.92 274.151 262.92L275.031 244.51" stroke="#263238" stroke-width="1.25654" stroke-linecap="round" stroke-linejoin="round"/>
<path d="M264.511 241C263.829 242.327 263.341 243.745 263.061 245.21" stroke="#263238" stroke-width="1.25654" stroke-linecap="round" stroke-linejoin="round"/>
<path d="M280.221 297C280.681 299.43 281.151 301.82 281.611 304.1" stroke="#263238" stroke-width="1.25654" stroke-linecap="round" stroke-linejoin="round"/>
<path d="M274.15 262.92C274.15 262.92 276.41 276.43 279.02 290.59" stroke="#263238" stroke-width="1.25654" stroke-linecap="round" stroke-linejoin="round"/>
<path d="M232.002 134.5L231.802 145C231.802 145 228.182 147.9 227.462 155.5C226.742 163.1 233.982 170.17 242.122 170.17C250.262 170.17 257.332 163.83 258.602 158.04C259.872 152.25 258.232 143.92 258.232 143.92L257.692 131.25C257.692 131.25 249.692 136.31 242.122 134.87C234.552 133.43 232.352 130.7 232.352 130.7L232.002 134.5Z" fill="#BDBDBD" stroke="#263238" stroke-width="1.25654" stroke-linecap="round" stroke-linejoin="round"/>
<path d="M226.311 107.1C226.311 107.1 225.821 113.1 227.121 114.57C228.421 116.04 230.211 117.17 230.541 115.87C230.871 114.57 231.021 107.75 231.351 106.29C231.681 104.83 226.471 103 226.311 107.1Z" fill="#BDBDBD" stroke="#263238" stroke-width="1.25654" stroke-linecap="round" stroke-linejoin="round"/>
<path d="M229.49 107C229.49 107 228 119 228 124.81C228 130.62 225.75 132.81 233 136.59C240.25 140.37 246.53 140.85 251.54 139.09C256.55 137.33 259.31 133.09 259.54 129.57C259.77 126.05 259.79 120.57 259.79 120.57C259.79 120.57 266.79 114.31 265.31 109.57C263.83 104.83 260.55 110.82 260.55 110.82C261.929 106.702 262.605 102.382 262.55 98.0401C262.3 91.5201 257.29 90.7701 255.28 90.7701C253.27 90.7701 241 87.0001 235.25 90.7201C229.5 94.4401 229.49 107 229.49 107Z" fill="#BDBDBD" stroke="#263238" stroke-width="1.25654" stroke-linecap="round" stroke-linejoin="round"/>
<path d="M260.571 110.77C261.95 106.652 262.626 102.332 262.571 97.99C262.321 91.47 257.311 90.72 255.301 90.72H255.171C254.111 92.5 252.801 95.24 252.801 95.24L253.801 95.74C253.801 95.74 252.801 101.26 254.801 102.01C256.801 102.76 255.801 104.51 255.801 107.52C255.801 110.53 257.561 112.78 258.561 112.78C259.351 112.78 260.561 110.78 261.101 109.91C260.771 110.39 260.571 110.77 260.571 110.77Z" fill="#263238" stroke="#263238" stroke-width="1.25654" stroke-linecap="round" stroke-linejoin="round"/>
<path d="M240.77 111.49C240.77 111.49 238.66 113.43 239.63 114.9C240.6 116.37 244.18 117.17 245.16 115.38C245.497 114.778 245.616 114.079 245.498 113.4C245.379 112.72 245.031 112.102 244.51 111.65" stroke="#263238" stroke-width="1.25654" stroke-linecap="round" stroke-linejoin="round"/>
<path d="M238.501 109.54C238.501 110.54 238.101 111.32 237.601 111.32C237.101 111.32 236.711 110.52 236.711 109.54C236.711 108.56 237.111 107.75 237.601 107.75C238.091 107.75 238.501 108.55 238.501 109.54Z" fill="#263238"/>
<path d="M249.302 110C249.302 111 248.902 111.79 248.412 111.79C247.922 111.79 247.512 110.99 247.512 110C247.512 109.01 247.912 108.22 248.412 108.22C248.912 108.22 249.302 109 249.302 110Z" fill="#263238"/>
<path d="M246.621 105.15C246.621 105.15 250.031 102.87 253.281 106.45" stroke="#263238" stroke-width="1.25654" stroke-linecap="round" stroke-linejoin="round"/>
<path d="M241.441 121.14C241.013 120.924 240.543 120.802 240.064 120.782C239.585 120.761 239.107 120.842 238.661 121.02C238.282 121.177 237.942 121.414 237.662 121.714C237.383 122.015 237.171 122.371 237.041 122.76C237.041 122.76 234.961 124.43 237.151 125.16C239.341 125.89 244.151 125.84 245.361 125.79C245.846 125.723 246.284 125.468 246.583 125.081C246.883 124.694 247.018 124.206 246.961 123.72C246.972 123.523 246.93 123.327 246.84 123.152C246.751 122.976 246.617 122.827 246.451 122.72C245.947 121.896 245.163 121.283 244.242 120.992C243.321 120.702 242.326 120.754 241.441 121.14Z" fill="#666666" stroke="#263238" stroke-width="0.922744" stroke-linecap="round" stroke-linejoin="round"/>
<path d="M236.57 123.39C239.937 122.857 243.38 123.062 246.66 123.99" stroke="#263238" stroke-width="1.07327" stroke-linecap="round" stroke-linejoin="round"/>
<path d="M225.231 93.23L252.051 97C252.051 97 263.321 94 264.331 91.74C265.341 89.48 261.571 78.21 259.561 75.45C257.551 72.69 238.261 77.45 232.241 78.45C226.221 79.45 221.721 80.94 222.001 84C222.281 87.06 225.231 93.23 225.231 93.23Z" fill="#8CC63E" stroke="#263238" stroke-width="1.25654" stroke-linecap="round" stroke-linejoin="round"/>
<path d="M225.232 93.23C225.232 93.23 209.942 105.76 209.692 107C209.442 108.24 231.992 108.75 239.012 107.25C246.032 105.75 252.012 96.97 252.012 96.97L225.232 93.23Z" fill="white" stroke="#263238" stroke-width="1.25654" stroke-linecap="round" stroke-linejoin="round"/>
<path d="M208.522 259.36L250.522 234.73C251.913 235.771 253.596 236.349 255.333 236.38C257.07 236.412 258.773 235.896 260.201 234.906C261.629 233.916 262.709 232.502 263.289 230.865C263.869 229.227 263.919 227.448 263.432 225.78L254.662 230.91L252.662 227.46L261.442 222.32C260.226 221.076 258.65 220.246 256.936 219.949C255.222 219.651 253.458 219.901 251.894 220.662C250.331 221.423 249.046 222.658 248.224 224.191C247.401 225.723 247.082 227.476 247.312 229.2L205.262 253.83C203.871 252.789 202.188 252.211 200.45 252.18C198.713 252.148 197.01 252.664 195.582 253.654C194.154 254.644 193.074 256.058 192.494 257.696C191.914 259.333 191.865 261.112 192.352 262.78L200.892 257.78L202.892 261.24L194.352 266.24C195.566 267.487 197.142 268.319 198.856 268.618C200.57 268.916 202.335 268.667 203.899 267.905C205.463 267.143 206.747 265.907 207.568 264.372C208.389 262.838 208.705 261.084 208.472 259.36H208.522Z" fill="#8CC63E" stroke="#263238" stroke-width="1.25654" stroke-linecap="round" stroke-linejoin="round"/>
<path d="M244.291 241.05C244.291 241.05 249.461 244.75 249.461 248.19C249.461 251.63 243.301 255.34 239.121 255.58C234.941 255.82 234.191 251.15 234.931 248.69C235.671 246.23 244.291 241.05 244.291 241.05Z" fill="#BDBDBD" stroke="#263238" stroke-width="1.25654" stroke-linecap="round" stroke-linejoin="round"/>
<path d="M190.101 210.26C190.101 210.26 218.671 226.26 222.611 225.78C226.551 225.3 231.971 221.84 234.931 222.78C237.891 223.72 246.011 236.33 246.751 238.55C247.491 240.77 240.841 248.65 239.361 249.88C237.881 251.11 233.201 256.04 232.221 256.53C231.241 257.02 224.831 262.69 221.631 262.69C218.431 262.69 213.011 260.22 212.511 258.99C212.011 257.76 213.251 256.04 213.251 256.04L198.251 249.14C198.251 249.14 169.671 233.62 164.751 225.74C159.831 217.86 172.141 203.82 172.141 203.82" fill="#BDBDBD"/>
<path d="M190.101 210.26C190.101 210.26 218.671 226.26 222.611 225.78C226.551 225.3 231.971 221.84 234.931 222.78C237.891 223.72 246.011 236.33 246.751 238.55C247.491 240.77 240.841 248.65 239.361 249.88C237.881 251.11 233.201 256.04 232.221 256.53C231.241 257.02 224.831 262.69 221.631 262.69C218.431 262.69 213.011 260.22 212.511 258.99C212.011 257.76 213.251 256.04 213.251 256.04L198.251 249.14C198.251 249.14 169.671 233.62 164.751 225.74C159.831 217.86 172.141 203.82 172.141 203.82" stroke="#263238" stroke-width="1.25654" stroke-linecap="round" stroke-linejoin="round"/>
<path d="M223.111 248.93C223.985 249.046 224.795 249.447 225.417 250.071C226.039 250.695 226.438 251.506 226.551 252.38C227.051 255.58 225.811 261.25 225.811 261.25" stroke="#263238" stroke-width="1.25654" stroke-linecap="round" stroke-linejoin="round"/>
<path d="M228.771 244.25C228.771 244.25 232.221 244.5 232.221 247.7V256.57" stroke="#263238" stroke-width="1.25654" stroke-linecap="round" stroke-linejoin="round"/>
<path d="M232.471 235.39C232.471 235.39 238.871 240.07 239.361 242.78C239.633 245.152 239.633 247.548 239.361 249.92" stroke="#263238" stroke-width="1.25654" stroke-linecap="round" stroke-linejoin="round"/>
<path d="M261.001 218.5C262.441 218.5 266.251 208.96 266.251 205.38C266.251 201.8 267.921 175.57 271.741 163.38C274.481 154.65 276.841 147.91 277.961 144.78C275.051 144.04 271.961 143.38 268.741 142.78C266.831 148.57 261.001 166.64 258.621 178.13C255.761 191.96 256.471 208.42 256.711 209.85C256.951 211.28 259.591 218.5 261.001 218.5Z" fill="white" stroke="#263238" stroke-width="1.25654" stroke-linecap="round" stroke-linejoin="round"/>
<path d="M266.26 189.561L258.073 188.486C257.401 188.398 256.784 188.871 256.696 189.544L255.838 196.078C255.749 196.75 256.223 197.367 256.895 197.455L265.083 198.531C265.755 198.619 266.372 198.145 266.46 197.473L267.318 190.939C267.407 190.266 266.933 189.649 266.26 189.561Z" fill="white" stroke="#263238" stroke-width="1.25465" stroke-linecap="round" stroke-linejoin="round"/>
<path d="M264.106 191.637L259.874 191.075C259.2 190.986 258.582 191.459 258.492 192.133L258.068 195.335C257.978 196.008 258.452 196.626 259.125 196.716L263.358 197.278C264.031 197.367 264.65 196.894 264.739 196.22L265.164 193.018C265.253 192.345 264.78 191.726 264.106 191.637Z" fill="white" stroke="#263238" stroke-width="1.25654" stroke-linecap="round" stroke-linejoin="round"/>
<path d="M207.591 214.92C209.031 214.92 212.841 205.38 212.841 201.8C212.841 198.22 214.511 171.99 218.331 159.8C220.751 152.08 222.401 147.15 223.331 144.58C219.601 145.42 216.061 146.19 214.881 146.34C214.001 146.45 212.761 148.68 211.411 152.16C209.831 157.06 207.901 163.43 206.411 169.64C205.245 174.757 204.393 179.94 203.861 185.16C203.525 190.397 203.501 195.65 203.791 200.89C203.791 201.07 203.811 201.21 203.851 201.31C204.001 202.76 206.161 214.92 207.591 214.92Z" fill="white" stroke="#263238" stroke-width="1.25654" stroke-linecap="round" stroke-linejoin="round"/>
<path d="M213.026 182.712L204.803 181.835C204.128 181.763 203.522 182.252 203.45 182.927L202.749 189.49C202.677 190.166 203.166 190.772 203.842 190.844L212.065 191.721C212.741 191.793 213.347 191.304 213.419 190.628L214.119 184.066C214.191 183.39 213.702 182.784 213.026 182.712Z" fill="white" stroke="#263238" stroke-width="1.25654" stroke-linecap="round" stroke-linejoin="round"/>
<path d="M210.85 184.17L206.604 183.717C205.928 183.645 205.322 184.135 205.25 184.81L204.908 188.022C204.836 188.697 205.325 189.303 206 189.375L210.246 189.828C210.922 189.9 211.528 189.411 211.6 188.736L211.942 185.524C212.014 184.848 211.525 184.242 210.85 184.17Z" fill="white" stroke="#263238" stroke-width="1.25654" stroke-linecap="round" stroke-linejoin="round"/>
</svg>
