<svg width="500" height="500" viewBox="0 0 500 500" fill="none" xmlns="http://www.w3.org/2000/svg">
<path d="M58.8807 272.43C58.8807 272.43 58.4007 343.23 115.521 391.87C172.641 440.51 254.211 445.93 320.171 452.07C386.131 458.21 438.391 422 448.251 365.48C458.111 308.96 408.251 291.06 383.321 225.84C358.391 160.62 361.691 139.46 305.221 98.32C248.751 57.18 157.001 79.26 106.811 146.07C56.6207 212.88 58.8807 272.43 58.8807 272.43Z" fill="#8CC63E"/>
<path opacity="0.7" d="M58.8807 272.43C58.8807 272.43 58.4007 343.23 115.521 391.87C172.641 440.51 254.211 445.93 320.171 452.07C386.131 458.21 438.391 422 448.251 365.48C458.111 308.96 408.251 291.06 383.321 225.84C358.391 160.62 361.691 139.46 305.221 98.32C248.751 57.18 157.001 79.26 106.811 146.07C56.6207 212.88 58.8807 272.43 58.8807 272.43Z" fill="white"/>
<path d="M396.65 263.73C393.951 262.345 391.723 260.19 390.248 257.538C388.774 254.887 388.118 251.857 388.365 248.833C388.613 245.809 389.751 242.926 391.636 240.549C393.522 238.172 396.07 236.408 398.959 235.479C401.847 234.55 404.946 234.499 407.864 235.331C410.782 236.164 413.387 237.843 415.35 240.156C417.313 242.47 418.547 245.313 418.894 248.327C419.241 251.342 418.686 254.391 417.3 257.09C416.381 258.883 415.118 260.477 413.582 261.781C412.047 263.085 410.269 264.073 408.352 264.69C406.434 265.307 404.413 265.539 402.405 265.375C400.398 265.21 398.442 264.651 396.65 263.73V263.73Z" fill="#263238"/>
<path d="M411.381 241.85L418.821 252.29C419.12 250.261 419.004 248.193 418.481 246.21L411.381 241.85Z" fill="#8CC63E"/>
<path d="M395.781 236.94L413.461 261.88C414.929 260.66 416.154 259.174 417.071 257.5L402.241 234.82C399.956 235.034 397.749 235.758 395.781 236.94V236.94Z" fill="#8CC63E"/>
<path d="M403.09 265.4L395.41 254.4L399.41 264.82C400.609 265.16 401.845 265.355 403.09 265.4V265.4Z" fill="#8CC63E"/>
<path d="M409.331 264.32L391.771 240.39C391.601 240.6 391.441 240.83 391.281 241.05L404.001 265.42C405.829 265.371 407.634 264.999 409.331 264.32Z" fill="#8CC63E"/>
<path d="M261.761 432.31C257.31 434.34 252.356 435.004 247.527 434.219C242.698 433.434 238.211 431.234 234.632 427.899C231.052 424.564 228.542 420.242 227.419 415.48C226.295 410.719 226.609 405.731 228.32 401.147C230.031 396.564 233.062 392.591 237.031 389.73C241 386.869 245.728 385.249 250.617 385.075C255.506 384.901 260.337 386.18 264.5 388.751C268.662 391.322 271.968 395.07 274.001 399.52C275.353 402.476 276.109 405.67 276.225 408.919C276.342 412.167 275.816 415.407 274.68 418.453C273.543 421.498 271.817 424.29 269.6 426.667C267.383 429.045 264.72 430.963 261.761 432.31V432.31Z" fill="#263238"/>
<path d="M273.782 420.5L256.902 394L276.072 412.42C276.122 411.91 276.162 411.42 276.182 410.88L253.472 385.14C251.531 384.979 249.576 385.053 247.652 385.36L252.212 392.61L244.672 386.01L250.672 396.87L238.542 388.73C238.242 388.92 237.942 389.11 237.652 389.31L260.162 414.31L242.302 400.72L248.652 410.72L239.402 404.32L263.622 431.38C266.57 429.733 269.147 427.497 271.192 424.81L266.262 416.58L272.382 423.1C272.903 422.263 273.37 421.395 273.782 420.5V420.5Z" fill="#8CC63E"/>
<path d="M258.772 433.45L239.422 411.13L248.022 424.41L226.822 407.79C226.3 414.119 228.234 420.407 232.221 425.35C236.209 430.292 241.945 433.511 248.242 434.34L240.602 427.55L252.462 434.55C254.603 434.453 256.724 434.083 258.772 433.45Z" fill="#8CC63E"/>
<path d="M260.691 386.87L271.541 399.47L269.341 394.66L272.851 397.36C270.084 392.603 265.803 388.91 260.691 386.87V386.87Z" fill="#8CC63E"/>
<path d="M235.462 406.36L229.602 398.26C228.398 400.554 227.554 403.019 227.102 405.57L235.462 406.36Z" fill="#8CC63E"/>
<path d="M288.231 393.36C286.431 389.42 278.451 388.87 267.851 391.28C268.524 391.872 269.162 392.503 269.761 393.17C277.681 391.35 283.331 391.51 284.501 394.05C286.561 398.56 273.711 408.86 255.791 417.05C237.871 425.24 221.691 428.24 219.621 423.73C218.561 421.41 221.471 417.55 226.981 413.23C226.855 412.352 226.778 411.467 226.751 410.58C219.061 416.58 214.971 422.42 216.661 426.1C219.511 432.34 237.851 430.1 257.661 421.03C277.471 411.96 291.081 399.6 288.231 393.36Z" fill="#263238"/>
<path d="M133.94 198.66C147.432 198.66 158.37 187.722 158.37 174.23C158.37 160.738 147.432 149.8 133.94 149.8C120.447 149.8 109.51 160.738 109.51 174.23C109.51 187.722 120.447 198.66 133.94 198.66Z" fill="#8CC63E"/>
<path d="M139.7 156.16C141.339 154.657 143.232 153.455 145.29 152.61C143.307 151.562 141.186 150.798 138.99 150.34C136.726 151.85 134.574 153.521 132.55 155.34C123.81 163.28 126.19 162.49 113.49 167.25C112.318 167.683 111.19 168.225 110.12 168.87C109.718 170.618 109.514 172.406 109.51 174.2C109.512 177.282 110.099 180.336 111.24 183.2C115.78 181.82 121.82 179.58 124.61 176.79C129.37 172.05 130.17 164.9 139.7 156.16Z" fill="#263238"/>
<path d="M116.189 191C118.038 192.962 120.197 194.608 122.579 195.87C127.129 192.69 129.249 189.31 135.729 186.37C141.419 183.78 150.809 183.21 156.669 183.14C157.784 180.308 158.357 177.293 158.359 174.25C158.359 173.83 158.359 173.42 158.299 173C151.378 173.539 144.574 175.099 138.109 177.63C128.869 181.3 124.389 187.85 116.189 191Z" fill="#263238"/>
<path d="M140.49 165.69C144.81 167.85 151.49 166.69 156.64 165.25C155.652 162.764 154.263 160.457 152.53 158.42C145.65 159.71 134.51 162.7 140.49 165.69Z" fill="#263238"/>
<path d="M145.932 368.3L146.442 367.46C147.819 368.734 149.635 369.429 151.512 369.4C154.592 369.4 155.952 368.06 155.952 366.4C155.952 361.79 146.352 364.55 146.352 358.89C146.352 356.71 148.022 354.8 151.802 354.8C153.45 354.788 155.063 355.272 156.432 356.19L156.012 357.09C154.768 356.249 153.303 355.796 151.802 355.79C148.802 355.79 147.472 357.17 147.472 358.87C147.472 363.48 157.072 360.75 157.072 366.33C157.072 368.51 155.332 370.4 151.532 370.4C149.462 370.462 147.45 369.708 145.932 368.3V368.3Z" fill="#263238"/>
<path d="M170.201 364.81H160.341C160.399 365.773 160.739 366.697 161.32 367.467C161.901 368.237 162.696 368.819 163.605 369.139C164.515 369.459 165.499 369.504 166.434 369.268C167.369 369.031 168.213 368.524 168.861 367.81L169.501 368.54C168.963 369.153 168.296 369.637 167.547 369.959C166.797 370.281 165.986 370.432 165.171 370.4C164.393 370.439 163.615 370.316 162.887 370.039C162.158 369.761 161.496 369.335 160.941 368.788C160.386 368.241 159.951 367.584 159.664 366.86C159.376 366.135 159.243 365.359 159.271 364.58C159.271 363.121 159.851 361.722 160.882 360.691C161.914 359.659 163.313 359.08 164.771 359.08C166.23 359.08 167.629 359.659 168.66 360.691C169.692 361.722 170.271 363.121 170.271 364.58C170.231 364.59 170.201 364.7 170.201 364.81ZM160.361 363.95H169.151C169.098 362.821 168.611 361.755 167.793 360.975C166.974 360.195 165.887 359.76 164.756 359.76C163.626 359.76 162.538 360.195 161.72 360.975C160.902 361.755 160.415 362.821 160.361 363.95Z" fill="#263238"/>
<path d="M179.061 358.72V359.8H178.791C176.241 359.8 174.731 361.49 174.731 364.32V370.32H173.631V358.81H174.681V361.32C175.047 360.483 175.667 359.782 176.453 359.316C177.239 358.85 178.151 358.641 179.061 358.72V358.72Z" fill="#263238"/>
<path d="M191.822 358.81L186.632 370.28H185.512L180.352 358.81H181.522L186.082 369.07L190.702 358.81H191.822Z" fill="#263238"/>
<path d="M193.861 355.14C193.861 354.901 193.956 354.672 194.125 354.504C194.294 354.335 194.523 354.24 194.761 354.24C194.936 354.242 195.107 354.296 195.252 354.394C195.397 354.493 195.509 354.632 195.575 354.794C195.642 354.956 195.658 355.134 195.624 355.306C195.589 355.478 195.504 355.635 195.381 355.759C195.257 355.883 195.099 355.968 194.927 356.002C194.756 356.037 194.578 356.02 194.415 355.954C194.253 355.888 194.114 355.775 194.015 355.631C193.917 355.486 193.863 355.315 193.861 355.14V355.14ZM194.211 358.81H195.311V370.28H194.211V358.81Z" fill="#263238"/>
<path d="M198.69 364.54C198.658 363.769 198.786 362.999 199.066 362.28C199.345 361.56 199.771 360.907 200.316 360.36C200.861 359.813 201.513 359.385 202.232 359.103C202.95 358.821 203.719 358.69 204.49 358.72C205.334 358.681 206.174 358.853 206.934 359.222C207.694 359.59 208.349 360.143 208.84 360.83L208.03 361.43C207.626 360.875 207.092 360.428 206.475 360.128C205.858 359.829 205.176 359.685 204.49 359.71C203.246 359.767 202.072 360.301 201.211 361.201C200.351 362.102 199.87 363.299 199.87 364.545C199.87 365.791 200.351 366.988 201.211 367.889C202.072 368.789 203.246 369.323 204.49 369.38C205.176 369.405 205.858 369.261 206.475 368.962C207.092 368.662 207.626 368.215 208.03 367.66L208.84 368.26C208.345 368.942 207.689 369.491 206.93 369.858C206.171 370.224 205.333 370.397 204.49 370.36C203.72 370.388 202.951 370.257 202.233 369.974C201.516 369.691 200.864 369.263 200.319 368.717C199.775 368.17 199.349 367.517 199.069 366.798C198.788 366.08 198.66 365.311 198.69 364.54V364.54Z" fill="#263238"/>
<path d="M221.622 364.81H211.762C211.819 365.773 212.16 366.697 212.74 367.467C213.321 368.237 214.116 368.819 215.026 369.139C215.935 369.459 216.919 369.504 217.854 369.268C218.789 369.031 219.634 368.524 220.282 367.81L220.922 368.54C220.384 369.153 219.716 369.637 218.967 369.959C218.218 370.281 217.406 370.432 216.592 370.4C215.813 370.439 215.035 370.316 214.306 370.039C213.577 369.761 212.914 369.336 212.358 368.789C211.802 368.241 211.366 367.585 211.078 366.86C210.789 366.136 210.654 365.359 210.682 364.58C210.637 363.831 210.746 363.081 211.002 362.375C211.258 361.67 211.656 361.025 212.172 360.479C212.687 359.934 213.309 359.5 213.999 359.204C214.688 358.908 215.431 358.757 216.182 358.76C216.928 358.754 217.667 358.902 218.353 359.195C219.04 359.488 219.658 359.919 220.17 360.461C220.683 361.003 221.078 361.645 221.331 362.347C221.584 363.049 221.69 363.795 221.642 364.54C221.642 364.59 221.622 364.7 221.622 364.81ZM211.782 363.95H220.572C220.518 362.821 220.031 361.755 219.213 360.975C218.395 360.195 217.307 359.76 216.177 359.76C215.046 359.76 213.959 360.195 213.141 360.975C212.322 361.755 211.836 362.821 211.782 363.95Z" fill="#263238"/>
<path d="M230.91 363.75V354.9H232V363.71C232 367.55 233.85 369.35 237.05 369.35C240.25 369.35 242.05 367.55 242.05 363.71V354.9H243.17V363.75C243.17 368.15 240.82 370.39 237 370.39C233.18 370.39 230.91 368.15 230.91 363.75Z" fill="#263238"/>
<path d="M258.371 363.58V370.28H257.271V363.66C257.271 361.07 255.891 359.66 253.561 359.66C252.97 359.62 252.377 359.708 251.824 359.92C251.27 360.131 250.769 360.461 250.356 360.885C249.942 361.309 249.625 361.818 249.428 362.377C249.23 362.935 249.156 363.53 249.211 364.12V370.23H248.111V358.81H249.171V361.29C249.592 360.463 250.247 359.778 251.054 359.321C251.861 358.864 252.786 358.655 253.711 358.72C256.501 358.72 258.371 360.37 258.371 363.58Z" fill="#263238"/>
<path d="M271.171 363V370.27H270.121V368.27C269.7 368.975 269.09 369.548 268.36 369.925C267.631 370.301 266.81 370.466 265.991 370.4C263.421 370.4 261.861 369.09 261.861 367.13C261.861 365.4 262.961 363.92 266.141 363.92H270.081V363C270.081 360.87 268.911 359.73 266.671 359.73C265.222 359.713 263.816 360.229 262.721 361.18L262.171 360.39C263.457 359.315 265.086 358.736 266.761 358.76C269.591 358.72 271.171 360.17 271.171 363ZM270.081 366.88V364.73H266.171C263.791 364.73 262.961 365.73 262.961 367.04C262.961 368.53 264.121 369.45 266.141 369.45C266.986 369.505 267.826 369.285 268.536 368.824C269.246 368.362 269.788 367.684 270.081 366.89V366.88Z" fill="#263238"/>
<path d="M284.681 358.81L279.501 370.28H278.381L273.221 358.81H274.381L279.001 369.07L283.611 358.81H284.681Z" fill="#263238"/>
<path d="M295 363V370.27H294V368.27C293.58 368.976 292.97 369.55 292.24 369.926C291.51 370.303 290.689 370.467 289.87 370.4C287.3 370.4 285.74 369.09 285.74 367.13C285.74 365.4 286.84 363.92 290.02 363.92H293.96V363C293.96 360.87 292.79 359.73 290.55 359.73C289.1 359.713 287.695 360.229 286.6 361.18L286.05 360.39C287.336 359.315 288.964 358.736 290.64 358.76C293.42 358.72 295 360.17 295 363ZM293.91 366.88V364.73H290C287.63 364.73 286.79 365.73 286.79 367.04C286.79 368.53 287.95 369.45 289.97 369.45C290.815 369.505 291.655 369.285 292.365 368.824C293.075 368.362 293.617 367.684 293.91 366.89V366.88Z" fill="#263238"/>
<path d="M299.182 355.14C299.182 354.901 299.276 354.672 299.445 354.504C299.614 354.335 299.843 354.24 300.082 354.24C300.199 354.24 300.314 354.263 300.422 354.308C300.53 354.352 300.628 354.418 300.711 354.501C300.794 354.583 300.859 354.681 300.904 354.789C300.949 354.897 300.972 355.013 300.972 355.13C300.972 355.247 300.949 355.363 300.904 355.471C300.859 355.579 300.794 355.677 300.711 355.759C300.628 355.842 300.53 355.908 300.422 355.952C300.314 355.997 300.199 356.02 300.082 356.02C299.964 356.023 299.848 356.002 299.739 355.959C299.63 355.916 299.53 355.851 299.446 355.769C299.363 355.687 299.296 355.59 299.25 355.481C299.205 355.373 299.182 355.257 299.182 355.14V355.14ZM299.532 358.81H300.632V370.28H299.532V358.81Z" fill="#263238"/>
<path d="M305.262 354H306.362V370.3H305.262V354Z" fill="#263238"/>
<path d="M319.272 363V370.27H318.272V368.27C317.852 368.976 317.242 369.55 316.512 369.926C315.782 370.303 314.96 370.467 314.142 370.4C311.572 370.4 310.012 369.09 310.012 367.13C310.012 365.4 311.112 363.92 314.302 363.92H318.232V363C318.232 360.87 317.062 359.73 314.822 359.73C313.372 359.713 311.966 360.229 310.872 361.18L310.322 360.39C311.607 359.315 313.236 358.736 314.912 358.76C317.692 358.72 319.272 360.17 319.272 363ZM318.182 366.88V364.73H314.272C311.902 364.73 311.062 365.73 311.062 367.04C311.062 368.53 312.222 369.45 314.252 369.45C315.095 369.502 315.933 369.282 316.64 368.821C317.348 368.359 317.889 367.682 318.182 366.89V366.88Z" fill="#263238"/>
<path d="M335.221 364.54C335.257 365.301 335.136 366.061 334.865 366.774C334.595 367.486 334.181 368.135 333.649 368.681C333.118 369.227 332.48 369.657 331.775 369.946C331.069 370.235 330.313 370.376 329.551 370.36C328.584 370.386 327.629 370.138 326.797 369.645C325.966 369.151 325.291 368.432 324.851 367.57V370.28H323.801V354H324.901V361.45C325.348 360.611 326.02 359.913 326.841 359.435C327.662 358.956 328.601 358.716 329.551 358.74C330.311 358.723 331.067 358.862 331.771 359.149C332.476 359.436 333.113 359.865 333.645 360.409C334.177 360.953 334.591 361.6 334.862 362.311C335.133 363.021 335.255 363.78 335.221 364.54V364.54ZM334.121 364.54C334.08 363.634 333.774 362.761 333.24 362.027C332.707 361.294 331.971 360.733 331.122 360.415C330.273 360.097 329.35 360.034 328.466 360.236C327.582 360.438 326.777 360.894 326.15 361.549C325.523 362.205 325.103 363.029 324.94 363.921C324.778 364.813 324.881 365.733 325.237 366.567C325.593 367.401 326.185 368.112 326.942 368.612C327.698 369.112 328.584 369.379 329.491 369.38C330.119 369.389 330.743 369.269 331.323 369.026C331.903 368.784 332.427 368.424 332.861 367.97C333.296 367.515 333.632 366.976 333.849 366.386C334.065 365.796 334.158 365.168 334.121 364.54V364.54Z" fill="#263238"/>
<path d="M338.631 354H339.721V370.3H338.631V354Z" fill="#263238"/>
<path d="M354 364.81H344.14C344.198 365.773 344.538 366.697 345.119 367.467C345.699 368.237 346.494 368.819 347.404 369.139C348.314 369.459 349.298 369.504 350.233 369.268C351.168 369.031 352.012 368.524 352.66 367.81L353.3 368.54C352.762 369.153 352.094 369.637 351.345 369.959C350.596 370.281 349.785 370.432 348.97 370.4C348.192 370.439 347.414 370.316 346.685 370.039C345.957 369.761 345.295 369.335 344.74 368.788C344.185 368.241 343.75 367.584 343.462 366.86C343.175 366.135 343.041 365.359 343.07 364.58C343.07 363.121 343.65 361.722 344.681 360.691C345.713 359.659 347.112 359.08 348.57 359.08C350.029 359.08 351.428 359.659 352.459 360.691C353.491 361.722 354.07 363.121 354.07 364.58C354.07 364.59 354 364.7 354 364.81ZM344.2 364H353C352.946 362.871 352.46 361.805 351.641 361.025C350.823 360.245 349.736 359.81 348.605 359.81C347.475 359.81 346.387 360.245 345.569 361.025C344.751 361.805 344.264 362.871 344.21 364H344.2Z" fill="#263238"/>
<path d="M200.391 297.85C200.391 315.22 187.641 330.35 159.621 330.35C146.031 330.35 131.741 326.57 122.211 319.84L131.211 302.47C138.631 308.07 148.861 311.29 159.091 311.29C170.431 311.29 177.441 306.53 177.441 298.55C177.441 290.84 172.441 285.8 154.601 285.8H129.501L134.501 230.6H194.321V248.81H153.451L151.911 267.44H159.911C188.901 267.44 200.391 280.47 200.391 297.85ZM209.631 279.63C209.631 247.27 227.561 228.92 251.631 228.92C275.701 228.92 293.631 247.27 293.631 279.63C293.631 311.99 275.841 330.35 251.631 330.35C227.421 330.35 209.631 312 209.631 279.63ZM270.851 279.63C270.851 257.36 263.011 248.11 251.661 248.11C240.311 248.11 232.661 257.36 232.661 279.63C232.661 301.9 240.501 311.15 251.661 311.15C262.821 311.15 270.851 301.91 270.851 279.63ZM375.791 298.69C375.791 315.22 363.041 330.35 335.161 330.35C321.431 330.35 307.281 326.57 297.751 319.84L306.581 302.47C314.011 308.07 324.371 311.29 334.581 311.29C345.931 311.29 352.931 306.67 352.931 298.69C352.931 291.26 347.471 286.64 334.581 286.64H324.231V271.64L344.411 248.8H302.661V230.6H371.311V245.31L349.171 270.52C366.821 273.33 375.791 284.25 375.791 298.69Z" fill="#263238"/>
<path d="M325.24 82.79C324.751 82.0098 324.591 81.0676 324.796 80.1698C325 79.272 325.552 78.4918 326.33 78L332 74.41C332.387 74.1648 332.819 73.9984 333.271 73.9205C333.722 73.8425 334.185 73.8545 334.632 73.9558C335.079 74.0571 335.501 74.2456 335.875 74.5106C336.249 74.7756 336.567 75.1118 336.81 75.5V75.5C337.055 75.8871 337.222 76.3188 337.3 76.7704C337.378 77.222 337.366 77.6845 337.264 78.1314C337.163 78.5783 336.975 79.0009 336.71 79.3747C336.445 79.7486 336.108 80.0664 335.72 80.31L330.06 83.88C329.672 84.1255 329.24 84.292 328.787 84.3701C328.335 84.4482 327.872 84.4362 327.424 84.335C326.976 84.2337 326.553 84.0452 326.178 83.78C325.803 83.5149 325.485 83.1785 325.24 82.79V82.79Z" fill="white" stroke="#263238" stroke-width="1.19148" stroke-linecap="round" stroke-linejoin="round"/>
<path d="M322.159 107.29C319.478 103.464 316.143 100.14 312.309 97.47C307.289 94.4729 302.093 91.7813 296.749 89.41L293.519 71.41C296.613 68.4408 299.388 65.1563 301.799 61.61C304.719 56.9 303.799 53.74 301.929 50.48C300.059 47.22 297.469 49.33 297.079 50.82C296.792 52.3889 296.618 53.9763 296.559 55.57C296.559 55.57 294.819 43.57 293.809 40.84C292.799 38.11 288.949 40.74 289.289 41.65C289.289 41.65 288.129 38.24 285.739 38.2C283.349 38.16 282.669 42.2 282.669 42.2C282.669 42.2 279.599 40.78 277.879 42.56C276.159 44.34 276.979 48.8 276.979 48.8C276.979 48.8 274.239 49.8 273.819 53.69C273.399 57.58 273.739 64.39 274.819 66.26C275.374 67.1475 275.859 68.077 276.269 69.04C274.909 85.28 274.959 84.21 274.559 90.69C274.279 95.25 277.269 105.85 281.559 110.26C285.849 114.67 301.199 122.46 301.199 122.46C301.199 122.46 317.229 118.33 322.159 107.29Z" fill="white"/>
<path d="M301.26 122.48C301.26 122.48 317.26 118.33 322.16 107.29C322.16 107.29 321.84 106.82 321.27 106.07L317.11 102.6C311.203 103.095 305.335 103.967 299.54 105.21C290.76 107.21 283.93 102.93 281.33 93.21C278.73 83.49 276.33 69.1 276.33 69.1C274.97 85.34 275.02 84.27 274.62 90.75C274.34 95.31 277.33 105.91 281.62 110.32C285.91 114.73 301.26 122.48 301.26 122.48Z" fill="#8CC63E"/>
<path opacity="0.5" d="M301.26 122.48C301.26 122.48 317.26 118.33 322.16 107.29C322.16 107.29 321.84 106.82 321.27 106.07L317.11 102.6C311.203 103.095 305.335 103.967 299.54 105.21C290.76 107.21 283.93 102.93 281.33 93.21C278.73 83.49 276.33 69.1 276.33 69.1C274.97 85.34 275.02 84.27 274.62 90.75C274.34 95.31 277.33 105.91 281.62 110.32C285.91 114.73 301.26 122.48 301.26 122.48Z" fill="white"/>
<path d="M322.159 107.29C319.478 103.464 316.143 100.14 312.309 97.47C307.289 94.4729 302.093 91.7813 296.749 89.41L293.519 71.41C296.613 68.4408 299.388 65.1563 301.799 61.61C304.719 56.9 303.799 53.74 301.929 50.48C300.059 47.22 297.469 49.33 297.079 50.82C296.792 52.3889 296.618 53.9763 296.559 55.57C296.559 55.57 294.819 43.57 293.809 40.84C292.799 38.11 288.949 40.74 289.289 41.65C289.289 41.65 288.129 38.24 285.739 38.2C283.349 38.16 282.669 42.2 282.669 42.2C282.669 42.2 279.599 40.78 277.879 42.56C276.159 44.34 276.979 48.8 276.979 48.8C276.979 48.8 274.239 49.8 273.819 53.69C273.399 57.58 273.739 64.39 274.819 66.26C275.374 67.1475 275.859 68.077 276.269 69.04C274.909 85.28 274.959 84.21 274.559 90.69C274.279 95.25 277.269 105.85 281.559 110.26C285.849 114.67 301.199 122.46 301.199 122.46C301.199 122.46 317.229 118.33 322.159 107.29Z" stroke="#263238" stroke-width="1.19148" stroke-linecap="round" stroke-linejoin="round"/>
<path d="M295.5 82.42L293.5 71.42C296.593 68.4508 299.369 65.1663 301.78 61.62C304.7 56.91 303.78 53.75 301.91 50.49C300.04 47.23 297.45 49.34 297.06 50.83C296.773 52.3989 296.599 53.9863 296.54 55.58C296.54 55.58 294.8 43.58 293.79 40.85C292.78 38.12 288.93 40.75 289.27 41.66C289.27 41.66 288.11 38.25 285.72 38.21C283.33 38.17 282.65 42.21 282.65 42.21C282.65 42.21 279.58 40.79 277.86 42.57C276.14 44.35 276.96 48.81 276.96 48.81C276.96 48.81 274.22 49.81 273.8 53.7C273.38 57.59 273.72 64.4 274.8 66.27C275.355 67.1575 275.839 68.087 276.25 69.05C275.65 76.23 275.32 80.05 275.11 82.59L295.5 82.42Z" fill="white" stroke="#263238" stroke-width="1.19148" stroke-linecap="round" stroke-linejoin="round"/>
<path d="M279.539 107.54C279.908 108.143 280.312 108.724 280.749 109.28C284.969 105.75 294.469 97.28 298.749 90.01C297.549 89.63 296.749 89.41 296.749 89.41C296.749 89.41 287.909 101 279.539 107.54Z" fill="white" stroke="#263238" stroke-width="1.19148" stroke-linecap="round" stroke-linejoin="round"/>
<path d="M296.559 55.55C296.559 55.55 287.109 55.2 286.109 63.17" stroke="#263238" stroke-width="1.19148" stroke-linecap="round" stroke-linejoin="round"/>
<path d="M289.289 41.63L289.609 51.68" stroke="#263238" stroke-width="1.19148" stroke-linecap="round" stroke-linejoin="round"/>
<path d="M282.67 42.22L283.32 51.31" stroke="#263238" stroke-width="1.19148" stroke-linecap="round" stroke-linejoin="round"/>
<path d="M276.98 48.82L278 54.49" stroke="#263238" stroke-width="1.19148" stroke-linecap="round" stroke-linejoin="round"/>
<path d="M291.51 51.21C291.51 51.21 280.84 53 276.73 56.49" stroke="#263238" stroke-width="1.19148" stroke-linecap="round" stroke-linejoin="round"/>
<path d="M289 114.24C292.48 111.24 292.21 105.24 288.38 100.75C284.69 96.43 279.04 95.16 275.52 97.75C276.71 102.35 278.89 107.51 281.59 110.26C283.559 112.054 285.707 113.642 288 115C288.359 114.782 288.694 114.528 289 114.24V114.24Z" fill="#8CC63E"/>
<path d="M289 114.24C292.48 111.24 292.21 105.24 288.38 100.75C284.69 96.43 279.04 95.16 275.52 97.75C276.71 102.35 278.89 107.51 281.59 110.26C283.559 112.054 285.707 113.642 288 115C288.359 114.782 288.694 114.528 289 114.24V114.24Z" stroke="#263238" stroke-width="1.19148" stroke-linecap="round" stroke-linejoin="round"/>
<path d="M282.209 125.93C282.209 125.93 277.739 126.4 276.329 127.61C274.919 128.82 264.189 138 262.449 143.44C260.709 148.88 267.319 165.16 274.539 171.44C281.759 177.72 290.779 184.37 298.439 183C306.099 181.63 314.899 169.83 315.809 166.62C316.719 163.41 286.749 126.62 286.749 126.62C286.749 126.62 284.619 124.48 282.209 125.93Z" fill="white"/>
<path d="M282.209 125.93C282.209 125.93 281.329 126.02 280.209 126.23L281.209 127.92C281.209 127.92 280.289 137.4 286.789 148.14C293.289 158.88 304.679 165.7 304.349 169.6C304.019 173.5 305.349 178.71 295.569 178.06C285.789 177.41 275.409 160.82 271.829 152.69C269.969 148.46 268.369 142.04 266.539 137.07C264.775 138.921 263.365 141.08 262.379 143.44C260.639 148.88 267.249 165.16 274.469 171.44C281.689 177.72 290.709 184.37 298.369 183C306.029 181.63 314.829 169.83 315.739 166.62C316.649 163.41 286.679 126.62 286.679 126.62C286.679 126.62 284.619 124.48 282.209 125.93Z" fill="#8CC63E"/>
<path opacity="0.5" d="M282.209 125.93C282.209 125.93 281.329 126.02 280.209 126.23L281.209 127.92C281.209 127.92 280.289 137.4 286.789 148.14C293.289 158.88 304.679 165.7 304.349 169.6C304.019 173.5 305.349 178.71 295.569 178.06C285.789 177.41 275.409 160.82 271.829 152.69C269.969 148.46 268.369 142.04 266.539 137.07C264.775 138.921 263.365 141.08 262.379 143.44C260.639 148.88 267.249 165.16 274.469 171.44C281.689 177.72 290.709 184.37 298.369 183C306.029 181.63 314.829 169.83 315.739 166.62C316.649 163.41 286.679 126.62 286.679 126.62C286.679 126.62 284.619 124.48 282.209 125.93Z" fill="white"/>
<path d="M282.209 125.93C282.209 125.93 277.739 126.4 276.329 127.61C274.919 128.82 264.189 138 262.449 143.44C260.709 148.88 267.319 165.16 274.539 171.44C281.759 177.72 290.779 184.37 298.439 183C306.099 181.63 314.899 169.83 315.809 166.62C316.719 163.41 286.749 126.62 286.749 126.62C286.749 126.62 284.619 124.48 282.209 125.93Z" stroke="#263238" stroke-width="1.19148" stroke-linecap="round" stroke-linejoin="round"/>
<path d="M320.389 104.12C320.389 104.12 315.649 102.52 308.589 105.52C301.529 108.52 283.869 118.89 281.279 127.92C279.569 133.85 298.279 161.54 309.969 166.1C313.109 167.32 315.969 168.65 322.399 163.41C328.829 158.17 342.309 143.62 345.839 137.21C349.369 130.8 343.839 126.02 341.989 123.21C340.139 120.4 325.349 102 320.389 104.12Z" fill="white"/>
<path d="M345.88 137.12L333.69 141C333.69 141 321.01 156 316.46 159.87C311.91 163.74 297.59 154.34 292.71 149.78L291.27 148.44C297.1 156.36 304.35 163.92 309.97 166.12C313.11 167.34 315.97 168.67 322.4 163.43C328.83 158.19 342.31 143.64 345.84 137.23C345.859 137.196 345.872 137.159 345.88 137.12Z" fill="#8CC63E"/>
<path d="M339.55 135.78L346.11 136.63C349.02 130.51 343.82 125.93 341.99 123.19C340.16 120.45 325.35 102 320.39 104.12C319.481 103.865 318.544 103.727 317.6 103.71C311.6 108.23 312.28 113.42 317.76 122.77C323.24 132.12 339.55 135.78 339.55 135.78Z" fill="#8CC63E"/>
<g opacity="0.5">
<path opacity="0.5" d="M345.88 137.12L333.69 141C333.69 141 321.01 156 316.46 159.87C311.91 163.74 297.59 154.34 292.71 149.78L291.27 148.44C297.1 156.36 304.35 163.92 309.97 166.12C313.11 167.34 315.97 168.67 322.4 163.43C328.83 158.19 342.31 143.64 345.84 137.23C345.859 137.196 345.872 137.159 345.88 137.12Z" fill="white"/>
<path opacity="0.5" d="M339.55 135.78L346.11 136.63C349.02 130.51 343.82 125.93 341.99 123.19C340.16 120.45 325.35 102 320.39 104.12C319.481 103.865 318.544 103.727 317.6 103.71C311.6 108.23 312.28 113.42 317.76 122.77C323.24 132.12 339.55 135.78 339.55 135.78Z" fill="white"/>
</g>
<path d="M320.389 104.12C320.389 104.12 315.649 102.52 308.589 105.52C301.529 108.52 283.869 118.89 281.279 127.92C279.569 133.85 298.279 161.54 309.969 166.1C313.109 167.32 315.969 168.65 322.399 163.41C328.829 158.17 342.309 143.62 345.839 137.21C349.369 130.8 343.839 126.02 341.989 123.21C340.139 120.4 325.349 102 320.389 104.12Z" stroke="#263238" stroke-width="1.19148" stroke-linecap="round" stroke-linejoin="round"/>
<path d="M325.711 131.539L313.589 114.909C311.673 112.28 307.988 111.702 305.359 113.618L292.559 122.949C289.931 124.865 289.353 128.55 291.269 131.178L303.392 147.809C305.308 150.438 308.992 151.015 311.621 149.099L324.421 139.768C327.05 137.852 327.628 134.168 325.711 131.539Z" fill="white" stroke="#263238" stroke-width="1.19148" stroke-linecap="round" stroke-linejoin="round"/>
<path d="M479.52 230.22C464.57 191.22 427.17 191.65 394.18 192.06C382.81 192.2 372.07 192.34 362.18 191.06C328.81 186.84 319.27 152.54 319.18 152.06C319.1 151.757 318.961 151.473 318.771 151.224C318.581 150.975 318.344 150.766 318.073 150.609C317.803 150.451 317.504 150.349 317.193 150.307C316.883 150.265 316.567 150.285 316.265 150.365C315.962 150.445 315.678 150.584 315.429 150.774C315.18 150.964 314.971 151.201 314.814 151.471C314.656 151.742 314.554 152.041 314.512 152.351C314.47 152.662 314.49 152.977 314.57 153.28C314.67 153.66 324.96 191.12 361.57 195.76C371.8 197.06 383.21 196.91 394.25 196.76C427.25 196.35 461.31 195.92 475.08 231.85C478.151 240.144 478.941 249.11 477.366 257.813C475.792 266.516 471.912 274.637 466.13 281.33C455.89 293.12 441.36 297.9 426.28 294.44C412.05 291.17 397.99 286.67 384.39 282.32C361.88 275.12 338.61 267.67 313.91 265.6C271.56 262.04 242.1 282.67 208.02 306.54C201.16 311.35 194.07 316.31 186.64 321.25L182.41 324.07C161.32 338.15 139.52 352.71 114.85 355.34C95.6698 357.34 76.1698 348.4 66.2998 332.99C63.5579 328.8 61.6773 324.107 60.7673 319.183C59.8574 314.259 59.9364 309.203 60.9998 304.31C61.9839 300.074 63.8275 296.086 66.4164 292.593C69.0052 289.099 72.2841 286.174 76.0498 284C88.8198 276.39 111.38 273.86 130.62 276L130.95 271.25C110.76 269.1 87.1998 271.86 73.6098 279.95C69.3055 282.474 65.5576 285.844 62.5927 289.858C59.6278 293.871 57.5075 298.444 56.3598 303.3C55.1378 308.826 55.032 314.54 56.0486 320.107C57.0652 325.675 59.1837 330.983 62.2798 335.72C72.1798 351.19 90.0898 360.54 109.1 360.57C111.187 360.569 113.274 360.459 115.35 360.24C141.18 357.49 164.49 341.93 185.04 328.24L189.26 325.42C196.75 320.42 203.86 315.42 210.74 310.65C244.07 287.3 272.85 267.13 313.5 270.55C337.66 272.55 360.67 279.94 382.92 287.06C396.62 291.44 410.78 295.97 425.2 299.28C442.06 303.15 458.28 297.82 469.72 284.66C476.088 277.3 480.358 268.362 482.083 258.783C483.807 249.205 482.922 239.339 479.52 230.22V230.22Z" fill="white" stroke="#263238" stroke-width="1.19148" stroke-linecap="round" stroke-linejoin="round"/>
<path d="M313.4 121.06C313.4 121.703 313.21 122.331 312.853 122.866C312.496 123.4 311.988 123.817 311.394 124.063C310.8 124.309 310.147 124.373 309.516 124.248C308.886 124.122 308.307 123.813 307.852 123.358C307.398 122.904 307.088 122.324 306.963 121.694C306.837 121.064 306.902 120.41 307.148 119.816C307.394 119.222 307.81 118.715 308.345 118.358C308.879 118.001 309.508 117.81 310.15 117.81C311.012 117.81 311.839 118.152 312.448 118.762C313.058 119.371 313.4 120.198 313.4 121.06V121.06Z" fill="#8CC63E" stroke="#263238" stroke-width="1.19148" stroke-linecap="round" stroke-linejoin="round"/>
<path d="M304.58 128.48C304.582 129.124 304.393 129.753 304.037 130.289C303.68 130.825 303.173 131.243 302.578 131.491C301.984 131.738 301.33 131.803 300.698 131.678C300.067 131.553 299.487 131.243 299.032 130.788C298.577 130.333 298.267 129.753 298.142 129.122C298.017 128.49 298.082 127.836 298.329 127.242C298.577 126.647 298.995 126.14 299.531 125.784C300.067 125.427 300.696 125.238 301.34 125.24C302.199 125.24 303.023 125.581 303.631 126.189C304.239 126.797 304.58 127.621 304.58 128.48V128.48Z" fill="#8CC63E" stroke="#263238" stroke-width="1.19148" stroke-linecap="round" stroke-linejoin="round"/>
<path d="M349.328 129.27C363.382 125.187 371.466 110.484 367.383 96.4294C363.299 82.375 348.596 74.2917 334.542 78.3749C320.487 82.4581 312.404 97.1615 316.487 111.216C320.57 125.27 335.274 133.354 349.328 129.27Z" fill="white"/>
<path d="M362.069 86.59C361.149 85.5128 360.146 84.5097 359.069 83.59C360.628 89.0546 360.386 94.8757 358.381 100.192C356.375 105.509 352.712 110.04 347.932 113.113C343.153 116.187 337.511 117.641 331.841 117.261C326.172 116.88 320.775 114.685 316.449 111C317.523 114.814 319.44 118.339 322.057 121.314C324.674 124.289 327.925 126.64 331.571 128.192C335.217 129.744 339.165 130.458 343.123 130.282C347.082 130.107 350.951 129.045 354.445 127.175C357.939 125.306 360.968 122.676 363.311 119.48C365.654 116.285 367.25 112.604 367.982 108.71C368.713 104.815 368.562 100.806 367.539 96.978C366.515 93.1498 364.646 89.6 362.069 86.59Z" fill="#8CC63E"/>
<path opacity="0.5" d="M362.069 86.59C361.149 85.5128 360.146 84.5097 359.069 83.59C360.628 89.0546 360.386 94.8757 358.381 100.192C356.375 105.509 352.712 110.04 347.932 113.113C343.153 116.187 337.511 117.641 331.841 117.261C326.172 116.88 320.775 114.685 316.449 111C317.523 114.814 319.44 118.339 322.057 121.314C324.674 124.289 327.925 126.64 331.571 128.192C335.217 129.744 339.165 130.458 343.123 130.282C347.082 130.107 350.951 129.045 354.445 127.175C357.939 125.306 360.968 122.676 363.311 119.48C365.654 116.285 367.25 112.604 367.982 108.71C368.713 104.815 368.562 100.806 367.539 96.978C366.515 93.1498 364.646 89.6 362.069 86.59Z" fill="white"/>
<path d="M349.328 129.27C363.382 125.187 371.466 110.484 367.383 96.4294C363.299 82.375 348.596 74.2917 334.542 78.3749C320.487 82.4581 312.404 97.1615 316.487 111.216C320.57 125.27 335.274 133.354 349.328 129.27Z" stroke="#263238" stroke-width="1.19148" stroke-linecap="round" stroke-linejoin="round"/>
<path d="M365.459 122.13L373.179 115.53" stroke="#263238" stroke-width="1.19148" stroke-linecap="round" stroke-linejoin="round"/>
<path d="M375.229 116.36C375.64 116.009 375.895 115.508 375.937 114.969C375.98 114.43 375.806 113.896 375.454 113.485C375.103 113.074 374.603 112.819 374.063 112.777C373.524 112.735 372.99 112.909 372.579 113.26C372.376 113.434 372.209 113.646 372.087 113.885C371.966 114.124 371.892 114.384 371.871 114.651C371.829 115.19 372.003 115.724 372.354 116.135C372.706 116.546 373.206 116.801 373.745 116.843C374.284 116.885 374.818 116.711 375.229 116.36V116.36Z" fill="#263238"/>
<path d="M356 130.13C355.703 129.782 355.477 129.379 355.336 128.944C355.195 128.509 355.141 128.05 355.177 127.594C355.213 127.138 355.339 126.694 355.547 126.286C355.755 125.879 356.042 125.517 356.39 125.22L361.47 120.86C362.175 120.262 363.089 119.967 364.01 120.04C364.932 120.113 365.788 120.548 366.39 121.25V121.25C366.688 121.597 366.914 122 367.056 122.434C367.198 122.869 367.253 123.328 367.218 123.784C367.183 124.24 367.058 124.684 366.85 125.092C366.643 125.5 366.358 125.863 366.01 126.16L360.92 130.52C360.216 131.121 359.302 131.417 358.379 131.344C357.457 131.271 356.601 130.834 356 130.13Z" fill="white" stroke="#263238" stroke-width="1.19148" stroke-linecap="round" stroke-linejoin="round"/>
<path d="M347.71 134.5C347.71 134.5 337.42 131.72 333.37 139.45C329.32 147.18 333.89 166.45 333.89 166.45C333.89 166.45 326.37 178.67 324.46 180C322.55 181.33 317.17 180.75 311.87 183.45C306.57 186.15 308.32 188.92 309.73 189.85C311.14 190.78 315.46 188 316.73 188.1C318 188.2 317.86 190.49 312.86 195.68C307.86 200.87 305.57 201 307 203.4C307.388 204.087 307.985 204.631 308.705 204.953C309.425 205.275 310.229 205.358 311 205.19C310.824 205.785 310.868 206.423 311.125 206.987C311.383 207.551 311.835 208.003 312.4 208.26C314.46 209.26 315.34 208.49 315.34 208.49C315.34 208.49 315.14 211.1 317.05 211.9C318.548 212.341 320.142 212.341 321.64 211.9C321.64 211.9 323.45 214.02 325.28 213.67C327.11 213.32 331.28 208.22 334.58 203.88C337.88 199.54 350.58 184.11 355.58 174.65C360.58 165.19 358.21 155.65 357.19 149.82C356.17 143.99 351.55 135.78 347.71 134.5Z" fill="white"/>
<path d="M357.189 149.85C356.189 144.02 351.549 135.78 347.709 134.5L347.469 134.44C350.987 142.878 352.397 152.045 351.579 161.15C350.279 177.73 335.069 190.81 330.439 195.62C326.729 199.48 322.059 204.89 315.329 208.89C315.303 209.5 315.45 210.105 315.753 210.636C316.055 211.166 316.501 211.601 317.039 211.89C318.537 212.331 320.131 212.331 321.629 211.89C321.629 211.89 323.439 214.01 325.269 213.66C327.099 213.31 331.269 208.21 334.569 203.87C337.869 199.53 350.569 184.1 355.569 174.64C360.569 165.18 358.209 155.68 357.189 149.85Z" fill="#8CC63E"/>
<path opacity="0.5" d="M357.189 149.85C356.189 144.02 351.549 135.78 347.709 134.5L347.469 134.44C350.987 142.878 352.397 152.045 351.579 161.15C350.279 177.73 335.069 190.81 330.439 195.62C326.729 199.48 322.059 204.89 315.329 208.89C315.303 209.5 315.45 210.105 315.753 210.636C316.055 211.166 316.501 211.601 317.039 211.89C318.537 212.331 320.131 212.331 321.629 211.89C321.629 211.89 323.439 214.01 325.269 213.66C327.099 213.31 331.269 208.21 334.569 203.87C337.869 199.53 350.569 184.1 355.569 174.64C360.569 165.18 358.209 155.68 357.189 149.85Z" fill="white"/>
<path d="M347.71 134.5C347.71 134.5 337.42 131.72 333.37 139.45C329.32 147.18 333.89 166.45 333.89 166.45C333.89 166.45 326.37 178.67 324.46 180C322.55 181.33 317.17 180.75 311.87 183.45C306.57 186.15 308.32 188.92 309.73 189.85C311.14 190.78 315.46 188 316.73 188.1C318 188.2 317.86 190.49 312.86 195.68C307.86 200.87 305.57 201 307 203.4C307.388 204.087 307.985 204.631 308.705 204.953C309.425 205.275 310.229 205.358 311 205.19C310.824 205.785 310.868 206.423 311.125 206.987C311.383 207.551 311.835 208.003 312.4 208.26C314.46 209.26 315.34 208.49 315.34 208.49C315.34 208.49 315.14 211.1 317.05 211.9C318.548 212.341 320.142 212.341 321.64 211.9C321.64 211.9 323.45 214.02 325.28 213.67C327.11 213.32 331.28 208.22 334.58 203.88C337.88 199.54 350.58 184.11 355.58 174.65C360.58 165.19 358.21 155.65 357.19 149.82C356.17 143.99 351.55 135.78 347.71 134.5Z" stroke="#263238" stroke-width="1.19148" stroke-linecap="round" stroke-linejoin="round"/>
<path d="M325.27 213.7C327.1 213.35 331.27 208.25 334.57 203.91C336.44 201.46 341.32 195.45 346.11 188.98C342.9 177.98 333.4 174.69 329.17 173.78C327.26 176.64 325.3 179.38 324.46 179.97C322.55 181.3 317.17 180.72 311.87 183.42C306.57 186.12 308.32 188.89 309.73 189.82C311.14 190.75 315.46 187.97 316.73 188.07C318 188.17 317.86 190.46 312.86 195.65C307.86 200.84 305.57 201 307 203.4C307.388 204.087 307.985 204.631 308.705 204.953C309.425 205.275 310.229 205.358 311 205.19C310.824 205.785 310.868 206.423 311.125 206.987C311.383 207.551 311.835 208.003 312.4 208.26C314.46 209.26 315.34 208.49 315.34 208.49C315.34 208.49 315.14 211.1 317.05 211.9C318.548 212.341 320.142 212.341 321.64 211.9C321.64 211.9 323.44 214.05 325.27 213.7Z" stroke="#263238" stroke-width="1.19148" stroke-linecap="round" stroke-linejoin="round"/>
<path d="M311 205.19C314.809 203.213 318.203 200.525 321 197.27" stroke="#263238" stroke-width="1.19148" stroke-linecap="round" stroke-linejoin="round"/>
<path d="M315.33 208.49C319.333 206.545 322.898 203.806 325.81 200.44" stroke="#263238" stroke-width="1.19148" stroke-linecap="round" stroke-linejoin="round"/>
<path d="M321.629 211.93C321.629 211.93 327.389 207.62 330.129 204.06" stroke="#263238" stroke-width="1.19148" stroke-linecap="round" stroke-linejoin="round"/>
<path d="M357.65 169.44C357.86 168.68 358.02 167.92 358.16 167.17C349.78 161.58 339.22 163.41 333.59 165.04C333.77 165.91 333.89 166.42 333.89 166.42L333.02 167.82C346.48 164.57 353.9 167 357.65 169.44Z" fill="white" stroke="#263238" stroke-width="1.19148" stroke-linecap="round" stroke-linejoin="round"/>
<path d="M351.81 174.55C352.555 175.419 353.441 176.156 354.43 176.73C354.84 176.02 355.23 175.34 355.58 174.73C358.129 169.707 359.144 164.046 358.5 158.45C356.378 158.543 354.347 159.342 352.73 160.72C350.784 162.438 349.594 164.855 349.422 167.446C349.25 170.036 350.108 172.59 351.81 174.55V174.55Z" fill="#8CC63E" stroke="#263238" stroke-width="1.19148" stroke-linecap="round" stroke-linejoin="round"/>
<path d="M257.06 138.09C257.06 138.09 261.22 150.09 266.57 150.98C271.92 151.87 279.36 142.79 280.87 135.98C282.38 129.17 277.07 123.69 269.39 116.85C261.71 110.01 250.7 106.03 241.39 111.22C232.08 116.41 218.32 131.22 218.32 131.22C218.32 131.22 209.71 123.65 205.14 127.56C200.57 131.47 206.53 143.43 210.74 148.36C214.95 153.29 222.63 160.52 230 158.8C237.37 157.08 243.21 143.25 248 139.18C252.79 135.11 256 136.86 257.06 138.09Z" fill="white"/>
<path d="M269 141C260.87 137.1 263.15 127.34 255 124.74C246.85 122.14 247.52 127.67 241 138.08C234.48 148.49 222.46 147.83 214.33 145.23C211.753 144.396 209.22 143.431 206.74 142.34C207.852 144.514 209.193 146.562 210.74 148.45C214.95 153.38 222.6 160.54 229.96 158.82C237.32 157.1 243.17 143.27 247.96 139.2C252.75 135.13 256.02 136.88 257.07 138.11C257.07 138.11 261.23 150.11 266.58 151C271.93 151.89 279.37 142.81 280.88 136C281.131 134.885 281.195 133.736 281.07 132.6L280.69 132.52C280.69 132.52 277.1 144.89 269 141Z" fill="#8CC63E"/>
<path opacity="0.5" d="M269 141C260.87 137.1 263.15 127.34 255 124.74C246.85 122.14 247.52 127.67 241 138.08C234.48 148.49 222.46 147.83 214.33 145.23C211.753 144.396 209.22 143.431 206.74 142.34C207.852 144.514 209.193 146.562 210.74 148.45C214.95 153.38 222.6 160.54 229.96 158.82C237.32 157.1 243.17 143.27 247.96 139.2C252.75 135.13 256.02 136.88 257.07 138.11C257.07 138.11 261.23 150.11 266.58 151C271.93 151.89 279.37 142.81 280.88 136C281.131 134.885 281.195 133.736 281.07 132.6L280.69 132.52C280.69 132.52 277.1 144.89 269 141Z" fill="white"/>
<path d="M257.06 138.09C257.06 138.09 261.22 150.09 266.57 150.98C271.92 151.87 279.36 142.79 280.87 135.98C282.38 129.17 277.07 123.69 269.39 116.85C261.71 110.01 250.7 106.03 241.39 111.22C232.08 116.41 218.32 131.22 218.32 131.22C218.32 131.22 209.71 123.65 205.14 127.56C200.57 131.47 206.53 143.43 210.74 148.36C214.95 153.29 222.63 160.52 230 158.8C237.37 157.08 243.21 143.25 248 139.18C252.79 135.11 256 136.86 257.06 138.09Z" stroke="#263238" stroke-width="1.19148" stroke-linecap="round" stroke-linejoin="round"/>
<path d="M230.829 119.18C224.189 125 218.349 131.29 218.349 131.29C218.349 131.29 209.739 123.72 205.169 127.63C200.599 131.54 206.559 143.5 210.769 148.43C214.979 153.36 222.629 160.52 229.999 158.8C236.639 157.25 241.999 145.8 246.519 140.65C240.241 134.322 234.952 127.084 230.829 119.18V119.18Z" stroke="#263238" stroke-width="1.19148" stroke-linecap="round" stroke-linejoin="round"/>
<path d="M252.999 109C252.182 108.905 251.361 108.855 250.539 108.85C252.982 117.975 253.54 127.502 252.179 136.85C252.978 136.636 253.815 136.602 254.629 136.75C255.179 129.66 255.589 117.91 252.999 109Z" stroke="#263238" stroke-width="1.19148" stroke-linecap="round" stroke-linejoin="round"/>
<path d="M258.61 124.58C257.285 125.705 255.657 126.412 253.93 126.612C252.204 126.812 250.457 126.496 248.91 125.703C247.364 124.911 246.087 123.678 245.241 122.159C244.395 120.641 244.018 118.906 244.157 117.174C244.297 115.442 244.947 113.79 246.025 112.427C247.104 111.064 248.562 110.051 250.216 109.517C251.869 108.982 253.644 108.95 255.316 109.424C256.988 109.898 258.482 110.857 259.61 112.18C260.359 113.059 260.928 114.078 261.283 115.178C261.638 116.277 261.773 117.436 261.68 118.587C261.588 119.739 261.269 120.861 260.742 121.889C260.215 122.918 259.49 123.832 258.61 124.58V124.58Z" fill="#8CC63E" stroke="#263238" stroke-width="1.19148" stroke-linecap="round" stroke-linejoin="round"/>
<path d="M229.999 158.8C231.75 158.306 233.351 157.385 234.659 156.12C229.949 156.9 221.249 156.64 213.339 147.12C205.639 137.88 205.509 130.69 206.269 126.91C205.877 127.091 205.51 127.323 205.179 127.6C200.599 131.51 206.569 143.47 210.779 148.4C214.989 153.33 222.629 160.52 229.999 158.8Z" stroke="#263238" stroke-width="1.19148" stroke-linecap="round" stroke-linejoin="round"/>
<path d="M281.129 180.59C281.129 180.59 293.299 184.17 297.129 180.35C300.959 176.53 301.529 164.92 293.249 160C287.249 156.46 281.039 156 271.009 158.24C260.979 160.48 251.349 167.17 250.179 177.73C249.009 188.29 253.079 208.15 253.079 208.15C253.079 208.15 241.929 210.76 242.449 216.76C242.969 222.76 256.179 224.85 262.629 224.28C269.079 223.71 279.369 221.65 282.239 214.66C285.109 207.67 277.239 194.88 276.699 188.66C276.159 182.44 279.519 180.73 281.129 180.59Z" fill="white"/>
<path d="M281.129 180.59C281.129 180.59 293.299 184.17 297.129 180.35C299.629 177.86 300.719 172.09 298.909 167C298.909 167 299.909 172.21 292.729 173.51C285.549 174.81 273.869 172.21 268.669 178.71C263.469 185.21 270.939 198.55 271.589 207.33C272.239 216.11 270.269 219 261.489 220C252.709 221 244.859 214.7 243.049 218.52C245.739 223.15 256.879 224.77 262.649 224.26C269.109 223.69 279.389 221.63 282.259 214.64C285.129 207.65 277.259 194.86 276.719 188.64C276.179 182.42 279.519 180.73 281.129 180.59Z" fill="#8CC63E"/>
<path opacity="0.5" d="M281.129 180.59C281.129 180.59 293.299 184.17 297.129 180.35C299.629 177.86 300.719 172.09 298.909 167C298.909 167 299.909 172.21 292.729 173.51C285.549 174.81 273.869 172.21 268.669 178.71C263.469 185.21 270.939 198.55 271.589 207.33C272.239 216.11 270.269 219 261.489 220C252.709 221 244.859 214.7 243.049 218.52C245.739 223.15 256.879 224.77 262.649 224.26C269.109 223.69 279.389 221.63 282.259 214.64C285.129 207.65 277.259 194.86 276.719 188.64C276.179 182.42 279.519 180.73 281.129 180.59Z" fill="white"/>
<path d="M281.129 180.59C281.129 180.59 293.299 184.17 297.129 180.35C300.959 176.53 301.529 164.92 293.249 160C287.249 156.46 281.039 156 271.009 158.24C260.979 160.48 251.349 167.17 250.179 177.73C249.009 188.29 253.079 208.15 253.079 208.15C253.079 208.15 241.929 210.76 242.449 216.76C242.969 222.76 256.179 224.85 262.629 224.28C269.079 223.71 279.369 221.65 282.239 214.66C285.109 207.67 277.239 194.88 276.699 188.66C276.159 182.44 279.519 180.73 281.129 180.59Z" stroke="#263238" stroke-width="1.19148" stroke-linecap="round" stroke-linejoin="round"/>
<path d="M250.501 191C251.381 199.79 253.101 208.19 253.101 208.19C253.101 208.19 241.951 210.8 242.471 216.8C242.991 222.8 256.201 224.89 262.651 224.32C269.101 223.75 279.391 221.69 282.261 214.7C284.851 208.39 278.721 197.38 277.081 190.7C268.286 192.137 259.325 192.238 250.501 191V191Z" stroke="#263238" stroke-width="1.19148" stroke-linecap="round" stroke-linejoin="round"/>
<path d="M255.079 167.06C254.53 167.667 254.016 168.305 253.539 168.97C262.368 172.289 270.433 177.361 277.249 183.88C277.545 183.124 278.002 182.441 278.589 181.88C273.179 177.23 263.849 170.07 255.079 167.06Z" stroke="#263238" stroke-width="1.19148" stroke-linecap="round" stroke-linejoin="round"/>
<path d="M264.908 180.667C269.544 179.209 272.12 174.268 270.662 169.632C269.204 164.996 264.263 162.42 259.627 163.878C254.991 165.336 252.415 170.277 253.873 174.913C255.331 179.549 260.271 182.125 264.908 180.667Z" fill="#8CC63E" stroke="#263238" stroke-width="1.19148" stroke-linecap="round" stroke-linejoin="round"/>
<path d="M282.26 214.66C282.877 212.948 283.056 211.109 282.78 209.31C280.68 213.6 275.42 220.53 263.1 221.45C251.1 222.35 245.17 218.28 242.55 215.45C242.462 215.874 242.435 216.308 242.47 216.74C243 222.74 256.2 224.83 262.65 224.26C269.1 223.69 279.39 221.65 282.26 214.66Z" stroke="#263238" stroke-width="1.19148" stroke-linecap="round" stroke-linejoin="round"/>
<path d="M350.87 92.66C348.229 89.1911 345.833 85.5422 343.7 81.74C339.224 81.1397 334.67 81.895 330.627 83.9083C326.584 85.9216 323.238 89.1005 321.02 93.0347C318.802 96.9688 317.814 101.478 318.183 105.979C318.553 110.48 320.263 114.767 323.094 118.287C325.924 121.806 329.745 124.396 334.062 125.723C338.379 127.05 342.994 127.052 347.313 125.729C351.631 124.407 355.454 121.82 358.288 118.303C361.121 114.786 362.836 110.501 363.21 106C358.663 101.975 354.529 97.506 350.87 92.66V92.66Z" fill="#263238" stroke="#263238" stroke-width="1.19148" stroke-linecap="round" stroke-linejoin="round"/>
<path d="M353.059 113.17C352.017 114.187 350.693 114.868 349.259 115.123C347.825 115.377 346.348 115.195 345.019 114.599C343.69 114.003 342.57 113.022 341.807 111.782C341.043 110.541 340.67 109.1 340.736 107.645C340.802 106.19 341.304 104.789 342.177 103.623C343.05 102.457 344.254 101.581 345.631 101.108C347.009 100.635 348.497 100.587 349.902 100.971C351.307 101.355 352.564 102.152 353.509 103.26C354.132 103.939 354.615 104.735 354.93 105.601C355.244 106.468 355.385 107.388 355.343 108.308C355.301 109.229 355.078 110.133 354.686 110.967C354.294 111.801 353.741 112.55 353.059 113.17V113.17Z" fill="white"/>
<path d="M345.629 96.42C345.307 96.7048 344.908 96.8869 344.481 96.943C344.055 96.9992 343.622 96.9269 343.237 96.7353C342.852 96.5438 342.533 96.2417 342.321 95.8678C342.108 95.4939 342.013 95.0651 342.045 94.6364C342.078 94.2077 342.238 93.7986 342.505 93.4614C342.772 93.1242 343.133 92.8743 343.543 92.7437C343.952 92.613 344.392 92.6076 344.804 92.7281C345.217 92.8486 345.584 93.0895 345.859 93.42C346.221 93.8508 346.4 94.4061 346.357 94.967C346.314 95.5278 346.053 96.0494 345.629 96.42V96.42Z" fill="white"/>
<path d="M132.06 268.878L125.641 268.246L124.728 277.521L131.147 278.153L132.06 268.878Z" fill="#263238"/>
</svg>
