<svg width="9" height="9" viewBox="0 0 9 9" fill="none" xmlns="http://www.w3.org/2000/svg">
<path d="M4.5 9C6.98528 9 9 6.98528 9 4.5C9 2.01472 6.98528 0 4.5 0C2.01472 0 0 2.01472 0 4.5C0 6.98528 2.01472 9 4.5 9Z" fill="#FFD15C"/>
<path d="M4.4999 7.91239C6.38457 7.91239 7.91239 6.38456 7.91239 4.4999C7.91239 2.61523 6.38457 1.0874 4.4999 1.0874C2.61523 1.0874 1.0874 2.61523 1.0874 4.4999C1.0874 6.38456 2.61523 7.91239 4.4999 7.91239Z" fill="#F8B64C"/>
<path d="M4.27509 6.45002C3.6751 6.39377 3.24384 6.16877 2.94385 5.86876L3.39385 5.25001C3.60009 5.47501 3.91885 5.66252 4.29385 5.73751V4.85626C3.71259 4.70627 3.0751 4.50001 3.0751 3.73126C3.0751 3.16876 3.5251 2.68127 4.29385 2.58751V2.0625H4.81885V2.60624C5.26885 2.66249 5.6626 2.83124 5.98134 3.11249L5.53134 3.71249C5.3251 3.52498 5.08135 3.41248 4.81885 3.33749V4.12499C5.40011 4.27499 6.05635 4.49999 6.05635 5.26875C6.05635 5.8875 5.64384 6.37499 4.81885 6.46876V6.97501H4.29385V6.45H4.27509V6.45002ZM4.27509 3.97502V3.30002C4.03133 3.33751 3.88134 3.46877 3.88134 3.65627C3.9001 3.80627 4.05009 3.90003 4.27509 3.97502ZM4.81883 4.96878V5.71879C5.10008 5.66254 5.25008 5.49378 5.25008 5.32504C5.23134 5.13753 5.06259 5.04377 4.81883 4.96878Z" fill="#FFD15C"/>
<path d="M4.59425 0.225098H4.40674V0.862604H4.59425V0.225098Z" fill="#F8B64C"/>
<path d="M4.59425 8.1377H4.40674V8.7752H4.59425V8.1377Z" fill="#F8B64C"/>
<path d="M3.34596 1.05219L3.12793 0.453125L2.95173 0.517252L3.16976 1.11632L3.34596 1.05219Z" fill="#F8B64C"/>
<path d="M6.04859 8.48236L5.83057 7.8833L5.65437 7.94743L5.87239 8.54649L6.04859 8.48236Z" fill="#F8B64C"/>
<path d="M2.23741 1.64457L1.82764 1.15625L1.68402 1.27677L2.0938 1.76508L2.23741 1.64457Z" fill="#F8B64C"/>
<path d="M7.30382 7.70853L6.89404 7.22021L6.75043 7.34073L7.16021 7.82905L7.30382 7.70853Z" fill="#F8B64C"/>
<path d="M1.3963 2.59169L0.844238 2.27295L0.750494 2.43531L1.30256 2.75406L1.3963 2.59169Z" fill="#F8B64C"/>
<path d="M8.23517 6.55507L7.68311 6.23633L7.58936 6.39869L8.14142 6.71744L8.23517 6.55507Z" fill="#F8B64C"/>
<path d="M0.927132 3.78261L0.299316 3.67188L0.266747 3.85653L0.894562 3.96727L0.927132 3.78261Z" fill="#F8B64C"/>
<path d="M8.71571 5.14003L8.08789 5.0293L8.05532 5.21395L8.68314 5.32469L8.71571 5.14003Z" fill="#F8B64C"/>
<path d="M0.894417 5.0338L0.266602 5.14453L0.299171 5.32919L0.926987 5.21845L0.894417 5.0338Z" fill="#F8B64C"/>
<path d="M8.68201 3.6754L8.0542 3.78613L8.08677 3.97079L8.71458 3.86005L8.68201 3.6754Z" fill="#F8B64C"/>
<path d="M1.30207 6.24571L0.75 6.56445L0.843744 6.72682L1.39581 6.40807L1.30207 6.24571Z" fill="#F8B64C"/>
<path d="M8.13947 2.28233L7.5874 2.60107L7.68115 2.76344L8.23321 2.44469L8.13947 2.28233Z" fill="#F8B64C"/>
<path d="M2.09386 7.23483L1.68408 7.72314L1.8277 7.84366L2.23748 7.35535L2.09386 7.23483Z" fill="#F8B64C"/>
<path d="M7.16075 1.17037L6.75098 1.65869L6.89459 1.77921L7.30437 1.29089L7.16075 1.17037Z" fill="#F8B64C"/>
<path d="M3.17017 7.88433L2.95215 8.4834L3.12835 8.54753L3.34637 7.94846L3.17017 7.88433Z" fill="#F8B64C"/>
<path d="M5.87281 0.453182L5.65479 1.05225L5.83098 1.11637L6.04901 0.517309L5.87281 0.453182Z" fill="#F8B64C"/>
<path opacity="0.1" d="M1.4624 4.87489C1.4624 2.9999 2.9999 1.4624 4.87489 1.4624C5.71864 1.4624 6.48738 1.7624 7.0874 2.28739C6.46865 1.55614 5.53115 1.0874 4.4999 1.0874C2.62489 1.0874 1.0874 2.62489 1.0874 4.4999C1.0874 5.53115 1.55616 6.46865 2.28741 7.0874C1.78114 6.4874 1.4624 5.71864 1.4624 4.87489Z" fill="#231F20"/>
</svg>
