<svg width="23" height="23" viewBox="0 0 23 23" fill="none" xmlns="http://www.w3.org/2000/svg">
<path d="M22.4375 2.67187V20.333C22.4375 21.5195 21.5098 22.4424 20.3281 22.4424H2.67188C1.50488 22.4375 0.5625 21.5293 0.5625 20.3281V2.67187C0.5625 1.49512 1.48047 0.5625 2.67188 0.5625H20.333C21.5049 0.5625 22.4375 1.48047 22.4375 2.67187ZM20.6162 20.3281V2.67187C20.6162 2.52539 20.4893 2.38867 20.333 2.38867H19.8789L14.4932 6.03125L11.5 3.59473L8.51172 6.03125L3.12598 2.38379H2.67188C2.51562 2.38379 2.38867 2.52051 2.38867 2.66699V20.3281C2.38867 20.4746 2.51562 20.6113 2.67188 20.6113H20.333C20.4893 20.6162 20.6162 20.4795 20.6162 20.3281ZM7.89648 8.08203V9.88867H4.30762V8.08203H7.89648ZM7.89648 11.7148V13.5361H4.30762V11.7148H7.89648ZM8.43848 4.52246L11.0752 2.38867H5.28906L8.43848 4.52246ZM18.6924 8.08203V9.88867H9.12207V8.08203H18.6924ZM18.6924 11.7148V13.5361H9.12207V11.7148H18.6924ZM14.5615 4.52246L17.7109 2.38867H11.9297L14.5615 4.52246ZM18.6924 15.3574V17.1787H13.8389V15.3574H18.6924Z" fill="#171717"/>
</svg>
