<svg width="16" height="17" viewBox="0 0 16 17" fill="none" xmlns="http://www.w3.org/2000/svg">
<path d="M16 8.38511C16.0081 13.0138 12.4135 16.7987 8.0058 16.802C6.10209 16.8034 4.35345 16.1065 2.97929 14.9419C2.62197 14.639 2.59526 14.0767 2.91997 13.7357L3.28342 13.354C3.56113 13.0624 4.00448 13.0305 4.31216 13.2868C5.32458 14.1305 6.60583 14.634 7.99999 14.634C11.2808 14.634 13.9355 11.8457 13.9355 8.401C13.9355 4.95574 11.2803 2.168 7.99999 2.168C6.42535 2.168 4.99519 2.81058 3.93329 3.85945L5.57051 5.57874C5.89567 5.9202 5.66538 6.504 5.20558 6.504H0.516129C0.231064 6.504 0 6.26135 0 5.962V1.03749C0 0.554635 0.555935 0.312802 0.881096 0.654228L2.47374 2.3267C3.90996 0.885357 5.85651 0 7.99999 0C12.4132 0 15.9918 3.75267 16 8.38511ZM10.1641 11.0539L10.481 10.6261C10.7435 10.2716 10.6827 9.76085 10.3452 9.48521L9.03225 8.41282V4.878C9.03225 4.42899 8.68564 4.065 8.25806 4.065H7.74193C7.31435 4.065 6.96774 4.42899 6.96774 4.878V9.47318L9.0777 11.1965C9.41522 11.4722 9.9016 11.4084 10.1641 11.0539Z" fill="#171717"/>
</svg>
