<svg width="92" height="92" viewBox="0 0 92 92" fill="none" xmlns="http://www.w3.org/2000/svg">
<circle cx="45.9998" cy="46" r="45.2381" fill="white"/>
<g clip-path="url(#clip0)">
<path d="M36.2588 36.0103V37.8258H32.5684V25.1174H36.2588V26.9229V36.0103Z" fill="#E6E9ED"/>
<path d="M58.4204 26.933C59.6945 26.933 60.7269 27.9487 60.7269 29.2023C60.7269 30.3733 59.8228 31.3437 58.6603 31.4617C58.5772 31.4716 58.5034 31.4716 58.4204 31.4716V31.4617H55.4219C56.5844 31.3437 57.4885 30.3733 57.4885 29.2023H57.4793V26.923H57.4978H58.4204V26.933Z" fill="#EAC6BB"/>
<path d="M68.56 54.1651H68.5692V68.6889C68.5692 71.6844 66.1058 74.1253 63.0519 74.1353C63.0427 74.1353 63.0427 74.1353 63.0335 74.1353H40.8999H40.8814C37.8183 74.1353 35.3457 71.7017 35.3457 68.6889V54.1742V54.1651C35.3457 47.8563 38.9891 42.3826 44.3145 39.6594C44.4713 39.5868 44.6282 39.5051 44.785 39.4325C46.0951 40.1405 47.5981 40.5399 49.1859 40.5399V40.5499H55.1829H58.4213V40.5399C59.0487 40.5399 59.6124 40.2948 60.0359 39.8954C65.1186 42.6822 68.56 48.0279 68.56 54.1651Z" fill="#656D78"/>
<path d="M68.5597 54.165C68.5597 48.0277 65.1183 42.6821 60.0347 39.8944C59.6112 40.2938 59.0475 40.5389 58.4201 40.5389V40.5489H58.3481C62.8293 43.47 65.79 48.4753 65.79 54.165H65.7992V68.6888C65.7992 71.6843 63.3358 74.1252 60.282 74.1352H63.0332H63.0517C66.1065 74.1252 68.5689 71.6843 68.5689 68.6888V54.165H68.5597Z" fill="#545C66"/>
<path d="M58.4199 36.0004C59.6941 36.0004 60.7265 37.017 60.7265 38.2697C60.7265 38.9051 60.4598 39.477 60.0345 39.8946C59.611 40.294 59.0473 40.5391 58.4199 40.5391V40.549H55.1815V40.5391C53.9074 40.5391 52.875 39.5224 52.875 38.2697C52.875 37.017 53.9074 36.0004 55.1815 36.0004H58.4199Z" fill="#EAC6BB"/>
<path d="M56.5748 17.8738L54.7388 22.3852H49.1939H49.1846C49.1754 22.3852 49.1662 22.3852 49.1579 22.3852L47.3486 17.8647L56.5748 17.8738Z" fill="#656D78"/>
<path d="M58.6598 31.4617C59.8223 31.5797 60.7265 32.551 60.7265 33.7219C60.7265 34.9837 59.6941 36.0004 58.4199 36.0004H55.1815V35.9913C53.9074 35.9913 52.875 34.9746 52.875 33.7219C52.875 32.551 53.7792 31.5797 54.9417 31.4617C55.0247 31.4717 55.0985 31.4717 55.1815 31.4717C55.2646 31.4717 55.3384 31.4717 55.4214 31.4617H58.4199V31.4717C58.503 31.4717 58.5768 31.4717 58.6598 31.4617Z" fill="#EAC6BB"/>
<path d="M58.4201 22.3843C59.6942 22.3843 60.7266 23.4009 60.7266 24.6536C60.7266 25.9063 59.6942 26.923 58.4201 26.923H57.4975H57.479V22.3843H58.4201Z" fill="#EAC6BB"/>
<path d="M55.4215 31.4617C55.3385 31.4716 55.2647 31.4716 55.1816 31.4716C55.0986 31.4716 55.0248 31.4716 54.9418 31.4617C53.7793 31.5797 52.8751 32.5509 52.8751 33.7219C52.8751 34.9746 53.9075 35.9913 55.1816 35.9913V36.0003C53.9075 36.0003 52.8751 37.017 52.8751 38.2697C52.8751 39.5224 53.9075 40.539 55.1816 40.539V40.549H49.1846V40.539C47.5968 40.539 46.0938 40.1405 44.7837 39.4316C43.2974 38.6419 42.0611 37.4527 41.2123 36.0094H36.2763H36.2578V26.923H36.2763H41.2123C42.7909 24.2188 45.7608 22.3943 49.1569 22.3843H49.1837H49.1929H54.7379H57.479V26.923V29.2023H57.4882C57.4882 30.3733 56.584 31.3437 55.4215 31.4617Z" fill="#EAC6BB"/>
<path d="M32.5683 37.8259V39.6414H20.5742V23.3112H32.5683V25.1176V37.8259Z" fill="#4CAF50"/>
<path d="M58.4202 27.8351C57.91 27.8351 57.4976 27.4294 57.4976 26.9274C57.4976 26.4254 57.91 26.0197 58.4202 26.0197C59.1832 26.0197 59.8041 25.4078 59.8041 24.6562C59.8041 23.9064 59.1832 23.2964 58.4202 23.2964C57.91 23.2964 57.4976 22.8907 57.4976 22.3887C57.4976 21.8867 57.91 21.481 58.4202 21.481C60.2008 21.481 61.6493 22.9052 61.6493 24.6562C61.6493 26.4091 60.1999 27.8351 58.4202 27.8351Z" fill="black"/>
<path d="M58.4202 32.3847C57.91 32.3847 57.4976 31.9789 57.4976 31.4769C57.4976 30.975 57.91 30.5692 58.4202 30.5692C59.1832 30.5692 59.8041 29.9574 59.8041 29.2058C59.8041 28.4551 59.1832 27.8442 58.4202 27.8442C57.91 27.8442 57.4976 27.4384 57.4976 26.9364C57.4976 26.4344 57.91 26.0287 58.4202 26.0287C60.2008 26.0287 61.6493 27.4538 61.6493 29.2058C61.6493 30.9586 60.1999 32.3847 58.4202 32.3847Z" fill="black"/>
<path d="M58.4202 36.9074C57.91 36.9074 57.4976 36.5016 57.4976 35.9996C57.4976 35.4977 57.91 35.0919 58.4202 35.0919C59.1832 35.0919 59.8041 34.4801 59.8041 33.7285C59.8041 32.9778 59.1832 32.3669 58.4202 32.3669C57.91 32.3669 57.4976 31.9611 57.4976 31.4591C57.4976 30.9572 57.91 30.5514 58.4202 30.5514C60.2008 30.5514 61.6493 31.9765 61.6493 33.7285C61.6493 35.4813 60.1999 36.9074 58.4202 36.9074Z" fill="black"/>
<path d="M55.1784 36.9054C53.3977 36.9054 51.9492 35.4794 51.9492 33.7265C51.9492 31.9746 53.3977 30.5494 55.1784 30.5494C55.6886 30.5494 56.101 30.9552 56.101 31.4572C56.101 31.9592 55.6886 32.3649 55.1784 32.3649C54.4154 32.3649 53.7945 32.9758 53.7945 33.7265C53.7945 34.4781 54.4154 35.0899 55.1784 35.0899C55.6886 35.0899 56.101 35.4957 56.101 35.9977C56.101 36.4997 55.6886 36.9054 55.1784 36.9054Z" fill="black"/>
<path d="M55.1784 41.4475C53.3977 41.4475 51.9492 40.0215 51.9492 38.2686C51.9492 36.5167 53.3977 35.0916 55.1784 35.0916C55.6886 35.0916 56.101 35.4973 56.101 35.9993C56.101 36.5013 55.6886 36.907 55.1784 36.907C54.4154 36.907 53.7945 37.5179 53.7945 38.2686C53.7945 39.0202 54.4154 39.6321 55.1784 39.6321C55.6886 39.6321 56.101 40.0378 56.101 40.5398C56.101 41.0418 55.6886 41.4475 55.1784 41.4475Z" fill="black"/>
<path d="M58.4202 41.4475C57.91 41.4475 57.4976 41.0418 57.4976 40.5398C57.4976 40.0378 57.91 39.6321 58.4202 39.6321C59.1832 39.6321 59.8041 39.0202 59.8041 38.2686C59.8041 37.5179 59.1832 36.907 58.4202 36.907C57.91 36.907 57.4976 36.5013 57.4976 35.9993C57.4976 35.4973 57.91 35.0916 58.4202 35.0916C60.2008 35.0916 61.6493 36.5167 61.6493 38.2686C61.6493 40.0215 60.1999 41.4475 58.4202 41.4475Z" fill="black"/>
<path d="M55.1793 32.3794C53.3977 32.3794 51.9492 30.9542 51.9492 29.2023C51.9492 28.7003 52.3616 28.2946 52.8718 28.2946C53.382 28.2946 53.7945 28.7003 53.7945 29.2023C53.7945 29.953 54.4163 30.5639 55.1793 30.5639C55.9414 30.5639 56.5623 29.953 56.5623 29.2023C56.5623 28.7003 56.9747 28.2946 57.4849 28.2946C57.9951 28.2946 58.4076 28.7003 58.4076 29.2023C58.4076 30.9542 56.96 32.3794 55.1793 32.3794Z" fill="black"/>
<path d="M58.4183 32.3737L55.178 32.3719C54.6688 32.3719 54.2563 31.9652 54.2563 31.4632C54.2563 30.9622 54.6697 30.5564 55.179 30.5564H55.1799L58.4192 30.5582C58.9285 30.5582 59.3409 30.9649 59.3409 31.4669C59.3409 31.9679 58.9276 32.3737 58.4183 32.3737Z" fill="black"/>
<path d="M58.4182 36.9109L55.1771 36.9091C54.6678 36.9091 54.2554 36.5024 54.2554 36.0005C54.2554 35.4994 54.6687 35.0936 55.178 35.0936H55.1789L58.4192 35.0954C58.9284 35.0954 59.3408 35.5021 59.3408 36.0041C59.3408 36.5052 58.9275 36.9109 58.4182 36.9109Z" fill="black"/>
<path d="M58.422 23.2945H49.1829C48.6727 23.2945 48.2603 22.8887 48.2603 22.3867C48.2603 21.8848 48.6727 21.479 49.1829 21.479H58.422C58.9322 21.479 59.3446 21.8848 59.3446 22.3867C59.3446 22.8887 58.9313 23.2945 58.422 23.2945Z" fill="black"/>
<path d="M58.4201 41.4603H49.1829C48.6727 41.4603 48.2603 41.0545 48.2603 40.5525C48.2603 40.0505 48.6727 39.6448 49.1829 39.6448H58.4201C58.9303 39.6448 59.3428 40.0505 59.3428 40.5525C59.3428 41.0545 58.9303 41.4603 58.4201 41.4603Z" fill="black"/>
<path d="M57.4812 30.1102C56.971 30.1102 56.5586 29.7045 56.5586 29.2025V22.3817C56.5586 21.8798 56.971 21.474 57.4812 21.474C57.9914 21.474 58.4038 21.8798 58.4038 22.3817V29.2025C58.4038 29.7045 57.9914 30.1102 57.4812 30.1102Z" fill="black"/>
<path d="M52.8653 27.8351H50.1067C49.5965 27.8351 49.1841 27.4294 49.1841 26.9274C49.1841 26.4254 49.5965 26.0197 50.1067 26.0197H52.8653C53.3755 26.0197 53.7879 26.4254 53.7879 26.9274C53.7879 27.4294 53.3755 27.8351 52.8653 27.8351Z" fill="black"/>
<path d="M58.4202 27.8351H57.4939C56.9837 27.8351 56.5713 27.4294 56.5713 26.9274C56.5713 26.4254 56.9837 26.0197 57.4939 26.0197H58.4202C58.9304 26.0197 59.3428 26.4254 59.3428 26.9274C59.3428 27.4294 58.9304 27.8351 58.4202 27.8351Z" fill="black"/>
<path d="M52.865 30.1099C52.3548 30.1099 51.9424 29.7042 51.9424 29.2022V26.9274C51.9424 26.4254 52.3548 26.0197 52.865 26.0197C53.3752 26.0197 53.7876 26.4254 53.7876 26.9274V29.2022C53.7876 29.7042 53.3752 30.1099 52.865 30.1099Z" fill="black"/>
<path d="M36.2747 36.9234C35.7654 36.9234 35.3521 36.5176 35.3521 36.0156C35.3521 35.5146 35.7645 35.1079 36.2747 35.1079L41.2107 35.1061C41.72 35.1061 42.1333 35.5118 42.1333 36.0138C42.1333 36.5149 41.7209 36.9216 41.2107 36.9216L36.2747 36.9234Z" fill="black"/>
<path d="M36.2747 27.8369C35.7654 27.8369 35.3521 27.4312 35.3521 26.9292C35.3521 26.4281 35.7645 26.0215 36.2747 26.0215L41.2107 26.0197C41.72 26.0197 42.1333 26.4254 42.1333 26.9274C42.1333 27.4285 41.7209 27.8351 41.2107 27.8351L36.2747 27.8369Z" fill="black"/>
<path d="M36.26 38.7373C35.7498 38.7373 35.3374 38.3316 35.3374 37.8296V25.1231C35.3374 24.6211 35.7498 24.2153 36.26 24.2153C36.7702 24.2153 37.1826 24.6211 37.1826 25.1231V37.8296C37.1826 38.3316 36.7702 38.7373 36.26 38.7373Z" fill="black"/>
<path d="M36.26 38.737H32.5686C32.0584 38.737 31.646 38.3312 31.646 37.8292C31.646 37.3273 32.0584 36.9215 32.5686 36.9215H36.26C36.7702 36.9215 37.1826 37.3273 37.1826 37.8292C37.1826 38.3312 36.7702 38.737 36.26 38.737Z" fill="black"/>
<path d="M36.26 26.0308H32.5686C32.0584 26.0308 31.646 25.625 31.646 25.1231C31.646 24.6211 32.0584 24.2153 32.5686 24.2153H36.26C36.7702 24.2153 37.1826 24.6211 37.1826 25.1231C37.1826 25.625 36.7702 26.0308 36.26 26.0308Z" fill="black"/>
<path d="M32.5686 40.5525C32.0584 40.5525 31.646 40.1467 31.646 39.6448V23.3091C31.646 22.8071 32.0584 22.4014 32.5686 22.4014C33.0788 22.4014 33.4912 22.8071 33.4912 23.3091V39.6448C33.4912 40.1467 33.0788 40.5525 32.5686 40.5525Z" fill="black"/>
<path d="M32.5685 24.2168H20.5735C20.0633 24.2168 19.6509 23.8111 19.6509 23.3091C19.6509 22.8071 20.0633 22.4014 20.5735 22.4014H32.5685C33.0787 22.4014 33.4911 22.8071 33.4911 23.3091C33.4911 23.8111 33.0787 24.2168 32.5685 24.2168Z" fill="black"/>
<path d="M32.5685 40.5525H20.5735C20.0633 40.5525 19.6509 40.1468 19.6509 39.6448C19.6509 39.1428 20.0633 38.7371 20.5735 38.7371H32.5685C33.0787 38.7371 33.4911 39.1428 33.4911 39.6448C33.4911 40.1468 33.0787 40.5525 32.5685 40.5525Z" fill="black"/>
<path d="M49.1939 41.4479C44.7441 41.4479 40.8543 38.6448 39.5165 34.4728C39.3624 33.9953 39.6319 33.4852 40.1181 33.3345C40.6015 33.1802 41.1228 33.4489 41.275 33.9264C42.3711 37.3385 45.5532 39.6315 49.1939 39.6315C49.7041 39.6315 50.1165 40.0373 50.1165 40.5392C50.1165 41.0412 49.7041 41.4479 49.1939 41.4479Z" fill="black"/>
<path d="M40.3874 29.6595C40.296 29.6595 40.2038 29.6459 40.1115 29.6178C39.6262 29.4689 39.355 28.9588 39.5072 28.4804C40.8376 24.293 44.7311 21.479 49.1938 21.479C49.704 21.479 50.1164 21.8848 50.1164 22.3867C50.1164 22.8887 49.704 23.2945 49.1938 23.2945C45.542 23.2945 42.3572 25.5965 41.2675 29.0232C41.1439 29.4117 40.7804 29.6595 40.3874 29.6595Z" fill="black"/>
<path d="M40.9006 75.044C40.3914 75.044 39.978 74.6382 39.978 74.1362C39.978 73.6352 40.3904 73.2285 40.9006 73.2285L63.0527 73.2267C63.562 73.2267 63.9753 73.6324 63.9753 74.1344C63.9753 74.6355 63.5629 75.0422 63.0527 75.0422L40.9006 75.044Z" fill="black"/>
<path d="M40.8802 75.0441C37.3198 75.0441 34.4219 72.1929 34.4219 68.69C34.4219 68.188 34.8343 67.7822 35.3445 67.7822C35.8547 67.7822 36.2671 68.188 36.2671 68.69C36.2671 71.1926 38.3365 73.2287 40.8802 73.2287C41.3904 73.2287 41.8028 73.6344 41.8028 74.1364C41.8028 74.6384 41.3904 75.0441 40.8802 75.0441Z" fill="black"/>
<path d="M63.0325 75.0422C62.5223 75.0422 62.1099 74.6364 62.1099 74.1344C62.1099 73.6325 62.5223 73.2267 63.0325 73.2267C65.5761 73.2267 67.6456 71.1906 67.6456 68.688C67.6456 68.186 68.058 67.7803 68.5682 67.7803C69.0784 67.7803 69.4908 68.186 69.4908 68.688C69.4908 72.1919 66.5929 75.0422 63.0325 75.0422Z" fill="black"/>
<path d="M35.3445 69.5974C34.8343 69.5974 34.4219 69.1916 34.4219 68.6896V54.1631C34.4219 53.6611 34.8343 53.2554 35.3445 53.2554C35.8547 53.2554 36.2671 53.6611 36.2671 54.1631V68.6896C36.2671 69.1916 35.8547 69.5974 35.3445 69.5974Z" fill="black"/>
<path d="M68.5642 69.5984C68.054 69.5984 67.6416 69.1927 67.6416 68.6907V54.1651C67.6416 53.6631 68.054 53.2573 68.5642 53.2573C69.0744 53.2573 69.4868 53.6631 69.4868 54.1651V68.6907C69.4868 69.1927 69.0744 69.5984 68.5642 69.5984Z" fill="black"/>
<path d="M68.5627 55.0858C68.0525 55.0858 67.6401 54.6801 67.6401 54.1781C67.6401 48.5837 64.5511 43.415 59.5801 40.6882C59.1354 40.444 58.9758 39.8912 59.2239 39.4537C59.4721 39.0161 60.0331 38.8591 60.4787 39.1033C66.0338 42.1496 69.4853 47.9265 69.4853 54.1781C69.4853 54.6801 69.0729 55.0858 68.5627 55.0858Z" fill="black"/>
<path d="M35.3445 55.0853C34.8343 55.0853 34.4219 54.6796 34.4219 54.1776C34.4219 47.7109 38.0496 41.8405 43.8879 38.8586C44.0494 38.776 44.2146 38.6952 44.3788 38.6172C44.8382 38.4002 45.39 38.589 45.6105 39.0402C45.8319 39.4913 45.6391 40.0342 45.1805 40.252C45.032 40.3228 44.8853 40.3945 44.7386 40.469C39.5129 43.1377 36.2662 48.3908 36.2662 54.1776C36.2671 54.6796 35.8547 55.0853 35.3445 55.0853Z" fill="black"/>
<path d="M54.7241 23.3107C54.6097 23.3107 54.4935 23.2907 54.3809 23.2463C53.9076 23.0593 53.6779 22.531 53.867 22.0653L55.7122 17.5357C55.9023 17.07 56.4402 16.8431 56.9126 17.0301C57.3859 17.2171 57.6156 17.7454 57.4265 18.211L55.5812 22.7407C55.4355 23.0956 55.0895 23.3107 54.7241 23.3107Z" fill="black"/>
<path d="M49.1635 23.3103C48.7963 23.3103 48.4485 23.0933 48.3046 22.7357L46.4842 18.197C46.2979 17.7304 46.5304 17.203 47.0037 17.0188C47.4807 16.8372 48.0139 17.0641 48.2012 17.5298L50.0216 22.0685C50.2079 22.5351 49.9754 23.0625 49.5021 23.2467C49.3905 23.2894 49.2761 23.3103 49.1635 23.3103Z" fill="black"/>
<path d="M56.5692 18.7797L47.3421 18.7715C46.8328 18.7715 46.4195 18.3649 46.4204 17.8629C46.4213 17.3618 46.8337 16.9561 47.343 16.9561H47.344L56.5701 16.9642C57.0794 16.9642 57.4928 17.3709 57.4918 17.8729C57.4909 18.373 57.0785 18.7797 56.5692 18.7797Z" fill="black"/>
<path d="M45.4978 57.8125C44.9876 57.8125 44.5752 57.4059 44.5752 56.9039C44.5761 54.9631 45.3447 53.1404 46.7387 51.7697C49.6173 48.9385 54.2996 48.9403 57.1763 51.7697C57.5371 52.1246 57.5371 52.6983 57.1763 53.0533C56.8156 53.4082 56.2325 53.4082 55.8717 53.0533C53.7119 50.9282 50.2013 50.9292 48.0433 53.0533C46.9971 54.0817 46.4214 55.4497 46.4204 56.9057C46.4204 57.4059 46.0071 57.8125 45.4978 57.8125Z" fill="black"/>
<path d="M51.9581 64.1628C50.0676 64.1628 48.1772 63.4557 46.7388 62.0396C46.3781 61.6847 46.3781 61.111 46.7388 60.7561C47.0996 60.4011 47.6827 60.4011 48.0434 60.7561C50.2023 62.8784 53.7138 62.8784 55.8718 60.7561C56.9162 59.7285 57.4919 58.3587 57.4929 56.9C57.4929 56.3989 57.9062 55.9932 58.4155 55.9932H58.4164C58.9257 55.9932 59.3381 56.3998 59.3381 56.9018C59.3372 58.8453 58.5696 60.6689 57.1764 62.0396C55.738 63.4548 53.8485 64.1628 51.9581 64.1628Z" fill="black"/>
<path d="M56.5233 53.3191H53.9031C53.3929 53.3191 52.9805 52.9134 52.9805 52.4114C52.9805 51.9094 53.3929 51.5037 53.9031 51.5037H56.5233C57.0335 51.5037 57.4459 51.9094 57.4459 52.4114C57.4459 52.9134 57.0335 53.3191 56.5233 53.3191Z" fill="black"/>
<path d="M56.5244 53.3191C56.1858 53.3191 55.8583 53.1348 55.6978 52.8153L54.3923 50.2355C54.1653 49.7871 54.3507 49.2415 54.8074 49.0182C55.2641 48.7949 55.8186 48.9783 56.0447 49.4267L57.3502 52.0065C57.5771 52.4549 57.3917 53.0005 56.935 53.2238C56.8031 53.2891 56.6619 53.3191 56.5244 53.3191Z" fill="black"/>
<path d="M50.0067 62.3086H47.3865C46.8763 62.3086 46.4639 61.9029 46.4639 61.4009C46.4639 60.8989 46.8763 60.4932 47.3865 60.4932H50.0067C50.5169 60.4932 50.9293 60.8989 50.9293 61.4009C50.9293 61.9029 50.516 62.3086 50.0067 62.3086Z" fill="black"/>
<path d="M48.6939 64.8871C48.3553 64.8871 48.0287 64.7028 47.8673 64.3842L46.5608 61.8053C46.333 61.3569 46.5184 60.8113 46.9742 60.588C47.4327 60.3629 47.9844 60.5481 48.2114 60.9947L49.5178 63.5736C49.7457 64.022 49.5603 64.5676 49.1045 64.7909C48.9726 64.8562 48.8314 64.8871 48.6939 64.8871Z" fill="black"/>
</g>
<defs>
<clipPath id="clip0">
<rect width="59.0476" height="58.0952" fill="white" transform="translate(15.0479 16.9524)"/>
</clipPath>
</defs>
</svg>
