<svg width="88" height="88" viewBox="0 0 88 88" fill="none" xmlns="http://www.w3.org/2000/svg">
<circle cx="44" cy="43.7695" r="43.5484" fill="white"/>
<g clip-path="url(#clip0)">
<path d="M37.957 51.1013C37.8577 51.1013 37.7588 51.0956 37.6606 51.0839C36.7713 50.9777 36.0637 50.4293 35.668 49.54C35.4987 49.1594 35.6701 48.7135 36.0508 48.5443C36.4312 48.3752 36.8772 48.5464 37.0466 48.927C37.2224 49.3224 37.4891 49.5442 37.8395 49.5859C38.251 49.6347 38.7389 49.4265 38.9982 49.0897C39.236 48.7809 39.3219 48.3473 39.2225 47.9584C39.159 47.71 38.9912 47.3733 38.5524 47.1805C37.2453 46.6058 35.7566 47.1565 34.0326 47.7936C30.9103 48.9481 27.0242 50.3849 22.7038 45.2479L20.9146 43.1205C20.5541 42.6921 20.3827 42.1489 20.4315 41.5912C20.4803 41.0335 20.7438 40.5285 21.1731 40.1693C22.3375 39.1948 23.907 38.8529 25.3713 39.2548L26.2497 39.496C26.7168 39.6241 27.2172 39.5146 27.588 39.2026L29.9712 37.1981C30.2901 36.9301 30.7659 36.971 31.034 37.2899C31.3021 37.6087 31.2611 38.0844 30.9423 38.3526L28.559 40.3572C27.8085 40.9883 26.7959 41.2099 25.8502 40.9506L24.9719 40.7095C23.9847 40.4385 22.9265 40.669 22.1412 41.3261C22.0214 41.4263 21.948 41.5671 21.9344 41.7227C21.9207 41.8783 21.9685 42.0299 22.069 42.1494L23.8583 44.2769C27.4958 48.6018 30.4168 47.5218 33.5093 46.3786C35.37 45.6906 37.294 44.9792 39.1594 45.7992C39.9355 46.1403 40.477 46.7744 40.684 47.5846C40.8988 48.4253 40.7155 49.3319 40.1933 50.0101C39.6739 50.6847 38.804 51.1013 37.957 51.1013Z" fill="#77AA31"/>
<path d="M52.0919 39.1898C51.6957 39.1899 51.2979 39.108 50.9286 38.9433C50.1648 38.6025 49.6311 37.962 49.4257 37.1396C48.9318 35.1629 49.9573 33.3861 50.949 31.668C52.5972 28.8125 54.154 26.1152 50.5039 21.8008L48.7084 19.6785C48.6075 19.5594 48.4663 19.4867 48.3106 19.4739C48.1551 19.4606 48.0037 19.5098 47.8848 19.611C47.1048 20.2741 46.6993 21.2785 46.8 22.2974L46.8896 23.2038C46.986 24.1796 46.5967 25.1404 45.8481 25.7737L43.4706 27.7851C43.1525 28.0544 42.6766 28.0145 42.4075 27.6964C42.1384 27.3783 42.1781 26.9024 42.4961 26.6334L44.8736 24.622C45.2435 24.3091 45.4359 23.8344 45.3882 23.3521L45.2986 22.4457C45.1493 20.9346 45.7507 19.4454 46.9075 18.4617C47.334 18.0991 47.8763 17.9243 48.434 17.9704C48.992 18.0162 49.4984 18.2768 49.86 18.7042L51.6555 20.8266C55.9907 25.9508 53.9196 29.539 52.2555 32.4223C51.3367 34.0141 50.5432 35.3889 50.8892 36.7741C51.0053 37.2391 51.309 37.4613 51.5432 37.5657C51.9099 37.7293 52.3517 37.7176 52.6963 37.5352C53.0718 37.3364 53.3596 36.8913 53.3806 36.4768C53.3983 36.1245 53.2248 35.8241 52.8647 35.5841C52.518 35.353 52.4243 34.8847 52.6553 34.5381C52.8863 34.1915 53.3547 34.0978 53.7013 34.3287C54.5113 34.8685 54.9324 35.6585 54.8873 36.553C54.8398 37.4928 54.243 38.4235 53.4021 38.8686C52.9981 39.0822 52.546 39.1898 52.0919 39.1898Z" fill="#77AA31"/>
<path d="M53.2656 63.6731L48.5206 64.014L44.0581 68.5957C43.9499 68.7068 43.8014 68.7695 43.6463 68.7695H27.74C27.1911 68.7695 26.9545 68.0736 27.3896 67.739L41.9552 56.5394L46.6385 48.7333C47.4235 47.4249 49.2386 47.2229 50.292 48.3268L59.0797 55.0589C60.4079 56.0765 60.4902 58.0486 59.2513 59.1733L55.5577 62.5263C54.9143 63.1184 54.1183 63.5165 53.2656 63.6731Z" fill="#FED9A8"/>
<path d="M59.0794 55.0588L56.931 53.4128C57.162 54.333 56.9025 55.3575 56.1335 56.0556L52.4399 59.4086C51.7965 60.0005 51.0005 60.3987 50.1477 60.5552L45.4027 60.8962L37.7344 68.7692H43.6459C43.801 68.7692 43.9495 68.7066 44.0577 68.5955L48.5204 64.0138L53.2653 63.6728C54.1181 63.5162 54.9141 63.1181 55.5576 62.5262L59.2512 59.1731C60.49 58.0485 60.4077 56.0763 59.0794 55.0588Z" fill="#F4C28C"/>
<path d="M52.3915 51.2279L53.2783 52.1817C52.779 52.235 52.2675 52.0655 51.9055 51.6761L51.0986 50.8082C51.5624 50.7229 52.0527 50.8635 52.3915 51.2279Z" fill="#E8D06B"/>
<path d="M63.8151 59.3908L58.1813 64.129L43.3286 43.8148L46.2525 41.3556L63.8151 59.3908Z" fill="#77AA31"/>
<path d="M25.4502 35.5022L30.3041 41.2735C33.7462 45.3661 39.1689 47.3771 44.9125 46.6909L48.3181 46.2841L49.3027 42.9985C50.9632 37.4574 49.9114 31.7703 46.4693 27.6777L41.6153 21.9065L25.4502 35.5022Z" fill="#8CC63E"/>
<path d="M46.4694 27.6781L41.6155 21.9069L38.1479 24.8233L43.2657 30.8818C46.7078 34.9744 47.7596 40.6615 46.0992 46.2026L45.9913 46.5624L48.3183 46.2844L49.3029 42.9989C50.9632 37.4579 49.9115 31.7708 46.4694 27.6781Z" fill="#77AA31"/>
<path d="M43.1436 22.5176L25.7905 37.1124C25.5378 37.325 25.1605 37.2924 24.9479 37.0397L23.8498 35.734C23.6373 35.4812 23.6698 35.104 23.9226 34.8914L41.2757 20.2966C41.5284 20.084 41.9057 20.1166 42.1183 20.3693L43.2164 21.675C43.429 21.9278 43.3965 22.3049 43.1436 22.5176Z" fill="#77AA31"/>
<path d="M43.2163 21.675L42.1182 20.3693C41.9056 20.1166 41.5284 20.084 41.2756 20.2966L38.21 22.8749L40.0779 25.0959L43.1436 22.5176C43.3964 22.3049 43.429 21.9278 43.2163 21.675Z" fill="#8CC63E"/>
<path d="M37.764 33.5512L40.8698 34.9124C40.9096 34.9299 40.9555 34.9266 40.9925 34.9037L43.8744 33.1169C43.9675 33.0592 44.0863 33.1333 44.0755 33.2422L43.7407 36.6166C43.7364 36.6599 43.7537 36.7025 43.7868 36.7305L46.3767 38.9193C46.4603 38.9899 46.4266 39.1259 46.3196 39.1493L43.007 39.8736C42.9645 39.8829 42.9293 39.9125 42.9129 39.9528L41.6315 43.0923C41.5901 43.1937 41.4504 43.2036 41.3951 43.109L39.6826 40.1823C39.6607 40.1448 39.6216 40.1205 39.5782 40.1173L36.1964 39.8688C36.0871 39.8608 36.0345 39.731 36.1074 39.6492L38.3616 37.1161C38.3905 37.0837 38.4016 37.039 38.3912 36.9968L37.5825 33.7037C37.5566 33.5975 37.6637 33.5073 37.764 33.5512Z" fill="#FFD15C"/>
<path d="M68.0327 58.9833L57.4503 67.8836C56.991 68.27 56.2955 68.1577 55.9811 67.6464L54.232 64.8017C53.9771 64.3872 54.0641 63.8485 54.4366 63.5353L64.2652 55.269C64.6376 54.9558 65.1832 54.9624 65.5479 55.2846L68.0508 57.4954C68.5007 57.8926 68.4921 58.5969 68.0327 58.9833Z" fill="#77AA31"/>
<path d="M68.0508 57.4955L65.5479 55.2847C65.1833 54.9626 64.6376 54.9559 64.2652 55.2691L61.3975 57.681L65.3892 61.2069L68.0327 58.9836C68.4921 58.5972 68.5007 57.8929 68.0508 57.4955Z" fill="#77AA31"/>
<path d="M57.3278 59.017C58.0446 59.7891 59.2516 59.8337 60.0234 59.1167L62.4108 56.8989C63.1822 56.1822 63.2268 54.9759 62.5104 54.2042C61.7936 53.4321 60.5866 53.3874 59.8148 54.1045L57.4274 56.3223C56.656 57.039 56.6114 58.2452 57.3278 59.017Z" fill="#F4C28C"/>
<path d="M57.4275 56.3226L59.8148 54.1047C60.5866 53.3877 61.7937 53.4323 62.5104 54.2045C62.926 54.6522 63.085 55.2461 62.995 55.8059C62.2688 55.1871 61.1782 55.1963 60.4621 55.8615L58.0747 58.0794C57.7509 58.3802 57.5557 58.7675 57.4905 59.1726C57.434 59.1245 57.3794 59.073 57.3277 59.0173C56.6114 58.2456 56.656 57.0393 57.4275 56.3226Z" fill="#FED9A8"/>
<path d="M55.4151 55.5757C56.1427 56.3594 57.368 56.4048 58.1514 55.6769L60.4965 53.4983C61.2796 52.7708 61.3249 51.5463 60.5977 50.763C59.8701 49.9792 58.6448 49.9339 57.8613 50.6617L55.5162 52.8404C54.7332 53.5678 54.6878 54.7923 55.4151 55.5757Z" fill="#F4C28C"/>
<path d="M55.5162 52.84L57.8613 50.6614C58.6449 49.9335 59.8701 49.9789 60.5977 50.7626C61.0144 51.2116 61.177 51.8054 61.0928 52.3677C60.3557 51.7261 59.2382 51.7311 58.5062 52.4111L56.161 54.5898C55.8268 54.9003 55.6274 55.3014 55.5647 55.7201C55.5129 55.6751 55.4628 55.6269 55.4151 55.5754C54.6878 54.792 54.7332 53.5676 55.5162 52.84Z" fill="#FED9A8"/>
<path d="M52.7681 52.7628C53.4956 53.5466 54.721 53.5919 55.5044 52.864L57.8495 50.6854C58.6326 49.9579 58.6779 48.7334 57.9506 47.9501C57.2231 47.1664 55.9978 47.121 55.2143 47.8489L52.8692 50.0275C52.0862 50.7551 52.0409 51.9795 52.7681 52.7628Z" fill="#F4C28C"/>
<path d="M52.8693 50.0275L55.2144 47.8489C55.9979 47.121 57.2232 47.1664 57.9507 47.9501C58.0009 48.0042 58.0471 48.0605 58.09 48.1185C57.6644 48.1484 57.246 48.3179 56.9091 48.6309L54.5639 50.8095C53.8349 51.4868 53.7457 52.5947 54.3236 53.3765C53.7594 53.4161 53.1829 53.2097 52.7682 52.7628C52.0409 51.9795 52.0861 50.7551 52.8693 50.0275Z" fill="#FED9A8"/>
<path d="M50.2188 49.8449C50.9463 50.6286 52.1716 50.6739 52.9551 49.9461L55.3002 47.7674C56.0833 47.04 56.1286 45.8155 55.4013 45.0321C54.6738 44.2484 53.4485 44.203 52.665 44.9309L50.3199 47.1095C49.5368 47.837 49.4916 49.0615 50.2188 49.8449Z" fill="#F4C28C"/>
<path d="M50.3199 47.1095L52.665 44.9309C53.4486 44.203 54.6738 44.2484 55.4013 45.0321C55.8177 45.4806 55.9803 46.0738 55.8968 46.6354C55.1597 45.9927 54.0413 45.9972 53.3087 46.6778L50.9636 48.8564C50.6289 49.1674 50.4294 49.5692 50.367 49.9885C50.3157 49.9437 50.2661 49.896 50.2188 49.845C49.4916 49.0615 49.5368 47.837 50.3199 47.1095Z" fill="#FED9A8"/>
<path d="M54.6996 51.3265L54.2647 51.7306C53.5805 52.3662 52.5245 52.3419 51.9057 51.6764L50.8108 50.4986C50.2749 49.9221 49.3592 49.9041 48.7702 50.4585C49.0999 55.5588 41.9556 56.5397 41.9556 56.5397L44.9922 49.0706C45.1794 48.5134 45.5034 48.0086 45.9341 47.6032L48.0907 45.5735C49.1392 44.5868 50.7687 44.6181 51.7235 45.6437L54.8174 48.9668C55.4377 49.6327 55.3849 50.6898 54.6996 51.3265Z" fill="#FED9A8"/>
</g>
<defs>
<clipPath id="clip0">
<rect width="50.8064" height="50.8064" fill="white" transform="translate(19 17.9631)"/>
</clipPath>
</defs>
</svg>
