<svg width="91" height="91" viewBox="0 0 91 91" fill="none" xmlns="http://www.w3.org/2000/svg">
<circle cx="45.5969" cy="45.4032" r="44.7581" fill="white"/>
<g clip-path="url(#clip0)">
<path d="M40.5787 38.0793V39.2637H43.3633V30.9724H40.5787V32.1504V38.0793Z" fill="#E6E9ED"/>
<path d="M23.8577 32.1567C22.8963 32.1567 22.1173 32.8194 22.1173 33.6373C22.1173 34.4012 22.7995 35.0343 23.6767 35.1113C23.7393 35.1178 23.795 35.1178 23.8577 35.1178V35.1113H26.1201C25.243 35.0343 24.5608 34.4012 24.5608 33.6373H24.5677V32.1501H24.5538H23.8577V32.1567Z" fill="#EAC6BB"/>
<path d="M16.2071 49.924H16.2001V59.3998C16.2001 61.3542 18.0588 62.9467 20.363 62.9533C20.37 62.9533 20.37 62.9533 20.3769 62.9533H37.0773H37.0912C39.4024 62.9533 41.2681 61.3655 41.2681 59.3998L41.2681 49.93V49.924C41.2681 45.808 38.519 42.2368 34.5009 40.4601C34.3826 40.4127 34.2642 40.3594 34.1459 40.312C33.1573 40.774 32.0233 41.0345 30.8253 41.0345V41.0411L26.3004 41.0411H23.8569V41.0345C23.3836 41.0345 22.9582 40.8746 22.6387 40.6141C18.8037 42.4322 16.2071 45.9199 16.2071 49.924Z" fill="#656D78"/>
<path d="M16.2072 49.9237C16.2072 45.9196 18.8038 42.4319 22.6396 40.6132C22.9591 40.8737 23.3844 41.0336 23.8578 41.0336V41.0402H23.9121C20.531 42.946 18.297 46.2116 18.297 49.9237H18.2901V59.3995C18.2901 61.3539 20.1488 62.9465 22.453 62.953H20.3771H20.3632C18.0583 62.9465 16.2003 61.3539 16.2003 59.3995V49.9237H16.2072Z" fill="#545C66"/>
<path d="M23.8577 38.0725C22.8963 38.0725 22.1174 38.7358 22.1174 39.5531C22.1174 39.9677 22.3185 40.3408 22.6395 40.6132C22.959 40.8738 23.3843 41.0337 23.8577 41.0337V41.0402H26.3012V41.0337C27.2625 41.0337 28.0415 40.3704 28.0415 39.5531C28.0415 38.7358 27.2625 38.0725 26.3012 38.0725H23.8577Z" fill="#EAC6BB"/>
<path d="M25.25 26.2463L26.6353 29.1897H30.8191H30.8261C30.8331 29.1897 30.84 29.1897 30.8463 29.1897L32.2114 26.2404L25.25 26.2463Z" fill="#656D78"/>
<path d="M23.6767 35.1113C22.7996 35.1883 22.1174 35.822 22.1174 36.586C22.1174 37.4092 22.8963 38.0725 23.8577 38.0725H26.3012V38.0666C27.2625 38.0666 28.0415 37.4033 28.0415 36.586C28.0415 35.822 27.3593 35.1883 26.4822 35.1113C26.4195 35.1178 26.3638 35.1178 26.3012 35.1178C26.2385 35.1178 26.1828 35.1178 26.1202 35.1113H23.8577V35.1178C23.7951 35.1178 23.7394 35.1178 23.6767 35.1113Z" fill="#EAC6BB"/>
<path d="M23.8578 29.189C22.8964 29.189 22.1175 29.8523 22.1175 30.6696C22.1175 31.4868 22.8964 32.1502 23.8578 32.1502H24.554H24.5679V29.189H23.8578Z" fill="#EAC6BB"/>
<path d="M26.1201 35.1113C26.1827 35.1179 26.2384 35.1179 26.3011 35.1179C26.3637 35.1179 26.4194 35.1179 26.4821 35.1113C27.3592 35.1883 28.0414 35.822 28.0414 36.586C28.0414 37.4033 27.2624 38.0666 26.3011 38.0666V38.0725C27.2624 38.0725 28.0414 38.7358 28.0414 39.5531C28.0414 40.3704 27.2624 41.0337 26.3011 41.0337V41.0402H30.826V41.0337C32.024 41.0337 33.158 40.7737 34.1466 40.3112C35.268 39.7959 36.2009 39.0201 36.8413 38.0785H40.5657H40.5796V32.1502H40.5657H36.8413C35.6502 30.3859 33.4094 29.1955 30.8469 29.189H30.8267H30.8197H26.6359H24.5677V32.1502V33.6373H24.5607C24.5607 34.4012 25.2429 35.0344 26.1201 35.1113Z" fill="#EAC6BB"/>
<path d="M43.3633 39.2636V40.4481H52.4131V29.7937L43.3633 29.7937V30.9723V39.2636Z" fill="#4CAF50"/>
<path d="M23.8576 32.7455C24.2425 32.7455 24.5537 32.4808 24.5537 32.1533C24.5537 31.8258 24.2425 31.561 23.8576 31.561C23.2819 31.561 22.8134 31.1619 22.8134 30.6715C22.8134 30.1823 23.2819 29.7843 23.8576 29.7843C24.2425 29.7843 24.5537 29.5196 24.5537 29.1921C24.5537 28.8646 24.2425 28.5999 23.8576 28.5999C22.514 28.5999 21.4211 29.5291 21.4211 30.6715C21.4211 31.8151 22.5147 32.7455 23.8576 32.7455Z" fill="black"/>
<path d="M23.8576 35.7135C24.2425 35.7135 24.5537 35.4488 24.5537 35.1213C24.5537 34.7938 24.2425 34.529 23.8576 34.529C23.2819 34.529 22.8134 34.1299 22.8134 33.6395C22.8134 33.1497 23.2819 32.7511 23.8576 32.7511C24.2425 32.7511 24.5537 32.4864 24.5537 32.1589C24.5537 31.8314 24.2425 31.5667 23.8576 31.5667C22.514 31.5667 21.4211 32.4965 21.4211 33.6395C21.4211 34.7831 22.5147 35.7135 23.8576 35.7135Z" fill="black"/>
<path d="M23.8576 38.6644C24.2425 38.6644 24.5537 38.3997 24.5537 38.0722C24.5537 37.7447 24.2425 37.48 23.8576 37.48C23.2819 37.48 22.8134 37.0808 22.8134 36.5904C22.8134 36.1006 23.2819 35.7021 23.8576 35.7021C24.2425 35.7021 24.5537 35.4373 24.5537 35.1098C24.5537 34.7823 24.2425 34.5176 23.8576 34.5176C22.514 34.5176 21.4211 35.4474 21.4211 36.5904C21.4211 37.734 22.5147 38.6644 23.8576 38.6644Z" fill="black"/>
<path d="M26.3037 38.6631C27.6473 38.6631 28.7402 37.7327 28.7402 36.5891C28.7402 35.446 27.6473 34.5162 26.3037 34.5162C25.9188 34.5162 25.6076 34.781 25.6076 35.1085C25.6076 35.436 25.9188 35.7007 26.3037 35.7007C26.8795 35.7007 27.348 36.0993 27.348 36.5891C27.348 37.0794 26.8795 37.4786 26.3037 37.4786C25.9188 37.4786 25.6076 37.7433 25.6076 38.0708C25.6076 38.3984 25.9188 38.6631 26.3037 38.6631Z" fill="black"/>
<path d="M26.3037 41.6265C27.6473 41.6265 28.7402 40.6961 28.7402 39.5524C28.7402 38.4094 27.6473 37.4796 26.3037 37.4796C25.9188 37.4796 25.6076 37.7443 25.6076 38.0719C25.6076 38.3994 25.9188 38.6641 26.3037 38.6641C26.8795 38.6641 27.348 39.0627 27.348 39.5524C27.348 40.0428 26.8795 40.442 26.3037 40.442C25.9188 40.442 25.6076 40.7067 25.6076 41.0342C25.6076 41.3617 25.9188 41.6265 26.3037 41.6265Z" fill="black"/>
<path d="M23.8576 41.6265C24.2425 41.6265 24.5537 41.3617 24.5537 41.0342C24.5537 40.7067 24.2425 40.442 23.8576 40.442C23.2819 40.442 22.8134 40.0428 22.8134 39.5524C22.8134 39.0627 23.2819 38.6641 23.8576 38.6641C24.2425 38.6641 24.5537 38.3994 24.5537 38.0719C24.5537 37.7443 24.2425 37.4796 23.8576 37.4796C22.514 37.4796 21.4211 38.4094 21.4211 39.5524C21.4211 40.6961 22.5147 41.6265 23.8576 41.6265Z" fill="black"/>
<path d="M26.303 35.7102C27.6473 35.7102 28.7402 34.7804 28.7402 33.6374C28.7402 33.3099 28.4291 33.0452 28.0441 33.0452C27.6591 33.0452 27.348 33.3099 27.348 33.6374C27.348 34.1272 26.8788 34.5258 26.303 34.5258C25.728 34.5258 25.2595 34.1272 25.2595 33.6374C25.2595 33.3099 24.9484 33.0452 24.5634 33.0452C24.1784 33.0452 23.8673 33.3099 23.8673 33.6374C23.8673 34.7804 24.9595 35.7102 26.303 35.7102Z" fill="black"/>
<path d="M23.8592 35.7064L26.3041 35.7052C26.6883 35.7052 26.9995 35.4399 26.9995 35.1124C26.9995 34.7855 26.6876 34.5208 26.3034 34.5208H26.3027L23.8585 34.5219C23.4743 34.5219 23.1631 34.7873 23.1631 35.1148C23.1631 35.4417 23.475 35.7064 23.8592 35.7064Z" fill="black"/>
<path d="M23.859 38.6666L26.3046 38.6654C26.6888 38.6654 27 38.4001 27 38.0726C27 37.7457 26.6881 37.481 26.3039 37.481H26.3032L23.8583 37.4821C23.4741 37.4821 23.1629 37.7475 23.1629 38.075C23.1629 38.4019 23.4748 38.6666 23.859 38.6666Z" fill="black"/>
<path d="M23.8562 29.7829H30.8273C31.2123 29.7829 31.5234 29.5181 31.5234 29.1906C31.5234 28.8631 31.2123 28.5984 30.8273 28.5984L23.8562 28.5984C23.4712 28.5984 23.16 28.8631 23.16 29.1906C23.16 29.5181 23.4719 29.7829 23.8562 29.7829Z" fill="black"/>
<path d="M23.8576 41.6348H30.8273C31.2123 41.6348 31.5234 41.3701 31.5234 41.0426C31.5234 40.715 31.2123 40.4503 30.8273 40.4503H23.8576C23.4726 40.4503 23.1614 40.715 23.1614 41.0426C23.1614 41.3701 23.4726 41.6348 23.8576 41.6348Z" fill="black"/>
<path d="M24.5666 34.2298C24.9515 34.2298 25.2627 33.965 25.2627 33.6375V29.1875C25.2627 28.8599 24.9515 28.5952 24.5666 28.5952C24.1816 28.5952 23.8704 28.8599 23.8704 29.1875V33.6375C23.8704 33.965 24.1816 34.2298 24.5666 34.2298Z" fill="black"/>
<path d="M28.0491 32.7455H30.1305C30.5155 32.7455 30.8267 32.4808 30.8267 32.1533C30.8267 31.8258 30.5155 31.561 30.1305 31.561H28.0491C27.6641 31.561 27.3529 31.8258 27.3529 32.1533C27.3529 32.4808 27.6641 32.7455 28.0491 32.7455Z" fill="black"/>
<path d="M23.8579 32.7455H24.5568C24.9418 32.7455 25.2529 32.4808 25.2529 32.1533C25.2529 31.8258 24.9418 31.561 24.5568 31.561H23.8579C23.4729 31.561 23.1617 31.8258 23.1617 32.1533C23.1617 32.4808 23.4729 32.7455 23.8579 32.7455Z" fill="black"/>
<path d="M28.049 34.2297C28.4339 34.2297 28.7451 33.9649 28.7451 33.6374V32.1533C28.7451 31.8258 28.4339 31.561 28.049 31.561C27.664 31.561 27.3528 31.8258 27.3528 32.1533V33.6374C27.3528 33.9649 27.664 34.2297 28.049 34.2297Z" fill="black"/>
<path d="M40.567 38.6748C40.9513 38.6748 41.2632 38.4101 41.2632 38.0826C41.2632 37.7556 40.952 37.4903 40.567 37.4903L36.8427 37.4891C36.4584 37.4891 36.1466 37.7539 36.1466 38.0814C36.1466 38.4083 36.4577 38.6736 36.8427 38.6736L40.567 38.6748Z" fill="black"/>
<path d="M40.567 32.7467C40.9513 32.7467 41.2632 32.482 41.2632 32.1545C41.2632 31.8275 40.952 31.5622 40.567 31.5622L36.8427 31.561C36.4584 31.561 36.1466 31.8258 36.1466 32.1533C36.1466 32.4802 36.4577 32.7455 36.8427 32.7455L40.567 32.7467Z" fill="black"/>
<path d="M40.5783 39.8585C40.9632 39.8585 41.2744 39.5938 41.2744 39.2663V30.9761C41.2744 30.6486 40.9632 30.3839 40.5783 30.3839C40.1933 30.3839 39.8821 30.6486 39.8821 30.9761V39.2663C39.8821 39.5938 40.1933 39.8585 40.5783 39.8585Z" fill="black"/>
<path d="M40.5782 39.8581H43.3634C43.7484 39.8581 44.0596 39.5933 44.0596 39.2658C44.0596 38.9383 43.7484 38.6736 43.3634 38.6736H40.5782C40.1932 38.6736 39.882 38.9383 39.882 39.2658C39.882 39.5933 40.1932 39.8581 40.5782 39.8581Z" fill="black"/>
<path d="M40.5782 31.5684H43.3634C43.7484 31.5684 44.0596 31.3037 44.0596 30.9761C44.0596 30.6486 43.7484 30.3839 43.3634 30.3839H40.5782C40.1932 30.3839 39.882 30.6486 39.882 30.9761C39.882 31.3037 40.1932 31.5684 40.5782 31.5684Z" fill="black"/>
<path d="M43.3634 41.0427C43.7484 41.0427 44.0596 40.778 44.0596 40.4505V29.7926C44.0596 29.465 43.7484 29.2003 43.3634 29.2003C42.9785 29.2003 42.6673 29.465 42.6673 29.7926V40.4505C42.6673 40.778 42.9785 41.0427 43.3634 41.0427Z" fill="black"/>
<path d="M43.3637 30.3848L52.4142 30.3848C52.7992 30.3848 53.1104 30.1201 53.1104 29.7926C53.1104 29.465 52.7992 29.2003 52.4142 29.2003L43.3637 29.2003C42.9787 29.2003 42.6676 29.465 42.6676 29.7926C42.6676 30.1201 42.9787 30.3848 43.3637 30.3848Z" fill="black"/>
<path d="M43.3637 41.0425H52.4142C52.7992 41.0425 53.1104 40.7778 53.1104 40.4503C53.1104 40.1228 52.7992 39.858 52.4142 39.858H43.3637C42.9787 39.858 42.6676 40.1228 42.6676 40.4503C42.6676 40.7778 42.9787 41.0425 43.3637 41.0425Z" fill="black"/>
<path d="M30.8188 41.6268C34.1763 41.6268 37.1112 39.798 38.1206 37.0761C38.2368 36.7645 38.0336 36.4317 37.6667 36.3334C37.3019 36.2327 36.9086 36.408 36.7937 36.7195C35.9667 38.9458 33.5658 40.4417 30.8188 40.4417C30.4338 40.4417 30.1226 40.7065 30.1226 41.034C30.1226 41.3615 30.4338 41.6268 30.8188 41.6268Z" fill="black"/>
<path d="M37.4636 33.9356C37.5325 33.9356 37.6021 33.9268 37.6717 33.9084C38.0379 33.8113 38.2426 33.4784 38.1277 33.1663C37.1239 30.4343 34.1862 28.5984 30.819 28.5984C30.434 28.5984 30.1228 28.8631 30.1228 29.1906C30.1228 29.5181 30.434 29.7829 30.819 29.7829C33.5743 29.7829 35.9773 31.2848 36.7995 33.5205C36.8928 33.774 37.167 33.9356 37.4636 33.9356Z" fill="black"/>
<path d="M37.0768 63.546C37.4611 63.546 37.7729 63.2813 37.7729 62.9538C37.7729 62.6269 37.4618 62.3615 37.0768 62.3615L20.3625 62.3604C19.9782 62.3604 19.6664 62.6251 19.6664 62.9526C19.6664 63.2795 19.9775 63.5448 20.3625 63.5448L37.0768 63.546Z" fill="black"/>
<path d="M37.0919 63.5459C39.7783 63.5459 41.9648 61.6857 41.9648 59.4002C41.9648 59.0727 41.6537 58.808 41.2687 58.808C40.8837 58.808 40.5726 59.0727 40.5726 59.4002C40.5726 61.033 39.0111 62.3614 37.0919 62.3614C36.7069 62.3614 36.3957 62.6261 36.3957 62.9536C36.3957 63.2811 36.7069 63.5459 37.0919 63.5459Z" fill="black"/>
<path d="M20.3776 63.5448C20.7626 63.5448 21.0737 63.2801 21.0737 62.9526C21.0737 62.625 20.7626 62.3603 20.3776 62.3603C18.4583 62.3603 16.8969 61.0319 16.8969 59.3991C16.8969 59.0716 16.5857 58.8069 16.2008 58.8069C15.8158 58.8069 15.5046 59.0716 15.5046 59.3991C15.5046 61.6852 17.6912 63.5448 20.3776 63.5448Z" fill="black"/>
<path d="M41.2687 59.9924C41.6537 59.9924 41.9648 59.7276 41.9648 59.4001V49.9226C41.9648 49.5951 41.6537 49.3303 41.2687 49.3303C40.8837 49.3303 40.5726 49.5951 40.5726 49.9226V59.4001C40.5726 59.7276 40.8837 59.9924 41.2687 59.9924Z" fill="black"/>
<path d="M16.2038 59.9931C16.5887 59.9931 16.8999 59.7284 16.8999 59.4009L16.8999 49.9239C16.8999 49.5964 16.5887 49.3317 16.2038 49.3317C15.8188 49.3317 15.5076 49.5964 15.5076 49.9239L15.5076 59.4009C15.5076 59.7284 15.8188 59.9931 16.2038 59.9931Z" fill="black"/>
<path d="M16.2048 50.5247C16.5897 50.5247 16.9009 50.26 16.9009 49.9325C16.9009 46.2825 19.2316 42.9103 22.9824 41.1312C23.3179 40.9719 23.4383 40.6113 23.2511 40.3258C23.0638 40.0403 22.6406 39.9379 22.3043 40.0972C18.1129 42.0847 15.5086 45.8537 15.5086 49.9325C15.5086 50.26 15.8198 50.5247 16.2048 50.5247Z" fill="black"/>
<path d="M41.2687 50.5243C41.6537 50.5243 41.9648 50.2595 41.9648 49.932C41.9648 45.7129 39.2276 41.8829 34.8225 39.9374C34.7006 39.8835 34.576 39.8308 34.4521 39.7799C34.1054 39.6383 33.6892 39.7615 33.5228 40.0559C33.3557 40.3502 33.5012 40.7044 33.8472 40.8465C33.9593 40.8927 34.0699 40.9395 34.1806 40.988C38.1236 42.7292 40.5733 46.1565 40.5733 49.932C40.5726 50.2595 40.8837 50.5243 41.2687 50.5243Z" fill="black"/>
<path d="M26.6466 29.7932C26.7329 29.7932 26.8206 29.7801 26.9055 29.7511C27.2627 29.6291 27.436 29.2844 27.2933 28.9806L25.901 26.0253C25.7576 25.7215 25.3518 25.5735 24.9953 25.6955C24.6382 25.8175 24.4649 26.1622 24.6076 26.466L25.9999 29.4212C26.1099 29.6528 26.3709 29.7932 26.6466 29.7932Z" fill="black"/>
<path d="M30.842 29.7935C31.1191 29.7935 31.3815 29.652 31.4901 29.4187L32.8636 26.4575C33.0042 26.1531 32.8288 25.809 32.4717 25.6887C32.1118 25.5703 31.7094 25.7184 31.5681 26.0222L30.1946 28.9834C30.054 29.2878 30.2294 29.6319 30.5865 29.7521C30.6707 29.7799 30.7571 29.7935 30.842 29.7935Z" fill="black"/>
<path d="M25.2541 26.8376L32.2162 26.8323C32.6004 26.8323 32.9123 26.567 32.9116 26.2395C32.9109 25.9126 32.5997 25.6478 32.2155 25.6478H32.2148L25.2534 25.6532C24.8691 25.6532 24.5573 25.9185 24.558 26.246C24.5587 26.5723 24.8698 26.8376 25.2541 26.8376Z" fill="black"/>
<path d="M33.6076 52.3035C33.9925 52.3035 34.3037 52.0382 34.3037 51.7107C34.303 50.4445 33.7231 49.2553 32.6713 48.361C30.4993 46.5138 26.9664 46.515 24.7958 48.361C24.5237 48.5926 24.5237 48.9669 24.7958 49.1984C25.068 49.43 25.508 49.43 25.7802 49.1984C27.4098 47.812 30.0587 47.8126 31.6869 49.1984C32.4763 49.8695 32.9107 50.762 32.9114 51.7119C32.9114 52.0382 33.2233 52.3035 33.6076 52.3035Z" fill="black"/>
<path d="M28.7333 56.4468C30.1597 56.4468 31.5861 55.9855 32.6713 55.0616C32.9435 54.83 32.9435 54.4557 32.6713 54.2242C32.3992 53.9926 31.9592 53.9926 31.687 54.2242C30.058 55.6088 27.4085 55.6088 25.7803 54.2242C24.9922 53.5538 24.5578 52.6601 24.5571 51.7083C24.5571 51.3814 24.2453 51.1167 23.861 51.1167H23.8603C23.476 51.1167 23.1649 51.382 23.1649 51.7095C23.1656 52.9775 23.7447 54.1673 24.7959 55.0616C25.8812 55.9849 27.3069 56.4468 28.7333 56.4468Z" fill="black"/>
<path d="M25.2887 49.372H27.2658C27.6507 49.372 27.9619 49.1072 27.9619 48.7797C27.9619 48.4522 27.6507 48.1875 27.2658 48.1875H25.2887C24.9038 48.1875 24.5926 48.4522 24.5926 48.7797C24.5926 49.1072 24.9038 49.372 25.2887 49.372Z" fill="black"/>
<path d="M25.2884 49.372C25.5438 49.372 25.791 49.2518 25.9121 49.0433L26.8971 47.3602C27.0684 47.0676 26.9285 46.7117 26.5839 46.566C26.2393 46.4203 25.8209 46.5399 25.6504 46.8325L24.6653 48.5156C24.4941 48.8082 24.634 49.1641 24.9786 49.3098C25.0781 49.3524 25.1846 49.372 25.2884 49.372Z" fill="black"/>
<path d="M30.2057 55.237H32.1828C32.5677 55.237 32.8789 54.9722 32.8789 54.6447C32.8789 54.3172 32.5677 54.0525 32.1828 54.0525H30.2057C29.8208 54.0525 29.5096 54.3172 29.5096 54.6447C29.5096 54.9722 29.8215 55.237 30.2057 55.237Z" fill="black"/>
<path d="M31.1964 56.9193C31.4519 56.9193 31.6983 56.7991 31.8201 56.5912L32.8059 54.9087C32.9778 54.6161 32.8379 54.2602 32.494 54.1145C32.148 53.9676 31.7317 54.0884 31.5605 54.3798L30.5747 56.0624C30.4028 56.3549 30.5427 56.7109 30.8866 56.8566C30.9862 56.8992 31.0927 56.9193 31.1964 56.9193Z" fill="black"/>
</g>
<g clip-path="url(#clip1)">
<path d="M54.7767 38.079V39.2635H52.4077V30.9722H54.7767V32.1501V38.079Z" fill="#E6E9ED"/>
<path d="M69.0019 32.1568C69.8198 32.1568 70.4825 32.8195 70.4825 33.6374C70.4825 34.4014 69.9021 35.0345 69.1559 35.1115C69.1026 35.118 69.0552 35.118 69.0019 35.118V35.1115H67.0771C67.8234 35.0345 68.4038 34.4014 68.4038 33.6374H68.3978V32.1503H68.4097H69.0019V32.1568Z" fill="#EAC6BB"/>
<path d="M75.511 49.9239H75.5169V59.3997C75.5169 61.3541 73.9356 62.9466 71.9753 62.9531C71.9694 62.9531 71.9694 62.9531 71.9635 62.9531H57.7557H57.7439C55.7776 62.9531 54.1904 61.3654 54.1904 59.3997V49.9298V49.9239C54.1904 45.8079 56.5292 42.2367 59.9476 40.4599C60.0483 40.4126 60.1489 40.3593 60.2496 40.3119C61.0906 40.7738 62.0553 41.0344 63.0746 41.0344V41.0409H66.9241H69.0029V41.0344C69.4056 41.0344 69.7675 40.8745 70.0393 40.6139C73.3019 42.4321 75.511 45.9198 75.511 49.9239Z" fill="#656D78"/>
<path d="M75.5109 49.9237C75.5109 45.9196 73.3019 42.4319 70.0387 40.6132C69.7668 40.8737 69.405 41.0336 69.0022 41.0336V41.0402H68.9561C71.8326 42.946 73.733 46.2116 73.733 49.9237H73.739V59.3995C73.739 61.3539 72.1577 62.9465 70.1974 62.953H71.9634H71.9753C73.9362 62.9465 75.5169 61.3539 75.5169 59.3995V49.9237H75.5109Z" fill="#545C66"/>
<path d="M69.0022 38.0726C69.8201 38.0726 70.4828 38.7359 70.4828 39.5532C70.4828 39.9678 70.3117 40.3409 70.0386 40.6133C69.7668 40.8739 69.4049 41.0338 69.0022 41.0338V41.0403H66.9235V41.0338C66.1056 41.0338 65.4429 40.3705 65.4429 39.5532C65.4429 38.7359 66.1056 38.0726 66.9235 38.0726H69.0022Z" fill="#EAC6BB"/>
<path d="M67.8179 26.2464L66.6393 29.1898H63.08H63.0741C63.0681 29.1898 63.0622 29.1898 63.0569 29.1898L61.8955 26.2405L67.8179 26.2464Z" fill="#656D78"/>
<path d="M69.1562 35.1115C69.9024 35.1884 70.4828 35.8221 70.4828 36.5861C70.4828 37.4093 69.8201 38.0726 69.0022 38.0726H66.9235V38.0667C66.1056 38.0667 65.4429 37.4034 65.4429 36.5861C65.4429 35.8221 66.0233 35.1884 66.7695 35.1115C66.8228 35.118 66.8702 35.118 66.9235 35.118C66.9768 35.118 67.0241 35.118 67.0774 35.1115H69.0022V35.118C69.0555 35.118 69.1029 35.118 69.1562 35.1115Z" fill="#EAC6BB"/>
<path d="M69.002 29.1891C69.8199 29.1891 70.4826 29.8524 70.4826 30.6697C70.4826 31.487 69.8199 32.1503 69.002 32.1503H68.4098H68.3979V29.1891H69.002Z" fill="#EAC6BB"/>
<path d="M67.0772 35.1115C67.0239 35.118 66.9766 35.118 66.9233 35.118C66.87 35.118 66.8226 35.118 66.7693 35.1115C66.0231 35.1885 65.4427 35.8222 65.4427 36.5861C65.4427 37.4034 66.1054 38.0667 66.9233 38.0667V38.0727C66.1054 38.0727 65.4427 38.736 65.4427 39.5532C65.4427 40.3705 66.1054 41.0338 66.9233 41.0338V41.0404H63.0737V41.0338C62.0545 41.0338 61.0897 40.7739 60.2487 40.3113C59.2947 39.7961 58.5011 39.0202 57.9562 38.0786H54.7877H54.7759V32.1503H54.7877H57.9562C58.9695 30.386 60.8759 29.1956 63.056 29.1891H63.0731H63.0791H66.6384H68.3979V32.1503V33.6374H68.4039C68.4039 34.4014 67.8235 35.0345 67.0772 35.1115Z" fill="#EAC6BB"/>
<path d="M52.4076 39.2637V40.4482H44.7085V29.7938H52.4076V30.9724V39.2637Z" fill="#4CAF50"/>
<path d="M69.0024 32.7454C68.6749 32.7454 68.4102 32.4807 68.4102 32.1532C68.4102 31.8257 68.6749 31.5609 69.0024 31.5609C69.4922 31.5609 69.8908 31.1618 69.8908 30.6714C69.8908 30.1822 69.4922 29.7842 69.0024 29.7842C68.6749 29.7842 68.4102 29.5195 68.4102 29.192C68.4102 28.8645 68.6749 28.5997 69.0024 28.5997C70.1454 28.5997 71.0752 29.529 71.0752 30.6714C71.0752 31.815 70.1448 32.7454 69.0024 32.7454Z" fill="black"/>
<path d="M69.0024 35.7136C68.6749 35.7136 68.4102 35.4489 68.4102 35.1214C68.4102 34.7939 68.6749 34.5291 69.0024 34.5291C69.4922 34.5291 69.8908 34.13 69.8908 33.6396C69.8908 33.1498 69.4922 32.7512 69.0024 32.7512C68.6749 32.7512 68.4102 32.4865 68.4102 32.159C68.4102 31.8315 68.6749 31.5668 69.0024 31.5668C70.1454 31.5668 71.0752 32.4966 71.0752 33.6396C71.0752 34.7832 70.1448 35.7136 69.0024 35.7136Z" fill="black"/>
<path d="M69.0024 38.6644C68.6749 38.6644 68.4102 38.3997 68.4102 38.0722C68.4102 37.7447 68.6749 37.48 69.0024 37.48C69.4922 37.48 69.8908 37.0808 69.8908 36.5904C69.8908 36.1006 69.4922 35.7021 69.0024 35.7021C68.6749 35.7021 68.4102 35.4373 68.4102 35.1098C68.4102 34.7823 68.6749 34.5176 69.0024 34.5176C70.1454 34.5176 71.0752 35.4474 71.0752 36.5904C71.0752 37.734 70.1448 38.6644 69.0024 38.6644Z" fill="black"/>
<path d="M66.921 38.6632C65.778 38.6632 64.8481 37.7328 64.8481 36.5892C64.8481 35.4462 65.778 34.5164 66.921 34.5164C67.2485 34.5164 67.5132 34.7811 67.5132 35.1086C67.5132 35.4361 67.2485 35.7008 66.921 35.7008C66.4312 35.7008 66.0326 36.0994 66.0326 36.5892C66.0326 37.0796 66.4312 37.4787 66.921 37.4787C67.2485 37.4787 67.5132 37.7435 67.5132 38.071C67.5132 38.3985 67.2485 38.6632 66.921 38.6632Z" fill="black"/>
<path d="M66.921 41.6265C65.778 41.6265 64.8481 40.6961 64.8481 39.5524C64.8481 38.4094 65.778 37.4796 66.921 37.4796C67.2485 37.4796 67.5132 37.7443 67.5132 38.0719C67.5132 38.3994 67.2485 38.6641 66.921 38.6641C66.4312 38.6641 66.0326 39.0627 66.0326 39.5524C66.0326 40.0428 66.4312 40.442 66.921 40.442C67.2485 40.442 67.5132 40.7067 67.5132 41.0342C67.5132 41.3617 67.2485 41.6265 66.921 41.6265Z" fill="black"/>
<path d="M69.0024 41.6265C68.6749 41.6265 68.4102 41.3617 68.4102 41.0342C68.4102 40.7067 68.6749 40.442 69.0024 40.442C69.4922 40.442 69.8908 40.0428 69.8908 39.5524C69.8908 39.0627 69.4922 38.6641 69.0024 38.6641C68.6749 38.6641 68.4102 38.3994 68.4102 38.0719C68.4102 37.7443 68.6749 37.4796 69.0024 37.4796C70.1454 37.4796 71.0752 38.4094 71.0752 39.5524C71.0752 40.6961 70.1448 41.6265 69.0024 41.6265Z" fill="black"/>
<path d="M66.9216 35.7101C65.778 35.7101 64.8481 34.7803 64.8481 33.6373C64.8481 33.3098 65.1129 33.045 65.4404 33.045C65.7679 33.045 66.0326 33.3098 66.0326 33.6373C66.0326 34.1271 66.4318 34.5256 66.9216 34.5256C67.4108 34.5256 67.8093 34.1271 67.8093 33.6373C67.8093 33.3098 68.0741 33.045 68.4016 33.045C68.7291 33.045 68.9938 33.3098 68.9938 33.6373C68.9938 34.7803 68.0646 35.7101 66.9216 35.7101Z" fill="black"/>
<path d="M69.0012 35.7064L66.9212 35.7052C66.5943 35.7052 66.3296 35.4399 66.3296 35.1124C66.3296 34.7855 66.5949 34.5208 66.9218 34.5208H66.9224L69.0018 34.5219C69.3287 34.5219 69.5934 34.7873 69.5934 35.1148C69.5934 35.4417 69.3281 35.7064 69.0012 35.7064Z" fill="black"/>
<path d="M69.0013 38.6667L66.9207 38.6656C66.5938 38.6656 66.3291 38.4002 66.3291 38.0727C66.3291 37.7458 66.5944 37.4811 66.9213 37.4811H66.9219L69.0019 37.4823C69.3288 37.4823 69.5935 37.7476 69.5935 38.0751C69.5935 38.402 69.3282 38.6667 69.0013 38.6667Z" fill="black"/>
<path d="M69.0034 29.7829H63.0727C62.7452 29.7829 62.4805 29.5181 62.4805 29.1906C62.4805 28.8631 62.7452 28.5984 63.0727 28.5984H69.0034C69.3309 28.5984 69.5956 28.8631 69.5956 29.1906C69.5956 29.5181 69.3303 29.7829 69.0034 29.7829Z" fill="black"/>
<path d="M69.0022 41.6348H63.0727C62.7452 41.6348 62.4805 41.3701 62.4805 41.0426C62.4805 40.715 62.7452 40.4503 63.0727 40.4503H69.0022C69.3297 40.4503 69.5944 40.715 69.5944 41.0426C69.5944 41.3701 69.3297 41.6348 69.0022 41.6348Z" fill="black"/>
<path d="M68.3994 34.2298C68.0719 34.2298 67.8071 33.965 67.8071 33.6375V29.1875C67.8071 28.8599 68.0719 28.5952 68.3994 28.5952C68.7269 28.5952 68.9916 28.8599 68.9916 29.1875V33.6375C68.9916 33.965 68.7269 34.2298 68.3994 34.2298Z" fill="black"/>
<path d="M65.4363 32.7454H63.6655C63.338 32.7454 63.0732 32.4807 63.0732 32.1532C63.0732 31.8256 63.338 31.5609 63.6655 31.5609H65.4363C65.7638 31.5609 66.0285 31.8256 66.0285 32.1532C66.0285 32.4807 65.7638 32.7454 65.4363 32.7454Z" fill="black"/>
<path d="M69.0023 32.7454H68.4077C68.0802 32.7454 67.8154 32.4807 67.8154 32.1532C67.8154 31.8256 68.0802 31.5609 68.4077 31.5609H69.0023C69.3298 31.5609 69.5945 31.8256 69.5945 32.1532C69.5945 32.4807 69.3298 32.7454 69.0023 32.7454Z" fill="black"/>
<path d="M65.4365 34.2295C65.109 34.2295 64.8442 33.9648 64.8442 33.6373V32.1532C64.8442 31.8256 65.109 31.5609 65.4365 31.5609C65.764 31.5609 66.0287 31.8256 66.0287 32.1532V33.6373C66.0287 33.9648 65.764 34.2295 65.4365 34.2295Z" fill="black"/>
<path d="M54.7866 38.6748C54.4597 38.6748 54.1943 38.4101 54.1943 38.0826C54.1943 37.7556 54.4591 37.4903 54.7866 37.4903L57.955 37.4891C58.282 37.4891 58.5473 37.7539 58.5473 38.0814C58.5473 38.4083 58.2826 38.6736 57.955 38.6736L54.7866 38.6748Z" fill="black"/>
<path d="M54.7866 32.7466C54.4597 32.7466 54.1943 32.4818 54.1943 32.1543C54.1943 31.8274 54.4591 31.5621 54.7866 31.5621L57.955 31.5609C58.282 31.5609 58.5473 31.8256 58.5473 32.1532C58.5473 32.4801 58.2826 32.7454 57.955 32.7454L54.7866 32.7466Z" fill="black"/>
<path d="M54.7773 39.8584C54.4498 39.8584 54.1851 39.5937 54.1851 39.2662V30.976C54.1851 30.6485 54.4498 30.3838 54.7773 30.3838C55.1048 30.3838 55.3695 30.6485 55.3695 30.976V39.2662C55.3695 39.5937 55.1048 39.8584 54.7773 39.8584Z" fill="black"/>
<path d="M54.7772 39.8581H52.4077C52.0802 39.8581 51.8154 39.5933 51.8154 39.2658C51.8154 38.9383 52.0802 38.6736 52.4077 38.6736H54.7772C55.1047 38.6736 55.3694 38.9383 55.3694 39.2658C55.3694 39.5933 55.1047 39.8581 54.7772 39.8581Z" fill="black"/>
<path d="M54.7772 31.5683H52.4077C52.0802 31.5683 51.8154 31.3035 51.8154 30.976C51.8154 30.6485 52.0802 30.3838 52.4077 30.3838H54.7772C55.1047 30.3838 55.3694 30.6485 55.3694 30.976C55.3694 31.3035 55.1047 31.5683 54.7772 31.5683Z" fill="black"/>
<path d="M52.4077 41.0426C52.0802 41.0426 51.8154 40.7779 51.8154 40.4503V29.7924C51.8154 29.4649 52.0802 29.2002 52.4077 29.2002C52.7352 29.2002 52.9999 29.4649 52.9999 29.7924V40.4503C52.9999 40.7779 52.7352 41.0426 52.4077 41.0426Z" fill="black"/>
<path d="M52.4076 30.3847H44.708C44.3805 30.3847 44.1157 30.1199 44.1157 29.7924C44.1157 29.4649 44.3805 29.2002 44.708 29.2002H52.4076C52.7352 29.2002 52.9999 29.4649 52.9999 29.7924C52.9999 30.1199 52.7352 30.3847 52.4076 30.3847Z" fill="black"/>
<path d="M52.4076 41.0425H44.708C44.3805 41.0425 44.1157 40.7778 44.1157 40.4503C44.1157 40.1228 44.3805 39.858 44.708 39.858H52.4076C52.7352 39.858 52.9999 40.1228 52.9999 40.4503C52.9999 40.7778 52.7352 41.0425 52.4076 41.0425Z" fill="black"/>
<path d="M63.0802 41.6268C60.2238 41.6268 57.7269 39.798 56.8682 37.0761C56.7693 36.7645 56.9422 36.4317 57.2543 36.3334C57.5646 36.2327 57.8993 36.408 57.997 36.7195C58.7006 38.9458 60.7432 40.4417 63.0802 40.4417C63.4077 40.4417 63.6724 40.7065 63.6724 41.034C63.6724 41.3615 63.4077 41.6268 63.0802 41.6268Z" fill="black"/>
<path d="M57.4271 33.9356C57.3685 33.9356 57.3093 33.9268 57.2501 33.9084C56.9385 33.8113 56.7644 33.4784 56.8621 33.1663C57.7162 30.4343 60.2154 28.5984 63.08 28.5984C63.4076 28.5984 63.6723 28.8631 63.6723 29.1906C63.6723 29.5181 63.4076 29.7829 63.08 29.7829C60.736 29.7829 58.6916 31.2848 57.9921 33.5205C57.9128 33.774 57.6794 33.9356 57.4271 33.9356Z" fill="black"/>
<path d="M57.7563 63.5461C57.4294 63.5461 57.1641 63.2814 57.1641 62.9539C57.1641 62.627 57.4288 62.3617 57.7563 62.3617L71.9759 62.3605C72.3028 62.3605 72.5682 62.6252 72.5682 62.9527C72.5682 63.2796 72.3034 63.545 71.9759 63.545L57.7563 63.5461Z" fill="black"/>
<path d="M57.7433 63.546C55.4579 63.546 53.5977 61.6858 53.5977 59.4003C53.5977 59.0728 53.8624 58.8081 54.1899 58.8081C54.5174 58.8081 54.7821 59.0728 54.7821 59.4003C54.7821 61.0331 56.1105 62.3615 57.7433 62.3615C58.0708 62.3615 58.3356 62.6263 58.3356 62.9538C58.3356 63.2813 58.0708 63.546 57.7433 63.546Z" fill="black"/>
<path d="M71.9628 63.5449C71.6353 63.5449 71.3706 63.2802 71.3706 62.9527C71.3706 62.6252 71.6353 62.3604 71.9628 62.3604C73.5956 62.3604 74.924 61.032 74.924 59.3992C74.924 59.0717 75.1888 58.807 75.5163 58.807C75.8438 58.807 76.1085 59.0717 76.1085 59.3992C76.1085 61.6853 74.2483 63.5449 71.9628 63.5449Z" fill="black"/>
<path d="M54.1899 59.9925C53.8624 59.9925 53.5977 59.7278 53.5977 59.4003V49.9227C53.5977 49.5952 53.8624 49.3304 54.1899 49.3304C54.5174 49.3304 54.7821 49.5952 54.7821 49.9227V59.4003C54.7821 59.7278 54.5174 59.9925 54.1899 59.9925Z" fill="black"/>
<path d="M75.5136 59.993C75.1861 59.993 74.9214 59.7283 74.9214 59.4008V49.9238C74.9214 49.5963 75.1861 49.3315 75.5136 49.3315C75.8411 49.3315 76.1059 49.5963 76.1059 49.9238V59.4008C76.1059 59.7283 75.8411 59.993 75.5136 59.993Z" fill="black"/>
<path d="M75.5126 50.5247C75.1851 50.5247 74.9204 50.26 74.9204 49.9325C74.9204 46.2825 72.9376 42.9103 69.7466 41.1312C69.4611 40.9719 69.3587 40.6113 69.518 40.3258C69.6773 40.0403 70.0374 39.9379 70.3234 40.0972C73.8893 42.0848 76.1049 45.8538 76.1049 49.9325C76.1049 50.26 75.8401 50.5247 75.5126 50.5247Z" fill="black"/>
<path d="M54.1899 50.5243C53.8624 50.5243 53.5977 50.2595 53.5977 49.932C53.5977 45.7129 55.9263 41.8829 59.674 39.9374C59.7777 39.8835 59.8837 39.8308 59.9891 39.7799C60.284 39.6383 60.6382 39.7615 60.7797 40.0559C60.9219 40.3502 60.7981 40.7044 60.5037 40.8465C60.4084 40.8927 60.3142 40.9395 60.2201 40.988C56.8656 42.7292 54.7815 46.1565 54.7815 49.932C54.7821 50.2595 54.5174 50.5243 54.1899 50.5243Z" fill="black"/>
<path d="M66.6298 29.793C66.5564 29.793 66.4817 29.78 66.4095 29.751C66.1057 29.629 65.9582 29.2843 66.0796 28.9805L67.2641 26.0252C67.3861 25.7214 67.7314 25.5733 68.0346 25.6953C68.3384 25.8173 68.4859 26.162 68.3645 26.4658L67.18 29.4211C67.0864 29.6527 66.8643 29.793 66.6298 29.793Z" fill="black"/>
<path d="M63.0605 29.7942C62.8247 29.7942 62.6015 29.6526 62.5091 29.4193L61.3406 26.4581C61.221 26.1537 61.3702 25.8096 61.674 25.6894C61.9802 25.5709 62.3225 25.719 62.4428 26.0228L63.6112 28.984C63.7309 29.2884 63.5816 29.6325 63.2778 29.7527C63.2061 29.7805 63.1327 29.7942 63.0605 29.7942Z" fill="black"/>
<path d="M67.8144 26.8381L61.8914 26.8328C61.5645 26.8328 61.2992 26.5675 61.2998 26.24C61.3004 25.913 61.5651 25.6483 61.892 25.6483H61.8926L67.815 25.6536C68.1419 25.6536 68.4073 25.919 68.4067 26.2465C68.4061 26.5728 68.1413 26.8381 67.8144 26.8381Z" fill="black"/>
<path d="M60.7075 52.3037C60.38 52.3037 60.1152 52.0383 60.1152 51.7108C60.1158 50.4446 60.6092 49.2554 61.504 48.3611C63.3518 46.514 66.3574 46.5151 68.204 48.3611C68.4356 48.5927 68.4356 48.967 68.204 49.1986C67.9724 49.4301 67.5982 49.4301 67.3666 49.1986C65.9802 47.8121 63.7267 47.8127 62.3415 49.1986C61.6699 49.8696 61.3003 50.7621 61.2997 51.712C61.2997 52.0383 61.0344 52.3037 60.7075 52.3037Z" fill="black"/>
<path d="M64.854 56.4468C63.6405 56.4468 62.427 55.9855 61.5038 55.0616C61.2722 54.83 61.2722 54.4557 61.5038 54.2242C61.7353 53.9926 62.1096 53.9926 62.3412 54.2242C63.727 55.6088 65.9811 55.6088 67.3663 54.2242C68.0367 53.5538 68.4063 52.6601 68.4069 51.7083C68.4069 51.3814 68.6722 51.1167 68.9991 51.1167H68.9997C69.3266 51.1167 69.5913 51.382 69.5913 51.7095C69.5908 52.9775 69.098 54.1673 68.2037 55.0616C67.2804 55.9849 66.0675 56.4468 64.854 56.4468Z" fill="black"/>
<path d="M67.7844 49.3719H66.1025C65.775 49.3719 65.5103 49.1071 65.5103 48.7796C65.5103 48.4521 65.775 48.1874 66.1025 48.1874H67.7844C68.112 48.1874 68.3767 48.4521 68.3767 48.7796C68.3767 49.1071 68.112 49.3719 67.7844 49.3719Z" fill="black"/>
<path d="M67.7853 49.3719C67.568 49.3719 67.3577 49.2516 67.2547 49.0432L66.4167 47.36C66.271 47.0675 66.39 46.7115 66.6832 46.5658C66.9763 46.4202 67.3323 46.5398 67.4774 46.8324L68.3154 48.5155C68.4611 48.8081 68.342 49.164 68.0489 49.3097C67.9642 49.3523 67.8736 49.3719 67.7853 49.3719Z" fill="black"/>
<path d="M63.6018 55.2371H61.9199C61.5924 55.2371 61.3276 54.9724 61.3276 54.6448C61.3276 54.3173 61.5924 54.0526 61.9199 54.0526H63.6018C63.9293 54.0526 64.1941 54.3173 64.1941 54.6448C64.1941 54.9724 63.9287 55.2371 63.6018 55.2371Z" fill="black"/>
<path d="M62.759 56.9195C62.5416 56.9195 62.332 56.7992 62.2283 56.5914L61.3897 54.9088C61.2434 54.6162 61.3625 54.2603 61.655 54.1146C61.9494 53.9677 62.3035 54.0886 62.4492 54.3799L63.2878 56.0625C63.4341 56.3551 63.3151 56.711 63.0225 56.8567C62.9378 56.8993 62.8472 56.9195 62.759 56.9195Z" fill="black"/>
</g>
<defs>
<clipPath id="clip0">
<rect width="37.9032" height="37.9032" fill="white" transform="matrix(-1 0 0 1 53.2583 25.6451)"/>
</clipPath>
<clipPath id="clip1">
<rect width="37.9032" height="37.9032" fill="white" transform="translate(41.1611 25.6451)"/>
</clipPath>
</defs>
</svg>
