<svg width="7" height="7" viewBox="0 0 7 7" fill="none" xmlns="http://www.w3.org/2000/svg">
<path d="M6 2.39642L4.60356 0.999956C4.50979 0.906192 4.38262 0.853516 4.25002 0.853516C4.11741 0.853516 3.99024 0.906192 3.89647 0.999956L3.07328 1.82314L3.07322 1.82317L3.07319 1.82324L0.146469 4.74996C0.0978819 4.79852 0.0598572 4.8566 0.0347812 4.92055C0.032356 4.92656 0.0301668 4.93265 0.0282187 4.93883C0.00963712 4.99175 9.75684e-05 5.04743 0 5.10352V6.49996C0.000148882 6.63252 0.0528752 6.75961 0.146611 6.85334C0.240347 6.94708 0.367437 6.99981 0.5 6.99996H1.89647C1.95741 6.99989 2.01782 6.98866 2.07472 6.96683C2.07591 6.96639 2.07716 6.96605 2.07834 6.96558C2.14271 6.94051 2.20116 6.90234 2.25 6.85349L6 3.10349C6.09362 3.00965 6.14619 2.88251 6.14619 2.74996C6.14619 2.6174 6.09362 2.49026 6 2.39642ZM0.5 5.60349L1.39647 6.49996H0.5V5.60349ZM2 6.39639L0.603562 4.99996L3.25 2.35349L4.64647 3.74996L2 6.39639ZM5 3.39639L3.60356 1.99996L4.25 1.35349L5.64647 2.74996L5 3.39639Z" fill="white"/>
</svg>
