<svg width="22" height="22" viewBox="0 0 22 22" fill="none" xmlns="http://www.w3.org/2000/svg">
<g clip-path="url(#clip0)">
<path d="M21.8457 13.4479C21.7442 13.707 21.5842 13.9392 21.3782 14.1262L21.3507 14.1537C20.9957 14.4865 20.5265 14.6703 20.0399 14.6671H17.4183C17.2624 14.6668 17.1174 14.5874 17.0333 14.4562L16.5933 13.7504L14.7417 10.7896C14.6698 10.6851 14.6496 10.5534 14.6867 10.4321C14.7148 10.3075 14.7949 10.2007 14.9067 10.1388L19.0316 7.84715C19.2548 7.7298 19.5308 7.81097 19.6549 8.03049L21.7815 11.8254C22.0471 12.3287 22.0707 12.9252 21.8457 13.4479Z" fill="#4CAF50"/>
<path d="M11.9729 3.74995L11.5879 4.29079L9.54383 7.14158C9.45798 7.26383 9.31734 7.33584 9.16798 7.33408C9.09137 7.33326 9.01601 7.3144 8.94799 7.27908L3.90641 4.52913C3.78915 4.467 3.70532 4.35631 3.67726 4.22663C3.6483 4.09532 3.67847 3.95791 3.75976 3.85079L5.72138 1.23834C5.79963 1.13152 5.88544 1.03046 5.97803 0.935844C6.53026 0.353327 7.29299 0.016544 8.0955 0.000860704C8.13847 -0.000643176 8.18152 0.00240755 8.22385 0.0100129C9.20438 0.0395749 10.1126 0.532848 10.6713 1.33914L11.9729 3.22746C12.0819 3.38459 12.0819 3.59286 11.9729 3.74995Z" fill="#4CAF50"/>
<path d="M9.02133 12.7144C8.88181 12.8426 8.67784 12.8717 8.50799 12.7877L7.07801 12.0728L6.24388 13.7502L5.91388 14.4102C5.83482 14.5658 5.67593 14.6647 5.50139 14.6669H1.96315C1.47164 14.6728 0.997484 14.4851 0.64317 14.1444L0.624823 14.126C0.413721 13.9323 0.247822 13.6945 0.138984 13.4294C-0.00169353 13.0707 -0.0335758 12.6786 0.047333 12.3019C0.0829964 12.1399 0.138382 11.9829 0.21233 11.8344L1.73396 8.8003L0.138984 7.19613C0.00307591 7.06964 -0.0374429 6.87074 0.0381378 6.70114C0.108433 6.53 0.274763 6.41789 0.459783 6.41699H6.41803C6.60305 6.41789 6.76938 6.53 6.83967 6.70114L9.13128 12.2011C9.20248 12.3786 9.159 12.5816 9.02133 12.7144Z" fill="#4CAF50"/>
<path d="M9.16729 14.2083V19.7082C9.16729 19.9614 8.96208 20.1666 8.70895 20.1666H6.48149C5.4295 20.169 4.44451 19.6508 3.85069 18.7824C3.72234 18.5991 3.61234 18.4341 3.51154 18.2875L3.47489 18.2508C3.48404 18.2508 3.30074 17.9942 3.12655 17.7375C3.04405 17.6275 2.9799 17.5175 2.9157 17.435C2.67736 17.0866 2.54906 16.9125 2.60406 16.9858C2.55821 16.9125 2.51241 16.8575 2.49406 16.8208L2.48491 16.8117C2.44826 16.7567 2.43631 16.7383 2.43451 16.7338L2.42076 16.72L2.4116 16.7017C1.76996 15.7758 1.17413 14.9142 0.642482 14.1442L0.624135 14.1259C0.449985 13.8875 0.29414 13.6492 0.138295 13.4292C-0.00238174 13.0706 -0.034264 12.6784 0.0466448 12.3018L1.28412 13.4842C1.46532 13.6604 1.70981 13.7562 1.96246 13.7501H8.70899C8.96208 13.75 9.16729 13.9552 9.16729 14.2083Z" fill="#388E3C"/>
<path d="M19.2144 2.46628L16.9228 7.96618C16.8525 8.13732 16.6862 8.24942 16.5012 8.25033C16.4734 8.25183 16.4455 8.24874 16.4187 8.24118L11.3771 7.32454C11.1848 7.28522 11.036 7.13269 11.0013 6.93955C10.9738 6.74172 11.0777 6.54888 11.2579 6.4629L12.6146 5.78457L11.5879 4.29044L9.91961 1.85213C9.51636 1.2792 8.86023 0.937475 8.15964 0.935498H5.97803C6.4313 0.455675 7.03091 0.139731 7.683 0.0371665L8.09549 0.00966702H8.22384L14.1454 0.00051484C14.9143 -0.00318041 15.6337 0.378934 16.0612 1.018L17.1153 2.61297L18.5912 1.87963C18.761 1.79563 18.965 1.82476 19.1045 1.95298C19.2423 2.08567 19.2859 2.28878 19.2144 2.46628Z" fill="#388E3C"/>
<path d="M21.8453 13.4479L21.4144 14.0712L21.3778 14.1262L21.3503 14.1537L18.1603 18.7828C17.5627 19.6516 16.5749 20.1696 15.5204 20.1669H14.6679V21.5419C14.6664 21.7317 14.5506 21.9018 14.3745 21.9728C14.3214 21.9908 14.2657 22.0001 14.2095 22.0003C14.079 22.0012 13.9547 21.9442 13.8704 21.8444L10.2038 17.7195C10.0584 17.5616 10.0468 17.3223 10.1763 17.1511L13.8429 12.1096C13.9553 11.9482 14.159 11.8778 14.347 11.9354C14.539 11.9958 14.6691 12.1742 14.6679 12.3754V13.7504H20.0394C20.2921 13.7565 20.5365 13.6607 20.7178 13.4845L21.9553 12.3021C22.0397 12.6861 22.0012 13.087 21.8453 13.4479Z" fill="#388E3C"/>
</g>
<defs>
<clipPath id="clip0">
<rect width="22" height="22" fill="white"/>
</clipPath>
</defs>
</svg>
