<svg width="17" height="17" viewBox="0 0 17 17" fill="none" xmlns="http://www.w3.org/2000/svg">
<g clip-path="url(#clip0)">
<path d="M13.6717 4.47746C13.6148 4.47746 13.5593 4.4608 13.5122 4.42919C12.9982 4.08553 12.3936 3.90251 11.7753 3.90281H5.22573C4.60682 3.90225 4.00202 4.08526 3.4874 4.42919C3.4015 4.4858 3.29229 4.49267 3.20009 4.44728L2.05078 3.87263L2.30764 3.35831L3.31328 3.86054C3.89022 3.51201 4.55163 3.32783 5.22573 3.32813H11.7753C12.4502 3.32756 13.1122 3.51174 13.6898 3.86054L14.694 3.35831L14.9508 3.87263L13.8015 4.44728C13.7613 4.4674 13.7167 4.47773 13.6717 4.47746Z" fill="#91562F"/>
<path d="M12.5226 16.8324H4.47754C4.47754 16.1977 4.99213 15.6831 5.62684 15.6831H11.3733C12.008 15.6831 12.5226 16.1977 12.5226 16.8324Z" fill="#F9B44D"/>
<path d="M11.3733 15.6831H9.07471C9.70942 15.6831 10.224 16.1977 10.224 16.8324H12.5226C12.5226 16.1977 12.008 15.6831 11.3733 15.6831Z" fill="#FA982F"/>
<path d="M10.2238 15.683H6.77588L7.92519 14.5337H9.07449L10.2238 15.683Z" fill="#F9B44D"/>
<path d="M9.0746 2.46631H7.92529V14.534H9.0746V2.46631Z" fill="#91562F"/>
<path d="M9.07488 2.46609H7.92557L7.62963 1.28259C7.50923 0.801899 7.80146 0.314572 8.28244 0.194209C8.3537 0.176379 8.42698 0.16748 8.50023 0.16748C8.99586 0.16748 9.39755 0.569176 9.39755 1.0648C9.39755 1.13835 9.38865 1.21133 9.37082 1.28259L9.07488 2.46609Z" fill="#F9B44D"/>
<path d="M8.49998 0.16748C8.40834 0.168908 8.31753 0.184447 8.23047 0.213467C8.68213 0.354848 8.94564 0.823448 8.83155 1.28262L8.53591 2.46612H9.07463L9.37057 1.28262C9.49097 0.801932 9.19875 0.314605 8.71776 0.194242C8.64681 0.176678 8.57356 0.16748 8.49998 0.16748Z" fill="#FA982F"/>
<path d="M9.93675 2.17871H7.06348V2.75336H9.93675V2.17871Z" fill="#F9B44D"/>
<path d="M6.10777 10.3699L3.32818 4.30505L0.548584 10.3699C0.48251 10.5141 0.311844 10.5774 0.167575 10.5113C0.0233391 10.4452 -0.0398803 10.2745 0.0261946 10.1303L3.06697 3.49569C3.13304 3.35145 3.30371 3.28823 3.44798 3.35434C3.5106 3.38306 3.5606 3.43307 3.58936 3.49569L6.63013 10.1303C6.6962 10.2745 6.63302 10.4452 6.48875 10.5113C6.34451 10.5777 6.17411 10.5141 6.10777 10.3699Z" fill="#F0E4D6"/>
<path d="M16.4515 10.3699L13.6719 4.30505L10.8923 10.3699C10.8263 10.5141 10.6556 10.5774 10.5113 10.5113C10.3671 10.4452 10.3039 10.2745 10.3699 10.1303L13.4107 3.49569C13.4768 3.35145 13.6475 3.28823 13.7917 3.35434C13.8543 3.38306 13.9043 3.43307 13.9331 3.49569L16.9738 10.1303C17.0399 10.2745 16.9767 10.4452 16.8325 10.5113C16.6883 10.5777 16.5179 10.5141 16.4515 10.3699Z" fill="#F0E4D6"/>
<path d="M10.5112 10.5112H16.8324C16.8324 11.4634 16.0606 12.2352 15.1084 12.2352H12.2352C11.2833 12.2352 10.5112 11.4634 10.5112 10.5112Z" fill="#F9B44D"/>
<path d="M15.1087 10.5112C15.1087 11.4634 14.337 12.2352 13.3848 12.2352H15.1087C16.0609 12.2352 16.8327 11.4634 16.8327 10.5112H15.1087Z" fill="#FA982F"/>
<path d="M0.16748 10.5112H6.48862C6.48862 11.4634 5.71687 12.2352 4.76466 12.2352H1.8914C0.939527 12.2352 0.16748 11.4634 0.16748 10.5112Z" fill="#F9B44D"/>
<path d="M4.76448 10.5112C4.76448 11.4634 3.99273 12.2352 3.04053 12.2352H4.76448C5.71669 12.2352 6.48843 11.4634 6.48843 10.5112H4.76448Z" fill="#FA982F"/>
</g>
<defs>
<clipPath id="clip0">
<rect width="17" height="17" fill="white"/>
</clipPath>
</defs>
</svg>
