<svg width="9" height="9" viewBox="0 0 9 9" fill="none" xmlns="http://www.w3.org/2000/svg">
<path d="M5.42434 2.07229C4.81118 2.18198 4.1834 2.18162 3.57037 2.07123L2.60059 0.496406L3.13285 0.627187C3.58294 0.737732 4.05837 0.669229 4.45894 0.436113C4.71005 0.289941 4.993 0.207163 5.2833 0.194942C5.57359 0.182721 5.86249 0.241426 6.125 0.365976L6.39992 0.496406L5.42434 2.07229Z" fill="#515660"/>
<path d="M3.78772 1.568L3.22025 0.646488C3.19104 0.640852 3.1619 0.634477 3.13285 0.627363L2.60059 0.496582L3.57037 2.07141C3.96394 2.14215 4.3643 2.1677 4.76366 2.14755L4.75698 2.14722C4.56061 2.13631 4.36982 2.0779 4.201 1.97701C4.03217 1.87613 3.89036 1.73577 3.78772 1.568Z" fill="#40454C"/>
<path d="M4.73724 2.24917C4.72038 2.24914 4.70377 2.24507 4.6888 2.23731C4.67383 2.22954 4.66094 2.2183 4.65121 2.20454C4.64147 2.19077 4.63518 2.17487 4.63285 2.15817C4.63052 2.14147 4.63222 2.12445 4.63782 2.10855L4.91622 1.32136C4.92073 1.30817 4.92781 1.296 4.93705 1.28556C4.9463 1.27512 4.95752 1.26661 4.97007 1.26054C4.98262 1.25446 4.99625 1.25094 5.01017 1.25016C5.0241 1.24939 5.03804 1.25138 5.05118 1.25603C5.06433 1.26068 5.07642 1.26789 5.08676 1.27724C5.09711 1.2866 5.10549 1.29791 5.11143 1.31052C5.11738 1.32313 5.12076 1.3368 5.12139 1.35073C5.12201 1.36466 5.11987 1.37858 5.11508 1.39167L4.83668 2.17886C4.82941 2.19942 4.81594 2.21722 4.79813 2.22982C4.78033 2.24241 4.75905 2.24917 4.73724 2.24917Z" fill="#2D3135"/>
<path d="M4.17702 2.24387C4.15373 2.24386 4.1311 2.23615 4.11266 2.22193C4.09422 2.20771 4.081 2.18779 4.07507 2.16528L3.86886 1.38365C3.86497 1.37015 3.86383 1.35601 3.86548 1.34206C3.86714 1.32811 3.87156 1.31464 3.8785 1.30242C3.88543 1.29021 3.89474 1.2795 3.90587 1.27093C3.91699 1.26236 3.92972 1.2561 3.94331 1.25251C3.95689 1.24893 3.97105 1.2481 3.98496 1.25006C3.99886 1.25202 4.01224 1.25674 4.0243 1.26395C4.03636 1.27115 4.04686 1.28069 4.05518 1.292C4.0635 1.30332 4.06948 1.31618 4.07276 1.32984L4.27899 2.11147C4.2831 2.12709 4.28357 2.14344 4.28036 2.15926C4.27716 2.17509 4.27036 2.18997 4.26051 2.20276C4.25065 2.21554 4.23799 2.2259 4.2235 2.23303C4.20901 2.24016 4.19308 2.24386 4.17693 2.24387H4.17702Z" fill="#2D3135"/>
<path d="M7.9116 8.63809C7.78627 8.26086 7.70822 7.45121 7.67922 6.8648C7.67078 6.69148 7.66639 6.53785 7.66639 6.42043L7.66621 5.73928L7.66586 4.93982C7.6474 3.84348 6.98014 2.86191 5.9766 2.41982L5.90611 2.38871L5.9019 2.38818L3.1075 2.43881L3.10434 2.43969C2.51485 2.60606 2.01456 2.99783 1.71171 3.53023C1.47142 3.95721 1.33598 4.45221 1.33598 4.99432V6.4185C1.33598 6.53645 1.3307 6.69078 1.32218 6.8648C1.31198 7.07152 1.29525 7.30584 1.27296 7.5391C1.23163 7.96871 1.16992 8.39516 1.08853 8.64002C1.08145 8.66124 1.08013 8.68396 1.08469 8.70586C1.08925 8.72777 1.09954 8.74807 1.1145 8.7647C1.12946 8.78133 1.14857 8.7937 1.16987 8.80055C1.19116 8.80739 1.2139 8.80847 1.23575 8.80367L1.58735 8.72615C1.95305 8.64566 2.32643 8.60522 2.70088 8.60557L6.30053 8.60961C6.71794 8.61015 7.13397 8.65743 7.54085 8.75059L7.76319 8.80156C7.78169 8.80584 7.80092 8.80589 7.81944 8.80172C7.83797 8.79756 7.85532 8.78927 7.87021 8.77749C7.8851 8.76571 7.89715 8.75072 7.90546 8.73365C7.91377 8.71658 7.91814 8.69786 7.91823 8.67887C7.91823 8.66501 7.916 8.65123 7.9116 8.63809Z" fill="#515660"/>
<path d="M3.1075 2.44339L3.10434 2.44189C2.51582 2.61064 2.01194 2.99775 1.71171 3.53126C1.47142 3.95822 1.33598 4.45204 1.33598 4.99415V6.41833C1.33598 6.53628 1.3307 6.69061 1.32218 6.86464C1.31198 7.07136 1.29525 7.30567 1.27296 7.53893C1.23163 7.96854 1.16992 8.39499 1.08853 8.63985C1.08145 8.66108 1.08013 8.68379 1.08469 8.7057C1.08925 8.7276 1.09954 8.7479 1.1145 8.76453C1.12946 8.78116 1.14857 8.79353 1.16987 8.80038C1.19116 8.80723 1.2139 8.8083 1.23575 8.8035L1.58735 8.72598C1.59684 8.72389 1.60638 8.72214 1.61587 8.72011C1.60709 8.69408 1.60709 8.66589 1.61587 8.63985C1.69726 8.39499 1.75898 7.96854 1.8003 7.53893C1.82263 7.30567 1.83936 7.07136 1.84952 6.86464C1.85814 6.69061 1.86332 6.53628 1.86332 6.41833V4.99415C1.86332 4.45204 1.99867 3.95704 2.23905 3.53007C2.53929 2.99657 3.04317 2.61064 3.63168 2.44198L3.63485 2.44348L3.1075 2.44339Z" fill="#40454C"/>
<path d="M7.66629 6.42016C7.66629 6.53758 7.67068 6.69121 7.67912 6.86453C7.22895 6.8292 7.19643 6.5527 6.68508 6.5527C6.13875 6.5527 6.13875 6.8684 5.5926 6.8684C5.04645 6.8684 5.04645 6.5527 4.50012 6.5527C3.95379 6.5527 3.95396 6.8684 3.40781 6.8684C2.86166 6.8684 2.86148 6.5527 2.31516 6.5527C1.80398 6.5527 1.77111 6.8292 1.32129 6.86453C1.3299 6.69051 1.3343 6.53617 1.3343 6.41822V5.739C1.77182 5.69928 1.80891 5.42822 2.31516 5.42822C2.86148 5.42822 2.86148 5.74375 3.40781 5.74375C3.95414 5.74375 3.95396 5.42822 4.50012 5.42822C5.04627 5.42822 5.04645 5.74375 5.5926 5.74375C6.13875 5.74375 6.13875 5.42822 6.68508 5.42822C7.19133 5.42822 7.22824 5.69945 7.66611 5.739L7.66629 6.42016Z" fill="#6D7486"/>
<path d="M1.86341 6.4184V5.53369C1.7084 5.61455 1.58216 5.71612 1.33606 5.73927V6.41849C1.33606 6.53644 1.33079 6.69077 1.32227 6.86479C1.5833 6.8443 1.70359 6.74263 1.85875 6.66089C1.86197 6.56976 1.86341 6.48767 1.86341 6.4184Z" fill="#5B606D"/>
<path d="M5.42419 2.07208C5.46022 2.06593 5.49643 2.05907 5.53247 2.05186C5.57246 2.04391 5.61363 2.04391 5.65362 2.05187C5.69362 2.05982 5.73165 2.07558 5.76555 2.09824C5.79946 2.12089 5.82856 2.15 5.85122 2.18391C5.87387 2.21782 5.88962 2.25585 5.89757 2.29585C5.90364 2.3261 5.90512 2.35709 5.90196 2.38778C5.89526 2.45391 5.86751 2.51613 5.8228 2.56531C5.77809 2.61448 5.71877 2.64801 5.65358 2.66095C5.27378 2.73685 4.88742 2.77512 4.5001 2.7752C4.11279 2.77512 3.72643 2.73685 3.34663 2.66095C3.30663 2.65299 3.2686 2.63724 3.23469 2.61459C3.20079 2.59194 3.17168 2.56283 3.14902 2.52893C3.12636 2.49503 3.11061 2.45699 3.10265 2.417C3.09469 2.37701 3.09469 2.33584 3.10264 2.29585C3.11059 2.25586 3.12635 2.21782 3.149 2.18392C3.17165 2.15001 3.20076 2.1209 3.23466 2.09824C3.26856 2.07559 3.3066 2.05983 3.34659 2.05187C3.38658 2.04391 3.42775 2.04391 3.46774 2.05186C3.50184 2.05872 3.53612 2.06505 3.57022 2.07102C4.18325 2.18141 4.81103 2.18177 5.42419 2.07208Z" fill="#56568C"/>
<path d="M2.43203 3.56604C2.41268 3.56602 2.3937 3.56068 2.37719 3.5506C2.36067 3.54052 2.34724 3.52609 2.33838 3.50888C2.32951 3.49168 2.32555 3.47238 2.32693 3.45307C2.3283 3.43377 2.33496 3.41522 2.34618 3.39945C2.38683 3.34229 2.4302 3.28558 2.47508 3.23093C2.49283 3.20931 2.51844 3.19563 2.54628 3.19289C2.57412 3.19015 2.6019 3.19859 2.62352 3.21634C2.64514 3.23409 2.65883 3.2597 2.66156 3.28754C2.6643 3.31538 2.65586 3.34317 2.63811 3.36479C2.59629 3.41576 2.5559 3.4685 2.51805 3.52171C2.5083 3.53543 2.4954 3.54662 2.48043 3.55434C2.46547 3.56205 2.44887 3.56606 2.43203 3.56604Z" fill="#E2E4ED"/>
<path d="M1.8897 5.2915C1.86173 5.2915 1.83491 5.28039 1.81513 5.26061C1.79535 5.24083 1.78424 5.21401 1.78424 5.18604C1.78135 4.70851 1.88983 4.23689 2.10106 3.80861C2.10722 3.7962 2.11575 3.78513 2.12619 3.77602C2.13662 3.76691 2.14875 3.75994 2.16188 3.75552C2.175 3.7511 2.18887 3.7493 2.20269 3.75024C2.21651 3.75118 2.23001 3.75483 2.24242 3.76098C2.25483 3.76714 2.2659 3.77567 2.27501 3.78611C2.28412 3.79654 2.29108 3.80867 2.29551 3.8218C2.29993 3.83492 2.30172 3.84879 2.30079 3.86261C2.29985 3.87643 2.2962 3.88993 2.29004 3.90234C2.09332 4.3015 1.99236 4.74103 1.99517 5.18604C1.99517 5.21401 1.98406 5.24083 1.96428 5.26061C1.9445 5.28039 1.91768 5.2915 1.8897 5.2915Z" fill="#E2E4ED"/>
</svg>
